<svg xmlns="http://www.w3.org/2000/svg" xmlns:xlink="http://www.w3.org/1999/xlink" xmlns:inkscape="http://www.inkscape.org/namespaces/inkscape" version="1.1" width="209.548" height="72.18" viewBox="0 0 209.548 72.18">
<defs>
<clipPath id="clip_1">
<path transform="matrix(.4092,0,0,-.4092,3.321,72.18)" d="M0 0H504V180H0Z"/>
</clipPath>
<clipPath id="clip_2">
<path transform="matrix(.4092,0,0,-.4092,3.321,72.18)" d="M0 180H504V0H0Z"/>
</clipPath>
<clipPath id="clip_3">
<path transform="matrix(.4092,0,0,-.4092,3.321,72.18)" d="M0 180H504V0H0Z"/>
</clipPath>
<clipPath id="clip_4">
<path transform="matrix(.4092,0,0,-.4092,3.321,72.18)" d="M0 180H504V0H0Z"/>
</clipPath>
<clipPath id="clip_5">
<path transform="matrix(.4092,0,0,-.4092,3.321,72.18)" d="M0 180H504V0H0Z"/>
</clipPath>
<clipPath id="clip_6">
<path transform="matrix(.4092,0,0,-.4092,3.321,72.18)" d="M0 180H504V0H0Z"/>
</clipPath>
<clipPath id="clip_7">
<path transform="matrix(.4092,0,0,-.4092,3.321,72.18)" d="M0 180H504V0H0Z"/>
</clipPath>
<clipPath id="clip_8">
<path transform="matrix(.4092,0,0,-.4092,3.321,72.18)" d="M0 180H504V0H0Z"/>
</clipPath>
<clipPath id="clip_9">
<path transform="matrix(.4092,0,0,-.4092,3.321,72.18)" d="M0 180H504V0H0Z"/>
</clipPath>
<clipPath id="clip_10">
<path transform="matrix(.4092,0,0,-.4092,3.321,72.18)" d="M0 180H504V0H0Z"/>
</clipPath>
</defs>
<g clip-path="url(#clip_1)">
<g inkscape:groupmode="layer" inkscape:label="Layer 1">
<path transform="matrix(.4092,0,0,-.4092,109.78535,57.021638)" stroke-width="3" stroke-linecap="butt" stroke-miterlimit="4" stroke-linejoin="miter" fill="none" stroke="#231f20" d="M0 0 48.548 18.636"/>
<path transform="matrix(.4092,0,0,-.4092,91.95798,63.864934)" stroke-width="3" stroke-linecap="butt" stroke-miterlimit="4" stroke-linejoin="miter" fill="none" stroke="#231f20" d="M0 0 43.566 16.724"/>
<g clip-path="url(#clip_2)">
<path transform="matrix(.4092,0,0,-.4092,114.6266,55.163049)" d="M0 0C-4.772-4.204-10.328-10.38-13.175-15.754L-13.382-5.138-20.333 2.89C-14.619 .802-6.359-.072 0 0" fill="#231f20"/>
</g>
<path transform="matrix(.4092,0,0,-.4092,71.28458,57.30333)" stroke-width="3" stroke-linecap="butt" stroke-miterlimit="4" stroke-linejoin="miter" fill="none" stroke="#231f20" d="M0 0 50.229-13.459"/>
<path transform="matrix(.4092,0,0,-.4092,52.839399,52.36097)" stroke-width="3" stroke-linecap="butt" stroke-miterlimit="4" stroke-linejoin="miter" fill="none" stroke="#231f20" d="M0 0 45.076-12.078"/>
<g clip-path="url(#clip_3)">
<path transform="matrix(.4092,0,0,-.4092,76.29409,58.64563)" d="M0 0C-6.333-.594-14.458-2.326-19.921-5L-13.849 3.711-14.752 14.29C-11.358 9.242-5.188 3.68 0 0" fill="#231f20"/>
</g>
<path transform="matrix(.4092,0,0,-.4092,141.43039,36.91727)" stroke-width="3" stroke-linecap="butt" stroke-miterlimit="4" stroke-linejoin="miter" fill="none" stroke="#231f20" d="M0 0 36.771 36.771"/>
<path transform="matrix(.4092,0,0,-.4092,127.9276,50.42005)" stroke-width="3" stroke-linecap="butt" stroke-miterlimit="4" stroke-linejoin="miter" fill="none" stroke="#231f20" d="M0 0 32.998 32.998"/>
<g clip-path="url(#clip_4)">
<path transform="matrix(.4092,0,0,-.4092,145.09763,33.25006)" d="M0 0C-2.652-5.782-5.215-13.684-5.631-19.752L-10.138-10.138-19.752-5.631C-13.684-5.215-5.781-2.653 0 0" fill="#231f20"/>
</g>
<path transform="matrix(.4092,0,0,-.4092,30.327382,51.583738)" stroke-width="3" stroke-linecap="butt" stroke-miterlimit="4" stroke-linejoin="miter" fill="none" stroke="#231f20" d="M0 0H52.001"/>
<path transform="matrix(.4092,0,0,-.4092,11.231449,51.583738)" stroke-width="3" stroke-linecap="butt" stroke-miterlimit="4" stroke-linejoin="miter" fill="none" stroke="#231f20" d="M0 0H46.667"/>
<g clip-path="url(#clip_5)">
<path transform="matrix(.4092,0,0,-.4092,35.513544,51.583738)" d="M0 0C-5.964-2.213-13.363-5.988-17.948-9.986L-14.337 0-17.948 9.984C-13.363 5.988-5.964 2.211 0 0" fill="#231f20"/>
</g>
<path transform="matrix(.4092,0,0,-.4092,58.709657,15.574543)" stroke-width="3" stroke-linecap="butt" stroke-miterlimit="4" stroke-linejoin="miter" fill="none" stroke="#231f20" d="M0 0 45.034 26"/>
<path transform="matrix(.4092,0,0,-.4092,42.172006,25.122612)" stroke-width="3" stroke-linecap="butt" stroke-miterlimit="4" stroke-linejoin="miter" fill="none" stroke="#231f20" d="M0 0 40.415 23.333"/>
<g clip-path="url(#clip_6)">
<path transform="matrix(.4092,0,0,-.4092,63.200876,12.981483)" d="M0 0C-4.059-4.898-8.578-11.868-10.551-17.622L-12.416-7.168-20.536-.327C-14.566-1.496-6.271-1.066 0 0" fill="#231f20"/>
</g>
<path transform="matrix(.4092,0,0,-.4092,95.864528,12.136486)" stroke-width="3" stroke-linecap="butt" stroke-miterlimit="4" stroke-linejoin="miter" fill="none" stroke="#231f20" d="M0 0 48.865-17.785"/>
<path transform="matrix(.4092,0,0,-.4092,77.92029,5.6052858)" stroke-width="3" stroke-linecap="butt" stroke-miterlimit="4" stroke-linejoin="miter" fill="none" stroke="#231f20" d="M0 0 43.852-15.961"/>
<g clip-path="url(#clip_7)">
<path transform="matrix(.4092,0,0,-.4092,100.737979,13.910164)" d="M0 0C-6.361-.04-14.605-1.057-20.281-3.245L-13.472 4.903-13.451 15.522C-10.509 10.197-4.848 4.118 0 0" fill="#231f20"/>
</g>
<path transform="matrix(.4092,0,0,-.4092,135.35634,20.075543)" stroke-width="3" stroke-linecap="butt" stroke-miterlimit="4" stroke-linejoin="miter" fill="none" stroke="#231f20" d="M0 0H52.002"/>
<path transform="matrix(.4092,0,0,-.4092,116.26061,20.075543)" stroke-width="3" stroke-linecap="butt" stroke-miterlimit="4" stroke-linejoin="miter" fill="none" stroke="#231f20" d="M0 0H46.666"/>
<g clip-path="url(#clip_8)">
<path transform="matrix(.4092,0,0,-.4092,140.54245,20.075543)" d="M0 0C-5.963-2.213-13.362-5.988-17.947-9.985L-14.336 0-17.947 9.985C-13.362 5.988-5.963 2.212 0 0" fill="#231f20"/>
</g>
<path transform="matrix(.4092,0,0,-.4092,174.70546,26.794972)" stroke-width="3" stroke-linecap="butt" stroke-miterlimit="4" stroke-linejoin="miter" fill="none" stroke="#231f20" d="M0 0 48.865-17.786"/>
<path transform="matrix(.4092,0,0,-.4092,156.76102,20.263733)" stroke-width="3" stroke-linecap="butt" stroke-miterlimit="4" stroke-linejoin="miter" fill="none" stroke="#231f20" d="M0 0 43.853-15.961"/>
<g clip-path="url(#clip_9)">
<path transform="matrix(.4092,0,0,-.4092,179.5787,28.568814)" d="M0 0C-6.36-.04-14.604-1.057-20.28-3.245L-13.472 4.903-13.449 15.521C-10.509 10.198-4.847 4.118 0 0" fill="#231f20"/>
</g>
<path transform="matrix(.4092,0,0,-.4092,25.672364,38.645978)" stroke-width="3" stroke-linecap="butt" stroke-miterlimit="4" stroke-linejoin="miter" fill="none" stroke="#231f20" d="M0 0 39.835 33.426"/>
<path transform="matrix(.4092,0,0,-.4092,11.044037,50.92038)" stroke-width="3" stroke-linecap="butt" stroke-miterlimit="4" stroke-linejoin="miter" fill="none" stroke="#231f20" d="M0 0 35.749 29.996"/>
<g clip-path="url(#clip_10)">
<path transform="matrix(.4092,0,0,-.4092,29.645287,35.31202)" d="M0 0C-3.146-5.528-6.388-13.177-7.331-19.187L-10.983-9.216-20.168-3.888C-14.086-4.003-5.991-2.14 0 0" fill="#231f20"/>
<path transform="matrix(.4092,0,0,-.4092,131.42458,47.559255)" d="M0 0C-2.45 2.364-6.375 2.271-8.768-.205-11.162-2.686-11.117-6.611-8.668-8.977-6.222-11.34-2.296-11.249 .101-8.77 2.493-6.291 2.447-2.363 0 0" fill="#f9cd83"/>
<path transform="matrix(.4092,0,0,-.4092,131.42458,47.559255)" stroke-width="2" stroke-linecap="butt" stroke-miterlimit="4" stroke-linejoin="miter" fill="none" stroke="#231f20" d="M0 0C-2.45 2.364-6.375 2.271-8.768-.205-11.162-2.686-11.117-6.611-8.668-8.977-6.222-11.34-2.296-11.249 .101-8.77 2.493-6.291 2.447-2.363 0 0Z"/>
<path transform="matrix(.4092,0,0,-.4092,12.817714,49.08377)" d="M0 0C-2.449 2.365-6.375 2.273-8.768-.205-11.162-2.686-11.118-6.611-8.669-8.977-6.221-11.34-2.294-11.248 .1-8.769 2.493-6.29 2.447-2.363 0 0" fill="#ec2c2e"/>
<path transform="matrix(.4092,0,0,-.4092,12.817714,49.08377)" stroke-width="2" stroke-linecap="butt" stroke-miterlimit="4" stroke-linejoin="miter" fill="none" stroke="#231f20" d="M0 0C-2.449 2.365-6.375 2.273-8.768-.205-11.162-2.686-11.118-6.611-8.669-8.977-6.221-11.34-2.294-11.248 .1-8.769 2.493-6.29 2.447-2.363 0 0Z"/>
<path transform="matrix(.4092,0,0,-.4092,78.91093,3.098732)" d="M0 0C-2.449 2.363-6.374 2.271-8.767-.207-11.162-2.688-11.117-6.613-8.667-8.979-6.221-11.342-2.294-11.25 .101-8.77 2.493-6.291 2.448-2.365 0 0" fill="#f9cd83"/>
<path transform="matrix(.4092,0,0,-.4092,78.91093,3.098732)" stroke-width="2" stroke-linecap="butt" stroke-miterlimit="4" stroke-linejoin="miter" fill="none" stroke="#231f20" d="M0 0C-2.449 2.363-6.374 2.271-8.767-.207-11.162-2.688-11.117-6.613-8.667-8.979-6.221-11.342-2.294-11.25 .101-8.77 2.493-6.291 2.448-2.365 0 0Z"/>
<path transform="matrix(.4092,0,0,-.4092,43.74648,23.131363)" d="M0 0C-2.448 2.364-6.374 2.272-8.768-.206-11.162-2.685-11.118-6.612-8.669-8.978-6.222-11.341-2.294-11.249 .1-8.769 2.493-6.29 2.448-2.364 0 0" fill="#f9cd83"/>
<path transform="matrix(.4092,0,0,-.4092,43.74648,23.131363)" stroke-width="2" stroke-linecap="butt" stroke-miterlimit="4" stroke-linejoin="miter" fill="none" stroke="#231f20" d="M0 0C-2.448 2.364-6.374 2.272-8.768-.206-11.162-2.685-11.118-6.612-8.669-8.978-6.222-11.341-2.294-11.249 .1-8.769 2.493-6.29 2.448-2.364 0 0Z"/>
<path transform="matrix(.4092,0,0,-.4092,158.53485,18.427163)" d="M0 0C-2.45 2.365-6.375 2.273-8.77-.206-11.163-2.685-11.118-6.612-8.67-8.977-6.223-11.341-2.296-11.248 .098-8.77 2.492-6.29 2.447-2.363 0 0" fill="#00b050"/>
<path transform="matrix(.4092,0,0,-.4092,158.53485,18.427163)" stroke-width="2" stroke-linecap="butt" stroke-miterlimit="4" stroke-linejoin="miter" fill="none" stroke="#231f20" d="M0 0C-2.45 2.365-6.375 2.273-8.77-.206-11.163-2.685-11.118-6.612-8.67-8.977-6.223-11.341-2.296-11.248 .098-8.77 2.492-6.29 2.447-2.363 0 0Z"/>
<path transform="matrix(.4092,0,0,-.4092,119.26247,18.648335)" d="M0 0C-2.449 2.365-6.375 2.272-8.768-.206-11.163-2.686-11.117-6.612-8.669-8.977-6.221-11.34-2.295-11.25 .1-8.77 2.493-6.291 2.446-2.363 0 0" fill="#f9cd83"/>
<path transform="matrix(.4092,0,0,-.4092,119.26247,18.648335)" stroke-width="2" stroke-linecap="butt" stroke-miterlimit="4" stroke-linejoin="miter" fill="none" stroke="#231f20" d="M0 0C-2.449 2.365-6.375 2.272-8.768-.206-11.163-2.686-11.117-6.612-8.669-8.977-6.221-11.34-2.295-11.25 .1-8.77 2.493-6.291 2.446-2.363 0 0Z"/>
<path transform="matrix(.4092,0,0,-.4092,196.47458,32.236227)" d="M0 0C-2.448 2.363-6.374 2.272-8.768-.207-11.161-2.686-11.116-6.611-8.669-8.977-6.22-11.34-2.294-11.25 .101-8.77 2.493-6.292 2.448-2.364 0 0" fill="#f083b4"/>
<path transform="matrix(.4092,0,0,-.4092,196.47458,32.236227)" stroke-width="2" stroke-linecap="butt" stroke-miterlimit="4" stroke-linejoin="miter" fill="none" stroke="#231f20" d="M0 0C-2.448 2.363-6.374 2.272-8.768-.207-11.161-2.686-11.116-6.611-8.669-8.977-6.22-11.34-2.294-11.25 .101-8.77 2.493-6.292 2.448-2.364 0 0Z"/>
<path transform="matrix(.4092,0,0,-.4092,94.574,61.404947)" d="M0 0C-2.449 2.365-6.375 2.273-8.768-.205-11.163-2.685-11.12-6.611-8.67-8.977-6.223-11.34-2.297-11.248 .1-8.768 2.492-6.289 2.447-2.363 0 0" fill="#f9cd83"/>
<path transform="matrix(.4092,0,0,-.4092,94.574,61.404947)" stroke-width="2" stroke-linecap="butt" stroke-miterlimit="4" stroke-linejoin="miter" fill="none" stroke="#231f20" d="M0 0C-2.449 2.365-6.375 2.273-8.768-.205-11.163-2.685-11.12-6.611-8.67-8.977-6.223-11.34-2.297-11.248 .1-8.768 2.492-6.289 2.447-2.363 0 0Z"/>
<path transform="matrix(.4092,0,0,-.4092,54.613077,50.52395)" d="M0 0C-2.45 2.363-6.375 2.271-8.768-.205-11.162-2.687-11.117-6.612-8.668-8.978-6.222-11.341-2.296-11.249 .101-8.771 2.493-6.292 2.447-2.364 0 0" fill="#f9cd83"/>
<path transform="matrix(.4092,0,0,-.4092,54.613077,50.52395)" stroke-width="2" stroke-linecap="butt" stroke-miterlimit="4" stroke-linejoin="miter" fill="none" stroke="#231f20" d="M0 0C-2.45 2.363-6.375 2.271-8.768-.205-11.162-2.687-11.117-6.612-8.668-8.978-6.222-11.341-2.296-11.249 .101-8.771 2.493-6.292 2.447-2.364 0 0Z"/>
</g>
</g>
</g>
<text xml:space="preserve" transform="matrix(1 0 -0 1 0 72.18)" font-size="9.9626" font-family="Computer Modern" font-style="italic"><tspan y="-26.81" x="9.508">r</tspan><tspan y="-51.557" x="71.376">Q</tspan><tspan y="-6.1870005" x="122.933">P</tspan></text>
<text xml:space="preserve" transform="matrix(1 0 -0 1 0 72.18)" font-size="9.9626" font-family="Computer Modern"><tspan y="-6.1870005" x="130.71379">(</tspan></text>
<text xml:space="preserve" transform="matrix(1 0 -0 1 0 72.18)" font-size="9.9626" font-family="Computer Modern" font-style="italic"><tspan y="-6.1870005" x="134.58925">u</tspan></text>
<text xml:space="preserve" transform="matrix(1 0 -0 1 0 72.18)" font-size="6.9738" font-family="Computer Modern" font-style="italic"><tspan y="-4.6920006" x="140.29">k</tspan></text>
<text xml:space="preserve" transform="matrix(1 0 -0 1 0 72.18)" font-size="9.9626" font-family="Computer Modern"><tspan y="-6.1870005" x="145.19199">)</tspan></text>
<text xml:space="preserve" transform="matrix(1 0 -0 1 0 72.18)" font-size="9.9626" font-family="Computer Modern" font-style="italic"><tspan y="-57.744" x="153.86699">u</tspan></text>
<text xml:space="preserve" transform="matrix(1 0 -0 1 0 72.18)" font-size="6.9738" font-family="Computer Modern" font-style="italic"><tspan y="-56.249" x="159.56999">k</tspan></text>
<text xml:space="preserve" transform="matrix(1 0 -0 1 0 72.18)" font-size="9.9626" font-family="Computer Modern" font-style="italic"><tspan y="-51.557" x="174.48999">P</tspan><tspan y="-43.308" x="195.11199">x</tspan></text>
</svg>
