<svg xmlns="http://www.w3.org/2000/svg" xmlns:xlink="http://www.w3.org/1999/xlink" xmlns:inkscape="http://www.inkscape.org/namespaces/inkscape" version="1.1" width="291.32" height="100.8" viewBox="0 0 291.32 100.8">
<defs>
<clipPath id="clip_1">
<path transform="matrix(.57144,0,0,-.57144,3.321,100.8)" d="M0 0H504V180H0Z"/>
</clipPath>
<clipPath id="clip_2">
<path transform="matrix(.57144,0,0,-.57144,3.321,100.8)" d="M0 180H504V0H0Z"/>
</clipPath>
</defs>
<g clip-path="url(#clip_1)">
<g inkscape:groupmode="layer" inkscape:label="Layer 1">
<path transform="matrix(.57144,0,0,-.57144,32.101976,41.362989)" stroke-width="4" stroke-linecap="butt" stroke-miterlimit="4" stroke-linejoin="miter" fill="none" stroke="#231f20" d="M0 0 59.017 45.356"/>
<path transform="matrix(.57144,0,0,-.57144,65.82642,15.444756)" stroke-width="4" stroke-linecap="butt" stroke-miterlimit="4" stroke-linejoin="miter" fill="none" stroke="#231f20" d="M0 0 26.229-117.937"/>
<path transform="matrix(.57144,0,0,-.57144,80.815,82.83873)" stroke-width="4" stroke-linecap="butt" stroke-miterlimit="4" stroke-linejoin="miter" fill="none" stroke="#231f20" d="M0 0 88.525 32.787"/>
<path transform="matrix(.57144,0,0,-.57144,191.0435,71.90937)" stroke-width="4" stroke-linecap="butt" stroke-miterlimit="4" stroke-linejoin="miter" fill="none" stroke="#231f20" d="M0 0-102.732 13.114"/>
<path transform="matrix(.57144,0,0,-.57144,190.7812,72.56841)" stroke-width="4" stroke-linecap="butt" stroke-miterlimit="4" stroke-linejoin="miter" fill="none" stroke="#231f20" d="M0 0-103.912 105.525"/>
<path transform="matrix(.57144,0,0,-.57144,241.5389,71.44565)" stroke-width="4" stroke-linecap="butt" stroke-miterlimit="4" stroke-linejoin="miter" fill="none" stroke="#231f20" d="M0 0-87.271-1.358"/>
<path transform="matrix(.57144,0,0,-.57144,191.66854,72.22189)" stroke-width="4" stroke-linecap="butt" stroke-miterlimit="4" stroke-linejoin="miter" fill="none" stroke="#231f20" d="M0 0 15.3 81.421"/>
<path transform="matrix(.57144,0,0,-.57144,131.40167,64.10281)" stroke-width="4" stroke-linecap="butt" stroke-miterlimit="4" stroke-linejoin="miter" fill="none" stroke="#231f20" d="M0 0 47.541-46.995"/>
<path transform="matrix(.57144,0,0,-.57144,158.5685,90.95775)" stroke-width="4" stroke-linecap="butt" stroke-miterlimit="4" stroke-linejoin="miter" fill="none" stroke="#231f20" d="M0 0-47.541 137.706"/>
<path transform="matrix(.57144,0,0,-.57144,32.101976,41.362989)" stroke-width="4" stroke-linecap="butt" stroke-miterlimit="4" stroke-linejoin="miter" fill="none" stroke="#231f20" d="M0 0 254.894 2.281"/>
<path transform="matrix(.57144,0,0,-.57144,98.61421,31.627884)" stroke-width="4" stroke-linecap="butt" stroke-miterlimit="4" stroke-linejoin="miter" fill="none" stroke="#231f20" d="M0 0 57.377-56.83"/>
<path transform="matrix(.57144,0,0,-.57144,98.61421,31.627884)" stroke-width="4" stroke-linecap="butt" stroke-miterlimit="4" stroke-linejoin="miter" fill="none" stroke="#231f20" d="M0 0 138.251-13.114"/>
<path transform="matrix(.57144,0,0,-.57144,240.6935,71.2849)" stroke-width="4" stroke-linecap="butt" stroke-miterlimit="4" stroke-linejoin="miter" fill="none" stroke="#231f20" d="M0 0-9.202 57.317"/>
<path transform="matrix(.57144,0,0,-.57144,235.43502,38.53173)" stroke-width="4" stroke-linecap="butt" stroke-miterlimit="4" stroke-linejoin="miter" fill="none" stroke="#231f20" d="M0 0-77.684-58.41"/>
<path transform="matrix(.57144,0,0,-.57144,190.7812,72.56841)" stroke-width="4" stroke-linecap="butt" stroke-miterlimit="4" stroke-linejoin="miter" fill="none" stroke="#231f20" d="M0 0-56.371-32.181"/>
<path transform="matrix(.57144,0,0,-.57144,158.5685,90.95775)" stroke-width="4" stroke-linecap="butt" stroke-miterlimit="4" stroke-linejoin="miter" fill="none" stroke="#231f20" d="M0 0 33.333 90.711"/>
<path transform="matrix(.57144,0,0,-.57144,177.61632,39.121858)" stroke-width="4" stroke-linecap="butt" stroke-miterlimit="4" stroke-linejoin="miter" fill="none" stroke="#231f20" d="M0 0 42.077 25.137"/>
<g clip-path="url(#clip_2)">
<path transform="matrix(.57144,0,0,-.57144,70.28354,15.444756)" d="M0 0C0 3.977-3.492 7.2-7.799 7.2-12.107 7.2-15.6 3.977-15.6 0-15.6-3.976-12.107-7.2-7.799-7.2-3.492-7.2 0-3.976 0 0" fill="#f9cd83"/>
<path transform="matrix(.57144,0,0,-.57144,70.28354,15.444756)" stroke-width="4" stroke-linecap="butt" stroke-miterlimit="4" stroke-linejoin="miter" fill="none" stroke="#231f20" d="M0 0C0 3.977-3.492 7.2-7.799 7.2-12.107 7.2-15.6 3.977-15.6 0-15.6-3.976-12.107-7.2-7.799-7.2-3.492-7.2 0-3.976 0 0Z"/>
<path transform="matrix(.57144,0,0,-.57144,163.02562,90.95775)" d="M0 0C0 3.977-3.492 7.2-7.799 7.2-12.107 7.2-15.6 3.977-15.6 0-15.6-3.976-12.107-7.2-7.799-7.2-3.492-7.2 0-3.976 0 0" fill="#f9cd83"/>
<path transform="matrix(.57144,0,0,-.57144,163.02562,90.95775)" stroke-width="4" stroke-linecap="butt" stroke-miterlimit="4" stroke-linejoin="miter" fill="none" stroke="#231f20" d="M0 0C0 3.977-3.492 7.2-7.799 7.2-12.107 7.2-15.6 3.977-15.6 0-15.6-3.976-12.107-7.2-7.799-7.2-3.492-7.2 0-3.976 0 0Z"/>
<path transform="matrix(.57144,0,0,-.57144,103.071338,31.627884)" d="M0 0C0 3.977-3.492 7.2-7.799 7.2-12.107 7.2-15.6 3.977-15.6 0-15.6-3.976-12.107-7.2-7.799-7.2-3.492-7.2 0-3.976 0 0" fill="#f9cd83"/>
<path transform="matrix(.57144,0,0,-.57144,103.071338,31.627884)" stroke-width="4" stroke-linecap="butt" stroke-miterlimit="4" stroke-linejoin="miter" fill="none" stroke="#231f20" d="M0 0C0 3.977-3.492 7.2-7.799 7.2-12.107 7.2-15.6 3.977-15.6 0-15.6-3.976-12.107-7.2-7.799-7.2-3.492-7.2 0-3.976 0 0Z"/>
<path transform="matrix(.57144,0,0,-.57144,135.85878,12.267265)" d="M0 0C0 3.977-3.492 7.2-7.799 7.2-12.107 7.2-15.6 3.977-15.6 0-15.6-3.976-12.107-7.2-7.799-7.2-3.492-7.2 0-3.976 0 0" fill="#f9cd83"/>
<path transform="matrix(.57144,0,0,-.57144,135.85878,12.267265)" stroke-width="4" stroke-linecap="butt" stroke-miterlimit="4" stroke-linejoin="miter" fill="none" stroke="#231f20" d="M0 0C0 3.977-3.492 7.2-7.799 7.2-12.107 7.2-15.6 3.977-15.6 0-15.6-3.976-12.107-7.2-7.799-7.2-3.492-7.2 0-3.976 0 0Z"/>
<path transform="matrix(.57144,0,0,-.57144,85.272129,82.83873)" d="M0 0C0 3.977-3.492 7.2-7.799 7.2-12.107 7.2-15.6 3.977-15.6 0-15.6-3.976-12.107-7.2-7.799-7.2-3.492-7.2 0-3.976 0 0" fill="#f9cd83"/>
<path transform="matrix(.57144,0,0,-.57144,85.272129,82.83873)" stroke-width="4" stroke-linecap="butt" stroke-miterlimit="4" stroke-linejoin="miter" fill="none" stroke="#231f20" d="M0 0C0 3.977-3.492 7.2-7.799 7.2-12.107 7.2-15.6 3.977-15.6 0-15.6-3.976-12.107-7.2-7.799-7.2-3.492-7.2 0-3.976 0 0Z"/>
<path transform="matrix(.57144,0,0,-.57144,36.559095,41.362989)" d="M0 0C0 3.977-3.492 7.2-7.799 7.2-12.107 7.2-15.6 3.977-15.6 0-15.6-3.976-12.107-7.2-7.799-7.2-3.492-7.2 0-3.976 0 0" fill="#f9cd83"/>
<path transform="matrix(.57144,0,0,-.57144,36.559095,41.362989)" stroke-width="4" stroke-linecap="butt" stroke-miterlimit="4" stroke-linejoin="miter" fill="none" stroke="#231f20" d="M0 0C0 3.977-3.492 7.2-7.799 7.2-12.107 7.2-15.6 3.977-15.6 0-15.6-3.976-12.107-7.2-7.799-7.2-3.492-7.2 0-3.976 0 0Z"/>
<path transform="matrix(.57144,0,0,-.57144,205.40206,24.918717)" d="M0 0C0 3.977-3.492 7.2-7.799 7.2-12.107 7.2-15.6 3.977-15.6 0-15.6-3.976-12.107-7.2-7.799-7.2-3.492-7.2 0-3.976 0 0" fill="#f9cd83"/>
<path transform="matrix(.57144,0,0,-.57144,205.40206,24.918717)" stroke-width="4" stroke-linecap="butt" stroke-miterlimit="4" stroke-linejoin="miter" fill="none" stroke="#231f20" d="M0 0C0 3.977-3.492 7.2-7.799 7.2-12.107 7.2-15.6 3.977-15.6 0-15.6-3.976-12.107-7.2-7.799-7.2-3.492-7.2 0-3.976 0 0Z"/>
<path transform="matrix(.57144,0,0,-.57144,245.99608,71.44673)" d="M0 0C0 3.977-3.492 7.201-7.799 7.201-12.107 7.201-15.6 3.977-15.6 0-15.6-3.975-12.107-7.199-7.799-7.199-3.492-7.199 0-3.975 0 0" fill="#f9cd83"/>
<path transform="matrix(.57144,0,0,-.57144,245.99608,71.44673)" stroke-width="4" stroke-linecap="butt" stroke-miterlimit="4" stroke-linejoin="miter" fill="none" stroke="#231f20" d="M0 0C0 3.977-3.492 7.201-7.799 7.201-12.107 7.201-15.6 3.977-15.6 0-15.6-3.975-12.107-7.199-7.799-7.199-3.492-7.199 0-3.975 0 0Z"/>
<path transform="matrix(.57144,0,0,-.57144,135.8585,64.103389)" d="M0 0C0 3.977-3.492 7.201-7.799 7.201-12.107 7.201-15.6 3.977-15.6 0-15.6-3.975-12.107-7.199-7.799-7.199-3.492-7.199 0-3.975 0 0" fill="#f9cd83"/>
<path transform="matrix(.57144,0,0,-.57144,135.8585,64.103389)" stroke-width="4" stroke-linecap="butt" stroke-miterlimit="4" stroke-linejoin="miter" fill="none" stroke="#231f20" d="M0 0C0 3.977-3.492 7.201-7.799 7.201-12.107 7.201-15.6 3.977-15.6 0-15.6-3.975-12.107-7.199-7.799-7.199-3.492-7.199 0-3.975 0 0Z"/>
<path transform="matrix(.57144,0,0,-.57144,239.89156,38.53173)" d="M0 0C0 3.977-3.492 7.2-7.799 7.2-12.107 7.2-15.6 3.977-15.6 0-15.6-3.976-12.107-7.2-7.799-7.2-3.492-7.2 0-3.976 0 0" fill="#f9cd83"/>
<path transform="matrix(.57144,0,0,-.57144,239.89156,38.53173)" stroke-width="4" stroke-linecap="butt" stroke-miterlimit="4" stroke-linejoin="miter" fill="none" stroke="#231f20" d="M0 0C0 3.977-3.492 7.2-7.799 7.2-12.107 7.2-15.6 3.977-15.6 0-15.6-3.976-12.107-7.2-7.799-7.2-3.492-7.2 0-3.976 0 0Z"/>
<path transform="matrix(.57144,0,0,-.57144,195.23831,72.56841)" d="M0 0C0 3.977-3.492 7.199-7.799 7.199-12.107 7.199-15.6 3.977-15.6 0-15.6-3.977-12.107-7.201-7.799-7.201-3.492-7.201 0-3.977 0 0" fill="#f9cd83"/>
<path transform="matrix(.57144,0,0,-.57144,195.23831,72.56841)" stroke-width="4" stroke-linecap="butt" stroke-miterlimit="4" stroke-linejoin="miter" fill="none" stroke="#231f20" d="M0 0C0 3.977-3.492 7.199-7.799 7.199-12.107 7.199-15.6 3.977-15.6 0-15.6-3.977-12.107-7.201-7.799-7.201-3.492-7.201 0-3.977 0 0Z"/>
<path transform="matrix(.57144,0,0,-.57144,182.21578,40.05913)" d="M0 0C0 3.977-3.492 7.2-7.799 7.2-12.107 7.2-15.6 3.977-15.6 0-15.6-3.977-12.107-7.201-7.799-7.201-3.492-7.201 0-3.977 0 0" fill="#f9cd83"/>
<path transform="matrix(.57144,0,0,-.57144,182.21578,40.05913)" stroke-width="4" stroke-linecap="butt" stroke-miterlimit="4" stroke-linejoin="miter" fill="none" stroke="#231f20" d="M0 0C0 3.977-3.492 7.2-7.799 7.2-12.107 7.2-15.6 3.977-15.6 0-15.6-3.977-12.107-7.201-7.799-7.201-3.492-7.201 0-3.977 0 0Z"/>
</g>
</g>
</g>
<text xml:space="preserve" transform="matrix(1 0 -0 1 0 100.8)" font-size="9.9626" font-family="Computer Modern"><tspan y="-56.16" x="20.601">1</tspan><tspan y="-14.400002" x="188.504">2</tspan><tspan y="-43.2" x="129.465">3</tspan><tspan y="-67.68" x="176.12">4</tspan><tspan y="-5.760002" x="78.201">5</tspan><tspan y="-92.16" x="63.800996">6</tspan><tspan y="-25.920006" x="248.12">7</tspan><tspan y="-75.744" x="96.345">8</tspan><tspan y="-2.880005" x="164.6">9</tspan><tspan y="-86.4" x="114.201007 119.182308">10</tspan><tspan y="-74.880008" x="207.8 212.7813">11</tspan><tspan y="-60.480005" x="242.36 247.3413">12</tspan></text>
</svg>
