<svg xmlns="http://www.w3.org/2000/svg" xmlns:xlink="http://www.w3.org/1999/xlink" xmlns:inkscape="http://www.inkscape.org/namespaces/inkscape" version="1.1" width="160" height="156" viewBox="0 0 160 156">
<defs>
<path id="font_1_42" d="M.6649933 .23271179C.6649933 .24272156 .6649933 .24972534 .6519928 .24972534 .6409912 .24972534 .6409912 .24372864 .6399994 .23371887 .6319885 .09059143 .5249939 .008529663 .41600038 .008529663 .35499574 .008529663 .15899658 .042556764 .15899658 .34080506 .15899658 .64004519 .35398866 .67407229 .4149933 .67407229 .5239868 .67407229 .61299136 .58299258 .6329956 .4368744 .6349945 .42286683 .6349945 .41986085 .6489868 .41986085 .6649933 .41986085 .6649933 .42286683 .6649933 .44387818V.68107607C.6649933 .69807437 .6649933 .7050781 .6539917 .7050781 .6499939 .7050781 .6459961 .7050781 .6380005 .69306948L.58799746 .61901858C.5509949 .6550598 .5 .7050781 .4039917 .7050781 .21699524 .7050781 .055999757 .5459595 .055999757 .34179688 .055999757 .1346283 .21798706-.022460938 .4039917-.022460938 .5669861-.022460938 .6649933 .116622928 .6649933 .23271179Z"/>
<path id="font_1_58" d="M.7350006 .24145508V.27246095L.61299136 .26945497C.57299807 .26945497 .48799134 .26945497 .45199586 .27246095V.24145508H.48399354C.57398989 .24145508 .57699587 .23045349 .57699587 .19346619V.12948609C.57699587 .017532349 .44999696 .008529663 .42199708 .008529663 .35699464 .008529663 .15899658 .043518068 .15899658 .34155274 .15899658 .6410217 .35598756 .67407229 .41600038 .67407229 .522995 .67407229 .6139984 .5839386 .6339874 .43670655 .6359863 .42268373 .6359863 .41967774 .6499939 .41967774 .66600039 .41967774 .66600039 .42268373 .66600039 .44371034V.68107607C.66600039 .69807437 .66600039 .7050781 .6549988 .7050781 .651001 .7050781 .6469879 .7050781 .6389923 .69306948L.58898928 .61898806C.5569916 .6510315 .5029907 .7050781 .4039917 .7050781 .21798706 .7050781 .055999757 .546875 .055999757 .34155274 .055999757 .13648987 .21598816-.022460938 .4059906-.022460938 .47898866-.022460938 .5589905 .0035247803 .59298709 .06251526 .60598757 .040527345 .6459961 .0005340576 .6569977 .0005340576 .66600039 .0005340576 .66600039 .008529663 .66600039 .023529053V.19746399C.66600039 .2364502 .66999819 .24145508 .7350006 .24145508Z"/>
<path id="font_1_34" d="M.651001 .18289185C.651001 .26983644 .56900027 .34480287 .45799256 .35679627 .5549927 .3757782 .6239929 .43974305 .6239929 .51368716 .6239929 .6006317 .5319977 .6826172 .4019928 .6826172H.035995485V.6516113H.05999756C.13699341 .6516113 .13899231 .64060977 .13899231 .6046295V.07795715C.13899231 .041992189 .13699341 .0309906 .05999756 .0309906H.035995485V0H.42799378C.5609894-.0002593994 .651001 .08874512 .651001 .18273926V.18289185M.5269928 .5136719C.5269928 .44970704 .47799684 .36573792 .36698915 .36573792H.22200012V.6116333C.22200012 .64460757 .22399903 .6516113 .2709961 .6516113H.394989C.49198915 .65174868 .5269928 .56674197 .5269928 .51374819V.5136719M.5509949 .18386841C.5509949 .1129303 .49899293 .0309906 .3959961 .0309906H.2709961C.22399903 .0309906 .22200012 .037994386 .22200012 .07095337V.34375H.4099884C.5089874 .34399415 .5509949 .25099183 .5509949 .18399048V.18386841Z"/>
<path id="font_1_95" d="M.7319946 .08753967C.7319946 .09353638 .7319946 .104537967 .71899417 .104537967 .70799258 .104537967 .70799258 .09555054 .70700076 .08854675 .70098879 .017532349 .66600039-.00047302247 .6409912-.00047302247 .59199526-.00047302247 .58399966 .05053711 .56999209 .14355469L.5569916 .22355652C.5389862 .28756715 .48999024 .3205719 .43499757 .3395691 .5319977 .36357118 .6100006 .4245758 .6100006 .502594 .6100006 .5986023 .49598695 .6826172 .34899903 .6826172H.034988405V.6516113H.05899048C.13598633 .6516113 .13798523 .64060977 .13798523 .604599V.077545169C.13798523 .04197693 .13598633 .0309906 .05899048 .0309906H.034988405V0C.070999149 .0029907227 .14199829 .0029907227 .18099976 .0029907227 .21998596 .0029907227 .29100038 .0029907227 .32699586 0V.0309906H.30299378C.22599793 .0309906 .22399903 .04197693 .22399903 .077926639V.3305359H.33898927C.35499574 .3305359 .39698792 .3305359 .43199159 .29658509 .46998597 .26063539 .46998597 .22969055 .46998597 .16279602 .46998597 .09788513 .46998597 .05795288 .5109863 .019989014 .5519867-.016464234 .6069946-.022460938 .6369934-.022460938 .71499636-.022460938 .7319946 .059524537 .7319946 .087524417V.08753967M.5069885 .5025635C.5069885 .43354798 .48298646 .35253907 .33499146 .35253907H.22399903V.6116028C.22399903 .6345978 .22399903 .64660647 .24598694 .6496124 .2559967 .6516113 .2849884 .6516113 .30499269 .6516113 .394989 .6516113 .5069885 .6476135 .5069885 .5025635Z"/>
<path id="font_1_117" d="M.73799136 .6516113V.6826172C.70700076 .680603 .6669922 .6796112 .6399994 .6796112L.5249939 .6826172V.6516113C.56599429 .6516113 .58200076 .63261416 .58200076 .6126251 .58200076 .6016388 .57598879 .5886383 .57199099 .5826416L.40699769 .31481935 .22599793 .6096344C.21899414 .6196289 .21899414 .6216278 .21899414 .62661746 .21899414 .6476135 .24398804 .6516113 .2889862 .6516113V.6826172C.25299073 .6796112 .17999268 .6796112 .14099121 .6796112L.010986328 .6826172V.6516113H.0289917C.09700012 .6516113 .10499573 .64060977 .12098694 .614624L.33099366 .2728424V.07795715C.33099366 .041992189 .32899476 .0309906 .2519989 .0309906H.22799683V0C.2639923 .0029907227 .33499146 .0029907227 .37399293 .0029907227 .41299439 .0029907227 .48399354 .0029907227 .519989 0V.0309906H.49699403C.41999818 .0309906 .4169922 .040985109 .4169922 .079956058V.2728424L.6100006 .5866394C.6469879 .6476135 .70599368 .6516113 .73799136 .6516113Z"/>
<path id="font_1_80" d="M.72099307 .3387909C.72099307 .5429535 .56999209 .7050781 .3880005 .7050781 .20899964 .7050781 .055999757 .5449524 .055999757 .3387909 .055999757 .13363648 .20999146-.022460938 .3880005-.022460938 .56999209-.022460938 .72099307 .13664246 .72099307 .3387909M.6179962 .35281373C.6179962 .08760071 .48098756 .0035247803 .3889923 .0035247803 .29299928 .0035247803 .15899658 .09159851 .15899658 .35281373 .15899658 .6120148 .30499269 .68006899 .3880005 .68006899 .47499085 .68006899 .6179962 .6090088 .6179962 .35281373Z"/>
<path id="font_1_109" d="M.5349884 0V.0309906C.46499635 .0309906 .45700074 .037994386 .45700074 .08705139V.4423828L.30999757 .43066407V.3996582C.37998963 .3996582 .3880005 .39266969 .3880005 .34373475V.16601563C.3880005 .07910156 .33999635 .011245728 .2669983 .011245728 .18299866 .011245728 .1789856 .058135988 .1789856 .11009216V.4423828L.03199768 .43066407V.3996582C.10998535 .3996582 .10998535 .39666749 .10998535 .3078003V.15802002C.10998535 .080093387 .10998535-.0107421879 .2619934-.0107421879 .31799317-.0107421879 .3619995 .017242432 .3909912 .07910156V-.0107421879L.5349884 0Z"/>
<path id="font_1_35" d="M.5209961 .2163086C.5209961 .34335328 .4229889 .4423828 .30899049 .4423828 .23098755 .4423828 .18798828 .39537049 .17199707 .3773651V.69433596L.027999878 .68333438V.6523285C.09799194 .6523285 .10598755 .6453247 .10598755 .596344V.00024414063H.1309967L.16699219 .06227112C.18199158 .039260866 .22399903-.0107421879 .2979889-.0107421879 .4169922-.0107421879 .5209961 .08728027 .5209961 .2163086M.43798829 .21731568C.43798829 .18029785 .43598939 .120285037 .40699769 .07527161 .38598634 .044265748 .34799195 .011245728 .2939911 .011245728 .24899292 .011260986 .21299744 .03526306 .18899536 .072265628 .1749878 .09326172 .1749878 .09625244 .1749878 .11425781V.32034303C.1749878 .3393402 .1749878 .3403473 .18598938 .35635377 .22499085 .41236878 .27999879 .42037965 .3039856 .42037965 .34899903 .42037965 .3849945 .3943634 .40899659 .35635377 .43499757 .31533814 .43798829 .25831605 .43798829 .21730042V.21731568Z"/>
<path id="font_1_50" d="M.4149933 .11933899C.4149933 .12934876 .40699769 .13134766 .4019928 .13134766 .3929901 .13134766 .3909912 .12535095 .3889923 .11734009 .35398866 .014251709 .2639923 .014251709 .2539978 .014251709 .20399475 .014251709 .1639862 .044281007 .14099121 .08131409 .11099243 .12934876 .11099243 .19540406 .11099243 .23144531H.3899994C.4119873 .23144531 .4149933 .23144531 .4149933 .2524414 .4149933 .35131837 .36099244 .4482422 .23599243 .4482422 .11999512 .4482422 .027999878 .34532167 .027999878 .22042847 .027999878 .08631897 .1329956-.0107421879 .24798584-.0107421879 .36999513-.0107421879 .4149933 .10032654 .4149933 .11933899M.34899903 .2524414H.11199951C.117996219 .40126039 .20199585 .426239 .23599243 .426239 .33898927 .426239 .34899903 .2913971 .34899903 .2524414Z"/>
<path id="font_1_82" d="M.4189911 0V.0309906H.3869934C.29699708 .0309906 .2939911 .041992189 .2939911 .07902527V.64012148C.2939911 .6640167 .2939911 .6660156 .2709961 .6660156 .20899964 .60227969 .12098694 .60227969 .08898926 .60227969V.57128909C.10899353 .57128909 .16799927 .57128909 .21998596 .5972748V.07902527C.21998596 .042999269 .21699524 .0309906 .1269989 .0309906H.09498596V0C.12998963 .0029907227 .21699524 .0029907227 .25698854 .0029907227 .29699708 .0029907227 .38398744 .0029907227 .4189911 0Z"/>
<path id="font_1_107" d="M.44898988 .17396546H.42399598C.4189911 .14398194 .4119873 .099990848 .4019928 .084991458 .394989 .07699585 .32899476 .07699585 .30699159 .07699585H.1269989L.23298645 .17996216C.3889923 .31803895 .44898988 .37210084 .44898988 .47216798 .44898988 .5860901 .35899354 .6660156 .23699951 .6660156 .12399292 .6660156 .049987794 .57411196 .049987794 .48516847 .049987794 .4291687 .099990848 .4291687 .102996829 .4291687 .11999512 .4291687 .15499878 .44117738 .15499878 .48217774 .15499878 .5081787 .13699341 .5341797 .101989749 .5341797 .09399414 .5341797 .09199524 .5341797 .08898926 .5331726 .11199951 .59806826 .1659851 .63500979 .22399903 .63500979 .31498719 .63500979 .35798646 .5541382 .35798646 .47216798 .35798646 .39196778 .30799867 .31297303 .25299073 .25097657L.06098938 .036987306C.049987794 .025985718 .049987794 .023986817 .049987794 0H.42099L.44898988 .17396546Z"/>
<path id="font_1_106" d="M.45700074 .17037964C.45700074 .252594 .3939972 .33088685 .2899933 .35191346 .37199403 .37893678 .42999269 .4490509 .42999269 .52809146 .42999269 .6100464 .34199525 .6660156 .24598694 .6660156 .14498902 .6660156 .068984989 .60606387 .068984989 .53009036 .068984989 .49710084 .09098816 .47808839 .11999512 .47808839 .15098572 .47808839 .17098999 .50009158 .17098999 .5290985 .17098999 .57910159 .12399292 .57910159 .10899353 .57910159 .13999939 .62802127 .20599365 .64100649 .24198914 .64100649 .2829895 .64100649 .33799745 .6190338 .33799745 .5290985 .33799745 .51708987 .33599855 .45906068 .30999757 .4149933 .27999879 .36691285 .24598694 .36390687 .22099304 .36291505 .21299744 .36190797 .18899536 .35990907 .18199158 .35990907 .17399597 .35890199 .16699219 .35791017 .16699219 .3479004 .16699219 .33691407 .17399597 .33691407 .19099427 .33691407H.23498535C.31698609 .33691407 .35398866 .2686615 .35398866 .17037964 .35398866 .034469606 .2849884 .0055389406 .24099732 .0055389406 .19799805 .0055389406 .12298584 .022491456 .08799744 .08137512 .12298584 .07637024 .1539917 .09837341 .1539917 .1363678 .1539917 .17237854 .1269989 .19238281 .09799194 .19238281 .07398987 .19238281 .041992189 .17837525 .041992189 .1343689 .041992189 .043441774 .1349945-.022460938 .24398804-.022460938 .3659973-.022460938 .45700074 .06838989 .45700074 .17037964Z"/>
<path id="font_1_57" d="M.47099305 .16503906V.19602967H.37098695V.6507721C.37098695 .6707611 .37098695 .6767578 .35499574 .6767578 .34599305 .6767578 .34298707 .6767578 .33499146 .6647644L.027999878 .19602967V.16503906H.2939911V.07800293C.2939911 .041992189 .2919922 .0309906 .21798706 .0309906H.19699097V0C.23799134 .0029907227 .2899933 .0029907227 .33198548 .0029907227 .37399293 .0029907227 .4269867 .0029907227 .46798707 0V.0309906H.44699098C.37298585 .0309906 .37098695 .041992189 .37098695 .07800293V.16503906H.47099305M.2999878 .19602967H.055999757L.2999878 .56881716V.19602967Z"/>
<path id="font_1_56" d="M.44898988 .20091248C.44898988 .31991578 .36698915 .41992188 .25898744 .41992188 .21099854 .41992188 .16799927 .4039154 .13198853 .36891175V.5641022C.1519928 .55778506 .18499756 .55078127 .21699524 .55078127 .33999635 .55078127 .4099884 .6418457 .4099884 .65493777 .4099884 .6609802 .40699769 .6660156 .3999939 .6660156 .3999939 .66607668 .39698792 .66607668 .3919983 .66308596 .37199403 .65408328 .32299806 .63378909 .2559967 .63378909 .21598816 .63409426 .16999817 .641098 .12298584 .6621094 .114990238 .6651001 .11099243 .6651001 .11099243 .6651001 .100997928 .66508486 .100997928 .657074 .100997928 .64108279V.3447113C.100997928 .3266449 .100997928 .31861878 .114990238 .31861878 .12199402 .31861878 .12399292 .32164 .12799073 .32765199 .13899231 .34371949 .17599488 .3979187 .25698854 .3979187 .30899049 .3979187 .33399964 .3517456 .34199525 .3336792 .35798646 .2965393 .3600006 .2574005 .3600006 .20721436 .3600006 .17218018 .3600006 .112197879 .33599855 .07032776 .31199647 .031448366 .2749939 .0055389406 .22898865 .0055389406 .1559906 .0055389406 .09899902 .05836487 .08198547 .1171875 .084991458 .11685181 .08799744 .115859989 .09899902 .115859989 .13198853 .115859989 .14898682 .14085388 .14898682 .16485596 .14898682 .18885803 .13198853 .21386719 .09899902 .21386719 .084991458 .21386719 .049987794 .2068634 .049987794 .16085816 .049987794 .07432556 .11898804-.022460938 .23098755-.022460938 .34700013-.022460938 .44898988 .07331848 .44898988 .20019531V.20091248Z"/>
<path id="font_1_101" d="M.45700074 .2036438C.45700074 .33070375 .36799623 .4267578 .25698854 .4267578 .18899536 .4267578 .1519928 .37573243 .13198853 .327713V.35173036C.13198853 .6047821 .2559967 .64100649 .30699159 .64100649 .33099366 .64100649 .37298585 .634964 .394989 .6007538 .37998963 .6007538 .33999635 .6007538 .33999635 .5557556 .33999635 .524765 .3639984 .5097656 .38598634 .5097656 .4019928 .5097656 .43199159 .51875308 .43199159 .5577545 .43199159 .6178589 .3880005 .6660156 .30499269 .6660156 .1769867 .6660156 .041992189 .5367584 .041992189 .31570436 .041992189 .048553468 .1579895-.022460938 .25099183-.022460938 .3619995-.022460938 .45700074 .07156372 .45700074 .2036438M.36698915 .20463562C.36698915 .15661621 .36698915 .10658264 .34999085 .0705719 .31999208 .010528564 .27398683 .0055389406 .25099183 .0055389406 .18798828 .0055389406 .1579895 .06556702 .1519928 .080566409 .13398743 .127594 .13398743 .2076416 .13398743 .22564698 .13398743 .30369569 .1659851 .40374757 .2559967 .40374757 .27198792 .40374757 .31799317 .40374757 .34899903 .34172059 .36698915 .30470277 .36698915 .2536621 .36698915 .20463562Z"/>
</defs>
<path transform="matrix(1,0,0,-1.00008,2.0960007,58.4964)" d="M14.17339 0V14.17339H28.3468V0ZM28.3468 14.17339" fill="#6dcff6"/>
<path transform="matrix(1,0,0,-1.00008,2.0960007,58.4964)" d="M14.17339 14.17339V28.3468H28.3468V14.17339ZM28.3468 28.3468" fill="#8080ff"/>
<path transform="matrix(1,0,0,-1.00008,2.0960007,58.4964)" d="M14.17339 28.3468V42.5202H28.3468V28.3468ZM28.3468 42.5202" fill="#00ff00"/>
<path transform="matrix(1,0,0,-1.00008,2.0960007,58.4964)" d="M14.17339 42.5202V56.69362H28.3468V42.5202ZM28.3468 56.69362" fill="#fff200"/>
<path transform="matrix(1,0,0,-1.00008,2.0960007,58.4964)" d="M0 28.3468V42.5202H14.17339V28.3468ZM14.17339 42.5202" fill="#ff8000"/>
<path transform="matrix(1,0,0,-1.00008,2.0960007,58.4964)" d="M28.3468 28.3468V42.5202H42.5202V28.3468ZM42.5202 42.5202" fill="#ff8080"/>
<path transform="matrix(1,0,0,-1.00008,2.0960007,58.4964)" stroke-width=".3985" stroke-linecap="butt" stroke-miterlimit="10" stroke-linejoin="miter" fill="none" stroke="#000000" d="M21.2601 7.08669"/>
<use data-text="C" xlink:href="#font_1_42" transform="matrix(9.9626,0,0,-9.963397,19.760003,54.812105)"/>
<path transform="matrix(1,0,0,-1.00008,2.0960007,58.4964)" stroke-width=".3985" stroke-linecap="butt" stroke-miterlimit="10" stroke-linejoin="miter" fill="none" stroke="#000000" d="M21.2601 35.43349"/>
<use data-text="G" xlink:href="#font_1_58" transform="matrix(9.9626,0,0,-9.963397,19.446,26.462838)"/>
<path transform="matrix(1,0,0,-1.00008,2.0960007,58.4964)" stroke-width=".3985" stroke-linecap="butt" stroke-miterlimit="10" stroke-linejoin="miter" fill="none" stroke="#000000" d="M21.2601 21.2601"/>
<use data-text="B" xlink:href="#font_1_34" transform="matrix(9.9626,0,0,-9.963397,19.829003,40.63697)"/>
<path transform="matrix(1,0,0,-1.00008,2.0960007,58.4964)" stroke-width=".3985" stroke-linecap="butt" stroke-miterlimit="10" stroke-linejoin="miter" fill="none" stroke="#000000" d="M35.43349 35.43349"/>
<use data-text="R" xlink:href="#font_1_95" transform="matrix(9.9626,0,0,-9.963397,33.863,26.352829)"/>
<path transform="matrix(1,0,0,-1.00008,2.0960007,58.4964)" stroke-width=".3985" stroke-linecap="butt" stroke-miterlimit="10" stroke-linejoin="miter" fill="none" stroke="#000000" d="M21.2601 49.6069"/>
<use data-text="Y" xlink:href="#font_1_117" transform="matrix(9.9626,0,0,-9.963397,19.620003,12.287701)"/>
<path transform="matrix(1,0,0,-1.00008,2.0960007,58.4964)" stroke-width=".3985" stroke-linecap="butt" stroke-miterlimit="10" stroke-linejoin="miter" fill="none" stroke="#000000" d="M7.08669 35.43349"/>
<use data-text="O" xlink:href="#font_1_80" transform="matrix(9.9626,0,0,-9.963397,5.306999,26.462838)"/>
<path transform="matrix(1,0,0,-1.00008,2.0960007,58.4964)" stroke-width=".3985" stroke-linecap="butt" stroke-miterlimit="10" stroke-linejoin="miter" fill="none" stroke="#000000" d="M21.2601-7.08669"/>
<use data-text="C" xlink:href="#font_1_42" transform="matrix(9.9626,0,0,-9.963397,7.720001,68.98624)"/>
<use data-text="u" xlink:href="#font_1_109" transform="matrix(9.9626,0,0,-9.963397,14.913002,68.98624)"/>
<use data-text="b" xlink:href="#font_1_35" transform="matrix(9.9626,0,0,-9.963397,20.45221,68.98624)"/>
<use data-text="e" xlink:href="#font_1_50" transform="matrix(9.9626,0,0,-9.963397,26.260407,68.98624)"/>
<use data-text="1" xlink:href="#font_1_82" transform="matrix(9.9626,0,0,-9.963397,34.001344,68.98624)"/>
<path transform="matrix(1,0,0,-1.00008,2.0960007,58.4964)" stroke-width=".3985" stroke-linecap="butt" stroke-miterlimit="10" stroke-linejoin="miter" fill="none" stroke="#000000" d="M14.17339 0H28.3468M14.17339 14.17339H28.3468M14.17339 28.3468H28.3468M14.17339 42.5202H28.3468M14.17339 56.68863H28.3468M14.17339 0V56.69362M28.34181 0V56.69362M28.3468 56.69362"/>
<path transform="matrix(1,0,0,-1.00008,2.0960007,58.4964)" stroke-width=".3985" stroke-linecap="butt" stroke-miterlimit="10" stroke-linejoin="miter" fill="none" stroke="#000000" d="M0 28.3468H42.5202M0 42.51523H42.5202M0 28.3468V42.5202M14.17339 28.3468V42.5202M28.3468 28.3468V42.5202M42.51523 28.3468V42.5202M42.5202 42.5202"/>
<path transform="matrix(1,0,0,-1.00008,2.0960007,58.4964)" d="M70.86702 0V14.17339H85.04044V0ZM85.04044 14.17339" fill="#8080ff"/>
<path transform="matrix(1,0,0,-1.00008,2.0960007,58.4964)" d="M70.86702 14.17339V28.3468H85.04044V14.17339ZM85.04044 28.3468" fill="#00ff00"/>
<path transform="matrix(1,0,0,-1.00008,2.0960007,58.4964)" d="M70.86702 28.3468V42.5202H85.04044V28.3468ZM85.04044 42.5202" fill="#fff200"/>
<path transform="matrix(1,0,0,-1.00008,2.0960007,58.4964)" d="M70.86702 42.5202V56.69362H85.04044V42.5202ZM85.04044 56.69362" fill="#ff8000"/>
<path transform="matrix(1,0,0,-1.00008,2.0960007,58.4964)" d="M56.69363 28.3468V42.5202H70.86702V28.3468ZM70.86702 42.5202" fill="#ff8080"/>
<path transform="matrix(1,0,0,-1.00008,2.0960007,58.4964)" d="M85.04044 28.3468V42.5202H99.21384V28.3468ZM99.21384 42.5202" fill="#6dcff6"/>
<path transform="matrix(1,0,0,-1.00008,2.0960007,58.4964)" stroke-width=".3985" stroke-linecap="butt" stroke-miterlimit="10" stroke-linejoin="miter" fill="none" stroke="#000000" d="M77.95374 7.08669"/>
<use data-text="B" xlink:href="#font_1_34" transform="matrix(9.9626,0,0,-9.963397,76.523,54.812105)"/>
<path transform="matrix(1,0,0,-1.00008,2.0960007,58.4964)" stroke-width=".3985" stroke-linecap="butt" stroke-miterlimit="10" stroke-linejoin="miter" fill="none" stroke="#000000" d="M77.95374 21.2601"/>
<use data-text="G" xlink:href="#font_1_58" transform="matrix(9.9626,0,0,-9.963397,76.139,40.63697)"/>
<path transform="matrix(1,0,0,-1.00008,2.0960007,58.4964)" stroke-width=".3985" stroke-linecap="butt" stroke-miterlimit="10" stroke-linejoin="miter" fill="none" stroke="#000000" d="M77.95374 35.43349"/>
<use data-text="Y" xlink:href="#font_1_117" transform="matrix(9.9626,0,0,-9.963397,76.314,26.462838)"/>
<path transform="matrix(1,0,0,-1.00008,2.0960007,58.4964)" stroke-width=".3985" stroke-linecap="butt" stroke-miterlimit="10" stroke-linejoin="miter" fill="none" stroke="#000000" d="M77.95374 49.6069"/>
<use data-text="O" xlink:href="#font_1_80" transform="matrix(9.9626,0,0,-9.963397,76.174,12.287701)"/>
<path transform="matrix(1,0,0,-1.00008,2.0960007,58.4964)" stroke-width=".3985" stroke-linecap="butt" stroke-miterlimit="10" stroke-linejoin="miter" fill="none" stroke="#000000" d="M63.78032 35.43349"/>
<use data-text="R" xlink:href="#font_1_95" transform="matrix(9.9626,0,0,-9.963397,62.21,26.352829)"/>
<path transform="matrix(1,0,0,-1.00008,2.0960007,58.4964)" stroke-width=".3985" stroke-linecap="butt" stroke-miterlimit="10" stroke-linejoin="miter" fill="none" stroke="#000000" d="M92.12712 35.43349"/>
<use data-text="C" xlink:href="#font_1_42" transform="matrix(9.9626,0,0,-9.963397,90.627,26.462838)"/>
<path transform="matrix(1,0,0,-1.00008,2.0960007,58.4964)" stroke-width=".3985" stroke-linecap="butt" stroke-miterlimit="10" stroke-linejoin="miter" fill="none" stroke="#000000" d="M77.95374-7.08669"/>
<use data-text="C" xlink:href="#font_1_42" transform="matrix(9.9626,0,0,-9.963397,64.413,68.98624)"/>
<use data-text="u" xlink:href="#font_1_109" transform="matrix(9.9626,0,0,-9.963397,71.606,68.98624)"/>
<use data-text="b" xlink:href="#font_1_35" transform="matrix(9.9626,0,0,-9.963397,77.14521,68.98624)"/>
<use data-text="e" xlink:href="#font_1_50" transform="matrix(9.9626,0,0,-9.963397,82.95341,68.98624)"/>
<use data-text="2" xlink:href="#font_1_107" transform="matrix(9.9626,0,0,-9.963397,90.69434,68.98624)"/>
<path transform="matrix(1,0,0,-1.00008,2.0960007,58.4964)" stroke-width=".3985" stroke-linecap="butt" stroke-miterlimit="10" stroke-linejoin="miter" fill="none" stroke="#000000" d="M70.86702 0H85.04044M70.86702 14.17339H85.04044M70.86702 28.3468H85.04044M70.86702 42.5202H85.04044M70.86702 56.68863H85.04044M70.86702 0V56.69362M85.03545 0V56.69362M85.04044 56.69362"/>
<path transform="matrix(1,0,0,-1.00008,2.0960007,58.4964)" stroke-width=".3985" stroke-linecap="butt" stroke-miterlimit="10" stroke-linejoin="miter" fill="none" stroke="#000000" d="M56.69363 28.3468H99.21384M56.69363 42.51523H99.21384M56.69363 28.3468V42.5202M70.86702 28.3468V42.5202M85.04044 28.3468V42.5202M99.20886 28.3468V42.5202M99.21384 42.5202"/>
<path transform="matrix(1,0,0,-1.00008,2.0960007,58.4964)" d="M127.56067 0V14.17339H141.73409V0ZM141.73409 14.17339" fill="#ff8000"/>
<path transform="matrix(1,0,0,-1.00008,2.0960007,58.4964)" d="M127.56067 14.17339V28.3468H141.73409V14.17339ZM141.73409 28.3468" fill="#ff8080"/>
<path transform="matrix(1,0,0,-1.00008,2.0960007,58.4964)" d="M127.56067 28.3468V42.5202H141.73409V28.3468ZM141.73409 42.5202" fill="#6dcff6"/>
<path transform="matrix(1,0,0,-1.00008,2.0960007,58.4964)" d="M127.56067 42.5202V56.69362H141.73409V42.5202ZM141.73409 56.69362" fill="#8080ff"/>
<path transform="matrix(1,0,0,-1.00008,2.0960007,58.4964)" d="M113.38728 28.3468V42.5202H127.56067V28.3468ZM127.56067 42.5202" fill="#00ff00"/>
<path transform="matrix(1,0,0,-1.00008,2.0960007,58.4964)" d="M141.73409 28.3468V42.5202H155.90749V28.3468ZM155.90749 42.5202" fill="#fff200"/>
<path transform="matrix(1,0,0,-1.00008,2.0960007,58.4964)" stroke-width=".3985" stroke-linecap="butt" stroke-miterlimit="10" stroke-linejoin="miter" fill="none" stroke="#000000" d="M134.64739 7.08669"/>
<use data-text="O" xlink:href="#font_1_80" transform="matrix(9.9626,0,0,-9.963397,132.86801,54.812105)"/>
<path transform="matrix(1,0,0,-1.00008,2.0960007,58.4964)" stroke-width=".3985" stroke-linecap="butt" stroke-miterlimit="10" stroke-linejoin="miter" fill="none" stroke="#000000" d="M134.64739 21.2601"/>
<use data-text="R" xlink:href="#font_1_95" transform="matrix(9.9626,0,0,-9.963397,133.077,40.52796)"/>
<path transform="matrix(1,0,0,-1.00008,2.0960007,58.4964)" stroke-width=".3985" stroke-linecap="butt" stroke-miterlimit="10" stroke-linejoin="miter" fill="none" stroke="#000000" d="M134.64739 35.43349"/>
<use data-text="C" xlink:href="#font_1_42" transform="matrix(9.9626,0,0,-9.963397,133.147,26.462838)"/>
<path transform="matrix(1,0,0,-1.00008,2.0960007,58.4964)" stroke-width=".3985" stroke-linecap="butt" stroke-miterlimit="10" stroke-linejoin="miter" fill="none" stroke="#000000" d="M134.64739 49.6069"/>
<use data-text="B" xlink:href="#font_1_34" transform="matrix(9.9626,0,0,-9.963397,133.21701,12.287701)"/>
<path transform="matrix(1,0,0,-1.00008,2.0960007,58.4964)" stroke-width=".3985" stroke-linecap="butt" stroke-miterlimit="10" stroke-linejoin="miter" fill="none" stroke="#000000" d="M120.47397 35.43349"/>
<use data-text="G" xlink:href="#font_1_58" transform="matrix(9.9626,0,0,-9.963397,118.66,26.462838)"/>
<path transform="matrix(1,0,0,-1.00008,2.0960007,58.4964)" stroke-width=".3985" stroke-linecap="butt" stroke-miterlimit="10" stroke-linejoin="miter" fill="none" stroke="#000000" d="M148.82079 35.43349"/>
<use data-text="Y" xlink:href="#font_1_117" transform="matrix(9.9626,0,0,-9.963397,147.181,26.462838)"/>
<path transform="matrix(1,0,0,-1.00008,2.0960007,58.4964)" stroke-width=".3985" stroke-linecap="butt" stroke-miterlimit="10" stroke-linejoin="miter" fill="none" stroke="#000000" d="M134.64739-7.08669"/>
<use data-text="C" xlink:href="#font_1_42" transform="matrix(9.9626,0,0,-9.963397,121.107,68.98624)"/>
<use data-text="u" xlink:href="#font_1_109" transform="matrix(9.9626,0,0,-9.963397,128.3,68.98624)"/>
<use data-text="b" xlink:href="#font_1_35" transform="matrix(9.9626,0,0,-9.963397,133.8392,68.98624)"/>
<use data-text="e" xlink:href="#font_1_50" transform="matrix(9.9626,0,0,-9.963397,139.6474,68.98624)"/>
<use data-text="3" xlink:href="#font_1_106" transform="matrix(9.9626,0,0,-9.963397,147.38834,68.98624)"/>
<path transform="matrix(1,0,0,-1.00008,2.0960007,58.4964)" stroke-width=".3985" stroke-linecap="butt" stroke-miterlimit="10" stroke-linejoin="miter" fill="none" stroke="#000000" d="M127.56067 0H141.73409M127.56067 14.17339H141.73409M127.56067 28.3468H141.73409M127.56067 42.5202H141.73409M127.56067 56.68863H141.73409M127.56067 0V56.69362M141.7291 0V56.69362M141.73409 56.69362"/>
<path transform="matrix(1,0,0,-1.00008,2.0960007,58.4964)" stroke-width=".3985" stroke-linecap="butt" stroke-miterlimit="10" stroke-linejoin="miter" fill="none" stroke="#000000" d="M113.38728 28.3468H155.90749M113.38728 42.51523H155.90749M113.38728 28.3468V42.5202M127.56067 28.3468V42.5202M141.73409 28.3468V42.5202M155.90251 28.3468V42.5202M155.90749 42.5202"/>
<path transform="matrix(1,0,0,-1.00008,2.0960007,58.4964)" d="M14.17339-85.04045V-70.86705H28.3468V-85.04045ZM28.3468-70.86705" fill="#ff8080"/>
<path transform="matrix(1,0,0,-1.00008,2.0960007,58.4964)" d="M14.17339-70.86705V-56.69365H28.3468V-70.86705ZM28.3468-56.69365" fill="#6dcff6"/>
<path transform="matrix(1,0,0,-1.00008,2.0960007,58.4964)" d="M14.17339-56.69365V-42.52025H28.3468V-56.69365ZM28.3468-42.52025" fill="#8080ff"/>
<path transform="matrix(1,0,0,-1.00008,2.0960007,58.4964)" d="M14.17339-42.52025V-28.34683H28.3468V-42.52025ZM28.3468-28.34683" fill="#00ff00"/>
<path transform="matrix(1,0,0,-1.00008,2.0960007,58.4964)" d="M0-56.69365V-42.52025H14.17339V-56.69365ZM14.17339-42.52025" fill="#fff200"/>
<path transform="matrix(1,0,0,-1.00008,2.0960007,58.4964)" d="M28.3468-56.69365V-42.52025H42.5202V-56.69365ZM42.5202-42.52025" fill="#ff8000"/>
<path transform="matrix(1,0,0,-1.00008,2.0960007,58.4964)" stroke-width=".3985" stroke-linecap="butt" stroke-miterlimit="10" stroke-linejoin="miter" fill="none" stroke="#000000" d="M21.2601-77.95377"/>
<use data-text="R" xlink:href="#font_1_95" transform="matrix(9.9626,0,0,-9.963397,19.690003,139.7489)"/>
<path transform="matrix(1,0,0,-1.00008,2.0960007,58.4964)" stroke-width=".3985" stroke-linecap="butt" stroke-miterlimit="10" stroke-linejoin="miter" fill="none" stroke="#000000" d="M21.2601-63.78035"/>
<use data-text="C" xlink:href="#font_1_42" transform="matrix(9.9626,0,0,-9.963397,19.760003,125.68477)"/>
<path transform="matrix(1,0,0,-1.00008,2.0960007,58.4964)" stroke-width=".3985" stroke-linecap="butt" stroke-miterlimit="10" stroke-linejoin="miter" fill="none" stroke="#000000" d="M21.2601-49.60695"/>
<use data-text="B" xlink:href="#font_1_34" transform="matrix(9.9626,0,0,-9.963397,19.829003,111.50964)"/>
<path transform="matrix(1,0,0,-1.00008,2.0960007,58.4964)" stroke-width=".3985" stroke-linecap="butt" stroke-miterlimit="10" stroke-linejoin="miter" fill="none" stroke="#000000" d="M21.2601-35.43353"/>
<use data-text="G" xlink:href="#font_1_58" transform="matrix(9.9626,0,0,-9.963397,19.446,97.3355)"/>
<path transform="matrix(1,0,0,-1.00008,2.0960007,58.4964)" stroke-width=".3985" stroke-linecap="butt" stroke-miterlimit="10" stroke-linejoin="miter" fill="none" stroke="#000000" d="M7.08669-49.60695"/>
<use data-text="Y" xlink:href="#font_1_117" transform="matrix(9.9626,0,0,-9.963397,5.4469988,111.50964)"/>
<path transform="matrix(1,0,0,-1.00008,2.0960007,58.4964)" stroke-width=".3985" stroke-linecap="butt" stroke-miterlimit="10" stroke-linejoin="miter" fill="none" stroke="#000000" d="M35.43349-49.60695"/>
<use data-text="O" xlink:href="#font_1_80" transform="matrix(9.9626,0,0,-9.963397,33.654,111.50964)"/>
<path transform="matrix(1,0,0,-1.00008,2.0960007,58.4964)" stroke-width=".3985" stroke-linecap="butt" stroke-miterlimit="10" stroke-linejoin="miter" fill="none" stroke="#000000" d="M21.2601-92.12714"/>
<use data-text="C" xlink:href="#font_1_42" transform="matrix(9.9626,0,0,-9.963397,7.720001,154.03305)"/>
<use data-text="u" xlink:href="#font_1_109" transform="matrix(9.9626,0,0,-9.963397,14.913002,154.03305)"/>
<use data-text="b" xlink:href="#font_1_35" transform="matrix(9.9626,0,0,-9.963397,20.45221,154.03305)"/>
<use data-text="e" xlink:href="#font_1_50" transform="matrix(9.9626,0,0,-9.963397,26.260407,154.03305)"/>
<use data-text="4" xlink:href="#font_1_57" transform="matrix(9.9626,0,0,-9.963397,34.001344,154.03305)"/>
<path transform="matrix(1,0,0,-1.00008,2.0960007,58.4964)" stroke-width=".3985" stroke-linecap="butt" stroke-miterlimit="10" stroke-linejoin="miter" fill="none" stroke="#000000" d="M14.17339-85.04045H28.3468M14.17339-70.86705H28.3468M14.17339-56.69365H28.3468M14.17339-42.52025H28.3468M14.17339-28.35182H28.3468M14.17339-85.04045V-28.34683M28.34181-85.04045V-28.34683M28.3468-28.34683"/>
<path transform="matrix(1,0,0,-1.00008,2.0960007,58.4964)" stroke-width=".3985" stroke-linecap="butt" stroke-miterlimit="10" stroke-linejoin="miter" fill="none" stroke="#000000" d="M0-56.69365H42.5202M0-42.52522H42.5202M0-56.69365V-42.52025M14.17339-56.69365V-42.52025M28.3468-56.69365V-42.52025M42.51523-56.69365V-42.52025M42.5202-42.52025"/>
<path transform="matrix(1,0,0,-1.00008,2.0960007,58.4964)" d="M70.86702-85.04045V-70.86705H85.04044V-85.04045ZM85.04044-70.86705" fill="#00ff00"/>
<path transform="matrix(1,0,0,-1.00008,2.0960007,58.4964)" d="M70.86702-70.86705V-56.69365H85.04044V-70.86705ZM85.04044-56.69365" fill="#fff200"/>
<path transform="matrix(1,0,0,-1.00008,2.0960007,58.4964)" d="M70.86702-56.69365V-42.52025H85.04044V-56.69365ZM85.04044-42.52025" fill="#ff8000"/>
<path transform="matrix(1,0,0,-1.00008,2.0960007,58.4964)" d="M70.86702-42.52025V-28.34683H85.04044V-42.52025ZM85.04044-28.34683" fill="#ff8080"/>
<path transform="matrix(1,0,0,-1.00008,2.0960007,58.4964)" d="M56.69363-56.69365V-42.52025H70.86702V-56.69365ZM70.86702-42.52025" fill="#6dcff6"/>
<path transform="matrix(1,0,0,-1.00008,2.0960007,58.4964)" d="M85.04044-56.69365V-42.52025H99.21384V-56.69365ZM99.21384-42.52025" fill="#8080ff"/>
<path transform="matrix(1,0,0,-1.00008,2.0960007,58.4964)" stroke-width=".3985" stroke-linecap="butt" stroke-miterlimit="10" stroke-linejoin="miter" fill="none" stroke="#000000" d="M77.95374-77.95377"/>
<use data-text="G" xlink:href="#font_1_58" transform="matrix(9.9626,0,0,-9.963397,76.139,139.85892)"/>
<path transform="matrix(1,0,0,-1.00008,2.0960007,58.4964)" stroke-width=".3985" stroke-linecap="butt" stroke-miterlimit="10" stroke-linejoin="miter" fill="none" stroke="#000000" d="M77.95374-63.78035"/>
<use data-text="Y" xlink:href="#font_1_117" transform="matrix(9.9626,0,0,-9.963397,76.314,125.68477)"/>
<path transform="matrix(1,0,0,-1.00008,2.0960007,58.4964)" stroke-width=".3985" stroke-linecap="butt" stroke-miterlimit="10" stroke-linejoin="miter" fill="none" stroke="#000000" d="M77.95374-49.60695"/>
<use data-text="O" xlink:href="#font_1_80" transform="matrix(9.9626,0,0,-9.963397,76.174,111.50964)"/>
<path transform="matrix(1,0,0,-1.00008,2.0960007,58.4964)" stroke-width=".3985" stroke-linecap="butt" stroke-miterlimit="10" stroke-linejoin="miter" fill="none" stroke="#000000" d="M77.95374-35.43353"/>
<use data-text="R" xlink:href="#font_1_95" transform="matrix(9.9626,0,0,-9.963397,76.383,97.225498)"/>
<path transform="matrix(1,0,0,-1.00008,2.0960007,58.4964)" stroke-width=".3985" stroke-linecap="butt" stroke-miterlimit="10" stroke-linejoin="miter" fill="none" stroke="#000000" d="M63.78032-49.60695"/>
<use data-text="C" xlink:href="#font_1_42" transform="matrix(9.9626,0,0,-9.963397,62.28,111.50964)"/>
<path transform="matrix(1,0,0,-1.00008,2.0960007,58.4964)" stroke-width=".3985" stroke-linecap="butt" stroke-miterlimit="10" stroke-linejoin="miter" fill="none" stroke="#000000" d="M92.12712-49.60695"/>
<use data-text="B" xlink:href="#font_1_34" transform="matrix(9.9626,0,0,-9.963397,90.696,111.50964)"/>
<path transform="matrix(1,0,0,-1.00008,2.0960007,58.4964)" stroke-width=".3985" stroke-linecap="butt" stroke-miterlimit="10" stroke-linejoin="miter" fill="none" stroke="#000000" d="M77.95374-92.12714"/>
<use data-text="C" xlink:href="#font_1_42" transform="matrix(9.9626,0,0,-9.963397,64.413,154.03305)"/>
<use data-text="u" xlink:href="#font_1_109" transform="matrix(9.9626,0,0,-9.963397,71.606,154.03305)"/>
<use data-text="b" xlink:href="#font_1_35" transform="matrix(9.9626,0,0,-9.963397,77.14521,154.03305)"/>
<use data-text="e" xlink:href="#font_1_50" transform="matrix(9.9626,0,0,-9.963397,82.95341,154.03305)"/>
<use data-text="5" xlink:href="#font_1_56" transform="matrix(9.9626,0,0,-9.963397,90.69434,154.03305)"/>
<path transform="matrix(1,0,0,-1.00008,2.0960007,58.4964)" stroke-width=".3985" stroke-linecap="butt" stroke-miterlimit="10" stroke-linejoin="miter" fill="none" stroke="#000000" d="M70.86702-85.04045H85.04044M70.86702-70.86705H85.04044M70.86702-56.69365H85.04044M70.86702-42.52025H85.04044M70.86702-28.35182H85.04044M70.86702-85.04045V-28.34683M85.03545-85.04045V-28.34683M85.04044-28.34683"/>
<path transform="matrix(1,0,0,-1.00008,2.0960007,58.4964)" stroke-width=".3985" stroke-linecap="butt" stroke-miterlimit="10" stroke-linejoin="miter" fill="none" stroke="#000000" d="M56.69363-56.69365H99.21384M56.69363-42.52522H99.21384M56.69363-56.69365V-42.52025M70.86702-56.69365V-42.52025M85.04044-56.69365V-42.52025M99.20886-56.69365V-42.52025M99.21384-42.52025"/>
<path transform="matrix(1,0,0,-1.00008,2.0960007,58.4964)" d="M127.56067-85.04045V-70.86705H141.73409V-85.04045ZM141.73409-70.86705" fill="#fff200"/>
<path transform="matrix(1,0,0,-1.00008,2.0960007,58.4964)" d="M127.56067-70.86705V-56.69365H141.73409V-70.86705ZM141.73409-56.69365" fill="#ff8000"/>
<path transform="matrix(1,0,0,-1.00008,2.0960007,58.4964)" d="M127.56067-56.69365V-42.52025H141.73409V-56.69365ZM141.73409-42.52025" fill="#ff8080"/>
<path transform="matrix(1,0,0,-1.00008,2.0960007,58.4964)" d="M127.56067-42.52025V-28.34683H141.73409V-42.52025ZM141.73409-28.34683" fill="#6dcff6"/>
<path transform="matrix(1,0,0,-1.00008,2.0960007,58.4964)" d="M113.38728-56.69365V-42.52025H127.56067V-56.69365ZM127.56067-42.52025" fill="#8080ff"/>
<path transform="matrix(1,0,0,-1.00008,2.0960007,58.4964)" d="M141.73409-56.69365V-42.52025H155.90749V-56.69365ZM155.90749-42.52025" fill="#00ff00"/>
<path transform="matrix(1,0,0,-1.00008,2.0960007,58.4964)" stroke-width=".3985" stroke-linecap="butt" stroke-miterlimit="10" stroke-linejoin="miter" fill="none" stroke="#000000" d="M134.64739-77.95377"/>
<use data-text="Y" xlink:href="#font_1_117" transform="matrix(9.9626,0,0,-9.963397,133.00699,139.85892)"/>
<path transform="matrix(1,0,0,-1.00008,2.0960007,58.4964)" stroke-width=".3985" stroke-linecap="butt" stroke-miterlimit="10" stroke-linejoin="miter" fill="none" stroke="#000000" d="M134.64739-63.78035"/>
<use data-text="O" xlink:href="#font_1_80" transform="matrix(9.9626,0,0,-9.963397,132.86801,125.68477)"/>
<path transform="matrix(1,0,0,-1.00008,2.0960007,58.4964)" stroke-width=".3985" stroke-linecap="butt" stroke-miterlimit="10" stroke-linejoin="miter" fill="none" stroke="#000000" d="M134.64739-49.60695"/>
<use data-text="R" xlink:href="#font_1_95" transform="matrix(9.9626,0,0,-9.963397,133.077,111.400638)"/>
<path transform="matrix(1,0,0,-1.00008,2.0960007,58.4964)" stroke-width=".3985" stroke-linecap="butt" stroke-miterlimit="10" stroke-linejoin="miter" fill="none" stroke="#000000" d="M134.64739-35.43353"/>
<use data-text="C" xlink:href="#font_1_42" transform="matrix(9.9626,0,0,-9.963397,133.147,97.3355)"/>
<path transform="matrix(1,0,0,-1.00008,2.0960007,58.4964)" stroke-width=".3985" stroke-linecap="butt" stroke-miterlimit="10" stroke-linejoin="miter" fill="none" stroke="#000000" d="M120.47397-49.60695"/>
<use data-text="B" xlink:href="#font_1_34" transform="matrix(9.9626,0,0,-9.963397,119.043,111.50964)"/>
<path transform="matrix(1,0,0,-1.00008,2.0960007,58.4964)" stroke-width=".3985" stroke-linecap="butt" stroke-miterlimit="10" stroke-linejoin="miter" fill="none" stroke="#000000" d="M148.82079-49.60695"/>
<use data-text="G" xlink:href="#font_1_58" transform="matrix(9.9626,0,0,-9.963397,147.00601,111.50964)"/>
<path transform="matrix(1,0,0,-1.00008,2.0960007,58.4964)" stroke-width=".3985" stroke-linecap="butt" stroke-miterlimit="10" stroke-linejoin="miter" fill="none" stroke="#000000" d="M134.64739-92.12714"/>
<use data-text="C" xlink:href="#font_1_42" transform="matrix(9.9626,0,0,-9.963397,121.107,154.03305)"/>
<use data-text="u" xlink:href="#font_1_109" transform="matrix(9.9626,0,0,-9.963397,128.3,154.03305)"/>
<use data-text="b" xlink:href="#font_1_35" transform="matrix(9.9626,0,0,-9.963397,133.8392,154.03305)"/>
<use data-text="e" xlink:href="#font_1_50" transform="matrix(9.9626,0,0,-9.963397,139.6474,154.03305)"/>
<use data-text="6" xlink:href="#font_1_101" transform="matrix(9.9626,0,0,-9.963397,147.38834,154.03305)"/>
<path transform="matrix(1,0,0,-1.00008,2.0960007,58.4964)" stroke-width=".3985" stroke-linecap="butt" stroke-miterlimit="10" stroke-linejoin="miter" fill="none" stroke="#000000" d="M127.56067-85.04045H141.73409M127.56067-70.86705H141.73409M127.56067-56.69365H141.73409M127.56067-42.52025H141.73409M127.56067-28.35182H141.73409M127.56067-85.04045V-28.34683M141.7291-85.04045V-28.34683M141.73409-28.34683"/>
<path transform="matrix(1,0,0,-1.00008,2.0960007,58.4964)" stroke-width=".3985" stroke-linecap="butt" stroke-miterlimit="10" stroke-linejoin="miter" fill="none" stroke="#000000" d="M113.38728-56.69365H155.90749M113.38728-42.52522H155.90749M113.38728-56.69365V-42.52025M127.56067-56.69365V-42.52025M141.73409-56.69365V-42.52025M155.90251-56.69365V-42.52025M155.90749-42.52025"/>
</svg>
