<svg xmlns="http://www.w3.org/2000/svg" xmlns:xlink="http://www.w3.org/1999/xlink" xmlns:inkscape="http://www.inkscape.org/namespaces/inkscape" version="1.1" width="107" height="66" viewBox="0 0 107 66">
<defs>
<path id="font_1_1" d="M.6529999 .05305481C.6839905 .026000977 .74398806 0 .7509918 0 .7649994 0 .7649994 .0129852299 .7649994 .027999878V.22935486H.8450012V.2763672C.80999758 .2733612 .72299197 .2733612 .6839905 .2733612 .6259918 .2733612 .5329895 .2733612 .47898866 .2763672V.22935486H.6230011V.12817383C.6230011 .109298709 .6230011 .08027649 .58399966 .057266237 .55799868 .042251588 .526001 .036254884 .49398805 .036254884 .4079895 .036254884 .32199098 .06526184 .272995 .12730408 .22999573 .18232727 .21699524 .25335694 .21699524 .3443451 .21699524 .4563141 .23699951 .5142975 .27398683 .5632782 .31399537 .613266 .3909912 .6502533 .4869995 .6502533 .59399417 .6502533 .68899539 .5742798 .71099856 .4473114 .71398928 .4283142 .71499636 .4263153 .73799136 .4263153 .7639923 .4263153 .7649994 .4283142 .7649994 .4543152V.6692505C.7649994 .68826296 .7649994 .6972656 .746994 .6972656 .73799136 .6972656 .73599246 .69525149 .7279968 .68826296L.6619873 .62927249C.58898928 .68725588 .5169983 .6972656 .46499635 .6972656 .21899414 .6972656 .06399536 .55029299 .06399536 .343338 .06399536 .14431763 .20899964-.0107421879 .46699525-.0107421879 .5-.011001587 .6029968-.009002686 .6529999 .05305481Z"/>
<path id="font_2_1" d="M.33499146 .63612368C.33499146 .6630554 .33299256 .6640625 .30499269 .6640625 .24099732 .6014404 .1499939 .6004486 .10899353 .6004486V.5644531C.1329956 .5644531 .19898987 .5644531 .2539978 .592453V.08203125C.2539978 .04899597 .2539978 .035995485 .1539917 .035995485H.115997318V0C.13398743 .0009918213 .25698854 .0039978029 .2939911 .0039978029 .32499696 .0039978029 .45098878 .0009918213 .47299195 0V.035995485H.43499757C.33499146 .035995485 .33499146 .04899597 .33499146 .08203125V.63612368Z"/>
<path id="font_2_2" d="M.5049896 .18203736H.47099305C.46798707 .16001892 .45799256 .100997928 .44499208 .09098816 .43699647 .084991458 .3600006 .084991458 .34599305 .084991458H.1619873C.2669983 .17803955 .3019867 .20603943 .3619995 .25306703 .43598939 .312088 .5049896 .374115 .5049896 .46914674 .5049896 .5900879 .39898683 .6640625 .2709961 .6640625 .14698792 .6640625 .06298828 .57710269 .06298828 .4851532 .06298828 .43414308 .10598755 .42915345 .115997318 .42915345 .13999939 .42915345 .16899109 .44615174 .16899109 .48214723 .16899109 .5001526 .1619873 .53515627 .10998535 .53515627 .14099121 .6060791 .20899964 .62805178 .2559967 .62805178 .35598756 .62805178 .4079895 .5501404 .4079895 .46914674 .4079895 .38212586 .34599305 .3130951 .31399537 .27708436L.07299805 .038986207C.06298828 .02999878 .06298828 .027999878 .06298828 0H.47499085L.5049896 .18203736Z"/>
</defs>
<path transform="matrix(1.00003,0,0,-1.00009,4.2885668,47.609205)" stroke-width=".3985" stroke-linecap="butt" stroke-miterlimit="10" stroke-linejoin="miter" fill="none" stroke="#000000" d=""/>
<use data-text="G" xlink:href="#font_1_1" transform="matrix(9.962899,0,0,-9.963496,11.723793,7.755619)"/>
<use data-text="1" xlink:href="#font_2_1" transform="matrix(6.9740097,0,0,-6.9744279,20.732064,9.2507519)"/>
<path transform="matrix(1.00003,0,0,-1.00009,4.2885668,47.609205)" stroke-width=".3985" stroke-linecap="butt" stroke-miterlimit="10" stroke-linejoin="miter" fill="none" stroke="#000000" d=""/>
<use data-text="G" xlink:href="#font_1_1" transform="matrix(9.962899,0,0,-9.963496,82.59292,7.755619)"/>
<use data-text="2" xlink:href="#font_2_2" transform="matrix(6.9740097,0,0,-6.9744279,91.60119,9.2507519)"/>
<path transform="matrix(1.00003,0,0,-1.00009,4.2885668,47.609205)" stroke-width=".3985" stroke-linecap="butt" stroke-miterlimit="10" stroke-linejoin="miter" fill="none" stroke="#000000" d=""/>
<path transform="matrix(1.00003,0,0,-1.00009,4.2885668,47.609205)" d="M1.99255 0C1.99255 1.10046 1.10046 1.99255 0 1.99255-1.10046 1.99255-1.99255 1.10046-1.99255 0-1.99255-1.10046-1.10046-1.99255 0-1.99255 1.10046-1.99255 1.99255-1.10046 1.99255 0ZM0 0" fill="#ff0000"/>
<path transform="matrix(1.00003,0,0,-1.00009,4.2885668,47.609205)" stroke-width=".79701" stroke-linecap="butt" stroke-miterlimit="10" stroke-linejoin="miter" fill="none" stroke="#000000" d="M1.99255 0C1.99255 1.10046 1.10046 1.99255 0 1.99255-1.10046 1.99255-1.99255 1.10046-1.99255 0-1.99255-1.10046-1.10046-1.99255 0-1.99255 1.10046-1.99255 1.99255-1.10046 1.99255 0ZM0 0"/>
<path transform="matrix(1.00003,0,0,-1.00009,4.2885668,47.609205)" stroke-width=".3985" stroke-linecap="butt" stroke-miterlimit="10" stroke-linejoin="miter" fill="none" stroke="#000000" d=""/>
<path transform="matrix(1.00003,0,0,-1.00009,4.2885668,47.609205)" d="M1.99255 14.17339C1.99255 15.27386 1.10046 16.16594 0 16.16594-1.10046 16.16594-1.99255 15.27386-1.99255 14.17339-1.99255 13.07292-1.10046 12.18083 0 12.18083 1.10046 12.18083 1.99255 13.07292 1.99255 14.17339ZM0 14.17339" fill="#ff0000"/>
<path transform="matrix(1.00003,0,0,-1.00009,4.2885668,47.609205)" stroke-width=".79701" stroke-linecap="butt" stroke-miterlimit="10" stroke-linejoin="miter" fill="none" stroke="#000000" d="M1.99255 14.17339C1.99255 15.27386 1.10046 16.16594 0 16.16594-1.10046 16.16594-1.99255 15.27386-1.99255 14.17339-1.99255 13.07292-1.10046 12.18083 0 12.18083 1.10046 12.18083 1.99255 13.07292 1.99255 14.17339ZM0 14.17339"/>
<path transform="matrix(1.00003,0,0,-1.00009,4.2885668,47.609205)" stroke-width=".3985" stroke-linecap="butt" stroke-miterlimit="10" stroke-linejoin="miter" fill="none" stroke="#000000" d=""/>
<path transform="matrix(1.00003,0,0,-1.00009,4.2885668,47.609205)" d="M1.99255 28.3468C1.99255 29.44728 1.10046 30.33936 0 30.33936-1.10046 30.33936-1.99255 29.44728-1.99255 28.3468-1.99255 27.24634-1.10046 26.35425 0 26.35425 1.10046 26.35425 1.99255 27.24634 1.99255 28.3468ZM0 28.3468" fill="#ff0000"/>
<path transform="matrix(1.00003,0,0,-1.00009,4.2885668,47.609205)" stroke-width=".79701" stroke-linecap="butt" stroke-miterlimit="10" stroke-linejoin="miter" fill="none" stroke="#000000" d="M1.99255 28.3468C1.99255 29.44728 1.10046 30.33936 0 30.33936-1.10046 30.33936-1.99255 29.44728-1.99255 28.3468-1.99255 27.24634-1.10046 26.35425 0 26.35425 1.10046 26.35425 1.99255 27.24634 1.99255 28.3468ZM0 28.3468"/>
<path transform="matrix(1.00003,0,0,-1.00009,4.2885668,47.609205)" stroke-width=".3985" stroke-linecap="butt" stroke-miterlimit="10" stroke-linejoin="miter" fill="none" stroke="#000000" d=""/>
<path transform="matrix(1.00003,0,0,-1.00009,4.2885668,47.609205)" d="M30.33936 0C30.33936 1.10046 29.44728 1.99255 28.3468 1.99255 27.24634 1.99255 26.35425 1.10046 26.35425 0 26.35425-1.10046 27.24634-1.99255 28.3468-1.99255 29.44728-1.99255 30.33936-1.10046 30.33936 0ZM28.3468 0" fill="#ff0000"/>
<path transform="matrix(1.00003,0,0,-1.00009,4.2885668,47.609205)" stroke-width=".79701" stroke-linecap="butt" stroke-miterlimit="10" stroke-linejoin="miter" fill="none" stroke="#000000" d="M30.33936 0C30.33936 1.10046 29.44728 1.99255 28.3468 1.99255 27.24634 1.99255 26.35425 1.10046 26.35425 0 26.35425-1.10046 27.24634-1.99255 28.3468-1.99255 29.44728-1.99255 30.33936-1.10046 30.33936 0ZM28.3468 0"/>
<path transform="matrix(1.00003,0,0,-1.00009,4.2885668,47.609205)" stroke-width=".3985" stroke-linecap="butt" stroke-miterlimit="10" stroke-linejoin="miter" fill="none" stroke="#000000" d=""/>
<path transform="matrix(1.00003,0,0,-1.00009,4.2885668,47.609205)" d="M30.33936 14.17339C30.33936 15.27386 29.44728 16.16594 28.3468 16.16594 27.24634 16.16594 26.35425 15.27386 26.35425 14.17339 26.35425 13.07292 27.24634 12.18083 28.3468 12.18083 29.44728 12.18083 30.33936 13.07292 30.33936 14.17339ZM28.3468 14.17339" fill="#ff0000"/>
<path transform="matrix(1.00003,0,0,-1.00009,4.2885668,47.609205)" stroke-width=".79701" stroke-linecap="butt" stroke-miterlimit="10" stroke-linejoin="miter" fill="none" stroke="#000000" d="M30.33936 14.17339C30.33936 15.27386 29.44728 16.16594 28.3468 16.16594 27.24634 16.16594 26.35425 15.27386 26.35425 14.17339 26.35425 13.07292 27.24634 12.18083 28.3468 12.18083 29.44728 12.18083 30.33936 13.07292 30.33936 14.17339ZM28.3468 14.17339"/>
<path transform="matrix(1.00003,0,0,-1.00009,4.2885668,47.609205)" stroke-width=".3985" stroke-linecap="butt" stroke-miterlimit="10" stroke-linejoin="miter" fill="none" stroke="#000000" d=""/>
<path transform="matrix(1.00003,0,0,-1.00009,4.2885668,47.609205)" d="M30.33936 28.3468C30.33936 29.44728 29.44728 30.33936 28.3468 30.33936 27.24634 30.33936 26.35425 29.44728 26.35425 28.3468 26.35425 27.24634 27.24634 26.35425 28.3468 26.35425 29.44728 26.35425 30.33936 27.24634 30.33936 28.3468ZM28.3468 28.3468" fill="#ff0000"/>
<path transform="matrix(1.00003,0,0,-1.00009,4.2885668,47.609205)" stroke-width=".79701" stroke-linecap="butt" stroke-miterlimit="10" stroke-linejoin="miter" fill="none" stroke="#000000" d="M30.33936 28.3468C30.33936 29.44728 29.44728 30.33936 28.3468 30.33936 27.24634 30.33936 26.35425 29.44728 26.35425 28.3468 26.35425 27.24634 27.24634 26.35425 28.3468 26.35425 29.44728 26.35425 30.33936 27.24634 30.33936 28.3468ZM28.3468 28.3468"/>
<path transform="matrix(1.00003,0,0,-1.00009,4.2885668,47.609205)" stroke-width=".3985" stroke-linecap="butt" stroke-miterlimit="10" stroke-linejoin="miter" fill="none" stroke="#000000" d=""/>
<path transform="matrix(1.00003,0,0,-1.00009,4.2885668,47.609205)" d="M16.16594-14.17339C16.16594-13.07292 15.27386-12.18083 14.17339-12.18083 13.07292-12.18083 12.18083-13.07292 12.18083-14.17339 12.18083-15.27386 13.07292-16.16594 14.17339-16.16594 15.27386-16.16594 16.16594-15.27386 16.16594-14.17339ZM14.17339-14.17339" fill="#ff0000"/>
<path transform="matrix(1.00003,0,0,-1.00009,4.2885668,47.609205)" stroke-width=".79701" stroke-linecap="butt" stroke-miterlimit="10" stroke-linejoin="miter" fill="none" stroke="#000000" d="M16.16594-14.17339C16.16594-13.07292 15.27386-12.18083 14.17339-12.18083 13.07292-12.18083 12.18083-13.07292 12.18083-14.17339 12.18083-15.27386 13.07292-16.16594 14.17339-16.16594 15.27386-16.16594 16.16594-15.27386 16.16594-14.17339ZM14.17339-14.17339"/>
<path transform="matrix(1.00003,0,0,-1.00009,4.2885668,47.609205)" stroke-width=".3985" stroke-linecap="butt" stroke-miterlimit="10" stroke-linejoin="miter" fill="none" stroke="#000000" d="M2.39105 0H25.95575M26.20834 1.06921 2.1385 13.10417M2.39105 14.17339H25.95575M26.20834 15.2426 2.13846 27.27759M2.39105 28.3468H25.95575M26.65607 26.65607 1.69072 1.69072M2.13846 1.06921 26.2083 13.10417"/>
<path transform="matrix(1.00003,0,0,-1.00009,4.2885668,47.609205)" stroke-width=".3985" stroke-linecap="butt" stroke-miterlimit="10" stroke-linejoin="miter" fill="none" stroke="#000000" d="M2.13846 15.2426 26.20834 27.27759"/>
<path transform="matrix(1.00003,0,0,-1.00009,4.2885668,47.609205)" stroke-width=".3985" stroke-linecap="butt" stroke-miterlimit="10" stroke-linejoin="miter" fill="none" stroke="#000000" d="M1.69072 26.65607 26.65607 1.69072"/>
<path transform="matrix(1.00003,0,0,-1.00009,4.2885668,47.609205)" stroke-width=".3985" stroke-linecap="butt" stroke-miterlimit="10" stroke-linejoin="miter" fill="none" stroke="#000000" d="M13.41731-11.90515 .75606 26.07857M0 25.95575V16.56445"/>
<path transform="matrix(1.00003,0,0,-1.00009,4.2885668,47.609205)" stroke-width=".3985" stroke-linecap="butt" stroke-miterlimit="10" stroke-linejoin="miter" fill="none" stroke="#000000" d=""/>
<path transform="matrix(1.00003,0,0,-1.00009,4.2885668,47.609205)" d="M72.85959 0C72.85959 1.10046 71.96751 1.99255 70.86703 1.99255 69.76657 1.99255 68.87448 1.10046 68.87448 0 68.87448-1.10046 69.76657-1.99255 70.86703-1.99255 71.96751-1.99255 72.85959-1.10046 72.85959 0ZM70.86703 0" fill="#ff0000"/>
<path transform="matrix(1.00003,0,0,-1.00009,4.2885668,47.609205)" stroke-width=".79701" stroke-linecap="butt" stroke-miterlimit="10" stroke-linejoin="miter" fill="none" stroke="#000000" d="M72.85959 0C72.85959 1.10046 71.96751 1.99255 70.86703 1.99255 69.76657 1.99255 68.87448 1.10046 68.87448 0 68.87448-1.10046 69.76657-1.99255 70.86703-1.99255 71.96751-1.99255 72.85959-1.10046 72.85959 0ZM70.86703 0"/>
<path transform="matrix(1.00003,0,0,-1.00009,4.2885668,47.609205)" stroke-width=".3985" stroke-linecap="butt" stroke-miterlimit="10" stroke-linejoin="miter" fill="none" stroke="#000000" d=""/>
<path transform="matrix(1.00003,0,0,-1.00009,4.2885668,47.609205)" d="M72.85959 14.17339C72.85959 15.27386 71.96751 16.16594 70.86703 16.16594 69.76657 16.16594 68.87448 15.27386 68.87448 14.17339 68.87448 13.07292 69.76657 12.18083 70.86703 12.18083 71.96751 12.18083 72.85959 13.07292 72.85959 14.17339ZM70.86703 14.17339" fill="#ff0000"/>
<path transform="matrix(1.00003,0,0,-1.00009,4.2885668,47.609205)" stroke-width=".79701" stroke-linecap="butt" stroke-miterlimit="10" stroke-linejoin="miter" fill="none" stroke="#000000" d="M72.85959 14.17339C72.85959 15.27386 71.96751 16.16594 70.86703 16.16594 69.76657 16.16594 68.87448 15.27386 68.87448 14.17339 68.87448 13.07292 69.76657 12.18083 70.86703 12.18083 71.96751 12.18083 72.85959 13.07292 72.85959 14.17339ZM70.86703 14.17339"/>
<path transform="matrix(1.00003,0,0,-1.00009,4.2885668,47.609205)" stroke-width=".3985" stroke-linecap="butt" stroke-miterlimit="10" stroke-linejoin="miter" fill="none" stroke="#000000" d=""/>
<path transform="matrix(1.00003,0,0,-1.00009,4.2885668,47.609205)" d="M72.85959 28.3468C72.85959 29.44728 71.96751 30.33936 70.86703 30.33936 69.76657 30.33936 68.87448 29.44728 68.87448 28.3468 68.87448 27.24634 69.76657 26.35425 70.86703 26.35425 71.96751 26.35425 72.85959 27.24634 72.85959 28.3468ZM70.86703 28.3468" fill="#ff0000"/>
<path transform="matrix(1.00003,0,0,-1.00009,4.2885668,47.609205)" stroke-width=".79701" stroke-linecap="butt" stroke-miterlimit="10" stroke-linejoin="miter" fill="none" stroke="#000000" d="M72.85959 28.3468C72.85959 29.44728 71.96751 30.33936 70.86703 30.33936 69.76657 30.33936 68.87448 29.44728 68.87448 28.3468 68.87448 27.24634 69.76657 26.35425 70.86703 26.35425 71.96751 26.35425 72.85959 27.24634 72.85959 28.3468ZM70.86703 28.3468"/>
<path transform="matrix(1.00003,0,0,-1.00009,4.2885668,47.609205)" stroke-width=".3985" stroke-linecap="butt" stroke-miterlimit="10" stroke-linejoin="miter" fill="none" stroke="#000000" d=""/>
<path transform="matrix(1.00003,0,0,-1.00009,4.2885668,47.609205)" d="M101.2064 0C101.2064 1.10046 100.31432 1.99255 99.21385 1.99255 98.11337 1.99255 97.2213 1.10046 97.2213 0 97.2213-1.10046 98.11337-1.99255 99.21385-1.99255 100.31432-1.99255 101.2064-1.10046 101.2064 0ZM99.21385 0" fill="#ff0000"/>
<path transform="matrix(1.00003,0,0,-1.00009,4.2885668,47.609205)" stroke-width=".79701" stroke-linecap="butt" stroke-miterlimit="10" stroke-linejoin="miter" fill="none" stroke="#000000" d="M101.2064 0C101.2064 1.10046 100.31432 1.99255 99.21385 1.99255 98.11337 1.99255 97.2213 1.10046 97.2213 0 97.2213-1.10046 98.11337-1.99255 99.21385-1.99255 100.31432-1.99255 101.2064-1.10046 101.2064 0ZM99.21385 0"/>
<path transform="matrix(1.00003,0,0,-1.00009,4.2885668,47.609205)" stroke-width=".3985" stroke-linecap="butt" stroke-miterlimit="10" stroke-linejoin="miter" fill="none" stroke="#000000" d=""/>
<path transform="matrix(1.00003,0,0,-1.00009,4.2885668,47.609205)" d="M101.2064 14.17339C101.2064 15.27386 100.31432 16.16594 99.21385 16.16594 98.11337 16.16594 97.2213 15.27386 97.2213 14.17339 97.2213 13.07292 98.11337 12.18083 99.21385 12.18083 100.31432 12.18083 101.2064 13.07292 101.2064 14.17339ZM99.21385 14.17339" fill="#ff0000"/>
<path transform="matrix(1.00003,0,0,-1.00009,4.2885668,47.609205)" stroke-width=".79701" stroke-linecap="butt" stroke-miterlimit="10" stroke-linejoin="miter" fill="none" stroke="#000000" d="M101.2064 14.17339C101.2064 15.27386 100.31432 16.16594 99.21385 16.16594 98.11337 16.16594 97.2213 15.27386 97.2213 14.17339 97.2213 13.07292 98.11337 12.18083 99.21385 12.18083 100.31432 12.18083 101.2064 13.07292 101.2064 14.17339ZM99.21385 14.17339"/>
<path transform="matrix(1.00003,0,0,-1.00009,4.2885668,47.609205)" stroke-width=".3985" stroke-linecap="butt" stroke-miterlimit="10" stroke-linejoin="miter" fill="none" stroke="#000000" d=""/>
<path transform="matrix(1.00003,0,0,-1.00009,4.2885668,47.609205)" d="M101.2064 28.3468C101.2064 29.44728 100.31432 30.33936 99.21385 30.33936 98.11337 30.33936 97.2213 29.44728 97.2213 28.3468 97.2213 27.24634 98.11337 26.35425 99.21385 26.35425 100.31432 26.35425 101.2064 27.24634 101.2064 28.3468ZM99.21385 28.3468" fill="#ff0000"/>
<path transform="matrix(1.00003,0,0,-1.00009,4.2885668,47.609205)" stroke-width=".79701" stroke-linecap="butt" stroke-miterlimit="10" stroke-linejoin="miter" fill="none" stroke="#000000" d="M101.2064 28.3468C101.2064 29.44728 100.31432 30.33936 99.21385 30.33936 98.11337 30.33936 97.2213 29.44728 97.2213 28.3468 97.2213 27.24634 98.11337 26.35425 99.21385 26.35425 100.31432 26.35425 101.2064 27.24634 101.2064 28.3468ZM99.21385 28.3468"/>
<path transform="matrix(1.00003,0,0,-1.00009,4.2885668,47.609205)" stroke-width=".3985" stroke-linecap="butt" stroke-miterlimit="10" stroke-linejoin="miter" fill="none" stroke="#000000" d=""/>
<path transform="matrix(1.00003,0,0,-1.00009,4.2885668,47.609205)" d="M87.03299 0C87.03299 1.10046 86.14091 1.99255 85.04044 1.99255 83.93997 1.99255 83.04788 1.10046 83.04788 0 83.04788-1.10046 83.93997-1.99255 85.04044-1.99255 86.14091-1.99255 87.03299-1.10046 87.03299 0ZM85.04044 0" fill="#ff0000"/>
<path transform="matrix(1.00003,0,0,-1.00009,4.2885668,47.609205)" stroke-width=".79701" stroke-linecap="butt" stroke-miterlimit="10" stroke-linejoin="miter" fill="none" stroke="#000000" d="M87.03299 0C87.03299 1.10046 86.14091 1.99255 85.04044 1.99255 83.93997 1.99255 83.04788 1.10046 83.04788 0 83.04788-1.10046 83.93997-1.99255 85.04044-1.99255 86.14091-1.99255 87.03299-1.10046 87.03299 0ZM85.04044 0"/>
<path transform="matrix(1.00003,0,0,-1.00009,4.2885668,47.609205)" stroke-width=".3985" stroke-linecap="butt" stroke-miterlimit="10" stroke-linejoin="miter" fill="none" stroke="#000000" d="M73.2581 0H82.64938M87.43149 0H96.82278M97.0754 1.06921 73.00555 13.10417M73.2581 14.17339H96.82278M97.0754 15.2426 73.00551 27.27759M73.2581 28.3468H96.82278M97.52312 26.65607 72.55777 1.69072M73.00551 1.06921 97.07535 13.10417"/>
<path transform="matrix(1.00003,0,0,-1.00009,4.2885668,47.609205)" stroke-width=".3985" stroke-linecap="butt" stroke-miterlimit="10" stroke-linejoin="miter" fill="none" stroke="#000000" d="M73.00551 15.2426 97.0754 27.27759"/>
<path transform="matrix(1.00003,0,0,-1.00009,4.2885668,47.609205)" stroke-width=".3985" stroke-linecap="butt" stroke-miterlimit="10" stroke-linejoin="miter" fill="none" stroke="#000000" d="M72.55777 26.65607 97.52312 1.69072"/>
</svg>
