<svg xmlns="http://www.w3.org/2000/svg" xmlns:xlink="http://www.w3.org/1999/xlink" xmlns:inkscape="http://www.inkscape.org/namespaces/inkscape" version="1.1" width="210" height="46" viewBox="0 0 210 46">
<defs>
<path id="font_1_1" d="M.46798707 .37236024C.46798707 .42637635 .44198609 .4423828 .42399598 .4423828 .39898683 .4423828 .375 .41636659 .375 .3943634 .375 .38136292 .37998963 .3753662 .3909912 .36434938 .4119873 .3443451 .4249878 .31834413 .4249878 .28233338 .4249878 .24032593 .3639984 .011245728 .24699402 .011245728 .19599915 .011245728 .17298889 .04626465 .17298889 .09828186 .17298889 .15429688 .19999695 .22731018 .23098755 .31033326 .23799134 .3273468 .24299622 .34135438 .24299622 .36035157 .24299622 .405365 .21099854 .4423828 .16099549 .4423828 .066986087 .4423828 .0289917 .29733277 .0289917 .28833009 .0289917 .27833558 .038986207 .27833558 .040985109 .27833558 .050994874 .27833558 .051986696 .28033448 .056991579 .29634095 .085998538 .39736939 .1289978 .42037965 .1579895 .42037965 .1659851 .42037965 .18299866 .42037965 .18299866 .3883667 .18299866 .36335755 .17298889 .3363495 .1659851 .31834413 .12199402 .20230103 .10899353 .15629578 .10899353 .11328125 .10899353 .0052490236 .19699097-.0107421879 .24299622-.0107421879 .41099549-.0107421879 .46798707 .32034303 .46798707 .37236024Z"/>
<path id="font_1_2" d="M.46199037 .33935548C.46699525 .36135865 .47698976 .3983612 .47698976 .40437318 .47698976 .42237855 .46299745 .43138124 .44799806 .43138124 .43598939 .43138124 .41799928 .42337037 .41099549 .4033661 .4079895 .3963623 .36099244 .205307 .35398866 .17930603 .34700013 .14929199 .34498597 .13128662 .34498597 .11328125 .34498597 .10227966 .34498597 .10028076 .34599305 .09527588 .32299806 .042266847 .29299928 .011245728 .2539978 .011245728 .17399597 .011245728 .17399597 .08526611 .17399597 .10227966 .17399597 .1342926 .1789856 .17329407 .22599793 .29634095 .23699951 .32633973 .24299622 .3403473 .24299622 .36035157 .24299622 .405365 .20999146 .4423828 .16099549 .4423828 .06599426 .4423828 .0289917 .29733277 .0289917 .28833009 .0289917 .27833558 .038986207 .27833558 .040985109 .27833558 .050994874 .27833558 .051986696 .28033448 .056991579 .29634095 .083999637 .38935853 .12298584 .42037965 .1579895 .42037965 .16699219 .42037965 .18299866 .41937257 .18299866 .38735963 .18299866 .36235047 .17199707 .3343506 .16499329 .31733705 .12098694 .1993103 .10899353 .1532898 .10899353 .11528015 .10899353 .024261475 .17599488-.0107421879 .25099183-.0107421879 .2679901-.0107421879 .31498719-.0107421879 .35499574 .059265138 .3809967-.0047454836 .44999696-.0107421879 .47999574-.0107421879 .5549927-.0107421879 .598999 .052261354 .625 .11227417 .6589966 .19030762 .69099429 .32434083 .69099429 .37236024 .69099429 .42736817 .6639862 .4423828 .6469879 .4423828 .621994 .4423828 .5970001 .41636659 .5970001 .3943634 .5970001 .38136292 .6029968 .3753662 .6119995 .36735536 .6230011 .35635377 .647995 .33035279 .647995 .28233338 .647995 .24832154 .61898806 .15029907 .59298709 .09927368 .5669861 .04626465 .5319977 .011245728 .48298646 .011245728 .43598939 .011245728 .40899659 .041259767 .40899659 .09828186 .40899659 .12628174 .41600038 .1572876 .41999818 .17129517L.46199037 .33935548Z"/>
</defs>
<path transform="matrix(1.00005,0,0,-1,5.6483309,22.416)" stroke-width=".3985" stroke-linecap="butt" stroke-miterlimit="10" stroke-linejoin="miter" fill="none" stroke="#000000" d=""/>
<path transform="matrix(1.00005,0,0,-1,5.6483309,22.416)" d="M3.35294 0C3.35294 1.85179 1.85179 3.35294 0 3.35294-1.85179 3.35294-3.35294 1.85179-3.35294 0-3.35294-1.85179-1.85179-3.35294 0-3.35294 1.85179-3.35294 3.35294-1.85179 3.35294 0ZM0 0" fill="#ff0000"/>
<path transform="matrix(1.00005,0,0,-1,5.6483309,22.416)" stroke-width=".79701" stroke-linecap="butt" stroke-miterlimit="10" stroke-linejoin="miter" fill="none" stroke="#000000" d="M3.35294 0C3.35294 1.85179 1.85179 3.35294 0 3.35294-1.85179 3.35294-3.35294 1.85179-3.35294 0-3.35294-1.85179-1.85179-3.35294 0-3.35294 1.85179-3.35294 3.35294-1.85179 3.35294 0ZM0 0"/>
<use data-text="v" xlink:href="#font_1_1" transform="matrix(9.963098,0,0,-9.9626,3.0551987,24.561)"/>
<path transform="matrix(1.00005,0,0,-1,5.6483309,22.416)" stroke-width=".3985" stroke-linecap="butt" stroke-miterlimit="10" stroke-linejoin="miter" fill="none" stroke="#000000" d=""/>
<path transform="matrix(1.00005,0,0,-1,5.6483309,22.416)" d="M31.75677 12.75595C31.75677 13.85643 30.86469 14.7485 29.76422 14.7485 28.66374 14.7485 27.77167 13.85643 27.77167 12.75595 27.77167 11.65549 28.66374 10.7634 29.76422 10.7634 30.86469 10.7634 31.75677 11.65549 31.75677 12.75595ZM29.76422 12.75595" fill="#ff0000"/>
<path transform="matrix(1.00005,0,0,-1,5.6483309,22.416)" stroke-width=".79701" stroke-linecap="butt" stroke-miterlimit="10" stroke-linejoin="miter" fill="none" stroke="#000000" d="M31.75677 12.75595C31.75677 13.85643 30.86469 14.7485 29.76422 14.7485 28.66374 14.7485 27.77167 13.85643 27.77167 12.75595 27.77167 11.65549 28.66374 10.7634 29.76422 10.7634 30.86469 10.7634 31.75677 11.65549 31.75677 12.75595ZM29.76422 12.75595"/>
<path transform="matrix(1.00005,0,0,-1,5.6483309,22.416)" stroke-width=".3985" stroke-linecap="butt" stroke-miterlimit="10" stroke-linejoin="miter" fill="none" stroke="#000000" d=""/>
<path transform="matrix(1.00005,0,0,-1,5.6483309,22.416)" d="M58.68617 18.42546C58.68617 19.52592 57.79408 20.41801 56.69362 20.41801 55.59314 20.41801 54.70107 19.52592 54.70107 18.42546 54.70107 17.32498 55.59314 16.4329 56.69362 16.4329 57.79408 16.4329 58.68617 17.32498 58.68617 18.42546ZM56.69362 18.42546" fill="#ff0000"/>
<path transform="matrix(1.00005,0,0,-1,5.6483309,22.416)" stroke-width=".79701" stroke-linecap="butt" stroke-miterlimit="10" stroke-linejoin="miter" fill="none" stroke="#000000" d="M58.68617 18.42546C58.68617 19.52592 57.79408 20.41801 56.69362 20.41801 55.59314 20.41801 54.70107 19.52592 54.70107 18.42546 54.70107 17.32498 55.59314 16.4329 56.69362 16.4329 57.79408 16.4329 58.68617 17.32498 58.68617 18.42546ZM56.69362 18.42546"/>
<path transform="matrix(1.00005,0,0,-1,5.6483309,22.416)" stroke-width=".3985" stroke-linecap="butt" stroke-miterlimit="10" stroke-linejoin="miter" fill="none" stroke="#000000" d=""/>
<path transform="matrix(1.00005,0,0,-1,5.6483309,22.416)" d="M89.30719 0C89.30719 2.35648 87.39691 4.26677 85.04042 4.26677 82.68393 4.26677 80.77365 2.35648 80.77365 0 80.77365-2.35648 82.68393-4.26677 85.04042-4.26677 87.39691-4.26677 89.30719-2.35648 89.30719 0ZM85.04042 0" fill="#ff0000"/>
<path transform="matrix(1.00005,0,0,-1,5.6483309,22.416)" stroke-width=".79701" stroke-linecap="butt" stroke-miterlimit="10" stroke-linejoin="miter" fill="none" stroke="#000000" d="M89.30719 0C89.30719 2.35648 87.39691 4.26677 85.04042 4.26677 82.68393 4.26677 80.77365 2.35648 80.77365 0 80.77365-2.35648 82.68393-4.26677 85.04042-4.26677 87.39691-4.26677 89.30719-2.35648 89.30719 0ZM85.04042 0"/>
<use data-text="w" xlink:href="#font_1_2" transform="matrix(9.963098,0,0,-9.9626,86.99239,24.561)"/>
<path transform="matrix(1.00005,0,0,-1,5.6483309,22.416)" stroke-width=".3985" stroke-linecap="butt" stroke-miterlimit="10" stroke-linejoin="miter" fill="none" stroke="#000000" d=""/>
<path transform="matrix(1.00005,0,0,-1,5.6483309,22.416)" d="M74.277-14.17339C74.277-13.07292 73.38492-12.18083 72.28444-12.18083 71.18398-12.18083 70.29189-13.07292 70.29189-14.17339 70.29189-15.27386 71.18398-16.16594 72.28444-16.16594 73.38492-16.16594 74.277-15.27386 74.277-14.17339ZM72.28444-14.17339" fill="#ff0000"/>
<path transform="matrix(1.00005,0,0,-1,5.6483309,22.416)" stroke-width=".79701" stroke-linecap="butt" stroke-miterlimit="10" stroke-linejoin="miter" fill="none" stroke="#000000" d="M74.277-14.17339C74.277-13.07292 73.38492-12.18083 72.28444-12.18083 71.18398-12.18083 70.29189-13.07292 70.29189-14.17339 70.29189-15.27386 71.18398-16.16594 72.28444-16.16594 73.38492-16.16594 74.277-15.27386 74.277-14.17339ZM72.28444-14.17339"/>
<path transform="matrix(1.00005,0,0,-1,5.6483309,22.416)" stroke-width=".3985" stroke-linecap="butt" stroke-miterlimit="10" stroke-linejoin="miter" fill="none" stroke="#000000" d=""/>
<path transform="matrix(1.00005,0,0,-1,5.6483309,22.416)" d="M50.18202-19.84267C50.18202-18.74219 49.28995-17.85011 48.18947-17.85011 47.089-17.85011 46.19691-18.74219 46.19691-19.84267 46.19691-20.94313 47.089-21.83522 48.18947-21.83522 49.28995-21.83522 50.18202-20.94313 50.18202-19.84267ZM48.18947-19.84267" fill="#ff0000"/>
<path transform="matrix(1.00005,0,0,-1,5.6483309,22.416)" stroke-width=".79701" stroke-linecap="butt" stroke-miterlimit="10" stroke-linejoin="miter" fill="none" stroke="#000000" d="M50.18202-19.84267C50.18202-18.74219 49.28995-17.85011 48.18947-17.85011 47.089-17.85011 46.19691-18.74219 46.19691-19.84267 46.19691-20.94313 47.089-21.83522 48.18947-21.83522 49.28995-21.83522 50.18202-20.94313 50.18202-19.84267ZM48.18947-19.84267"/>
<path transform="matrix(1.00005,0,0,-1,5.6483309,22.416)" stroke-width=".3985" stroke-linecap="butt" stroke-miterlimit="10" stroke-linejoin="miter" fill="none" stroke="#000000" d=""/>
<path transform="matrix(1.00005,0,0,-1,5.6483309,22.416)" d="M9.07924-11.33876C9.07924-10.23828 8.18715-9.3462 7.08669-9.3462 5.9862-9.3462 5.09413-10.23828 5.09413-11.33876 5.09413-12.43922 5.9862-13.33131 7.08669-13.33131 8.18715-13.33131 9.07924-12.43922 9.07924-11.33876ZM7.08669-11.33876" fill="#ff0000"/>
<path transform="matrix(1.00005,0,0,-1,5.6483309,22.416)" stroke-width=".79701" stroke-linecap="butt" stroke-miterlimit="10" stroke-linejoin="miter" fill="none" stroke="#000000" d="M9.07924-11.33876C9.07924-10.23828 8.18715-9.3462 7.08669-9.3462 5.9862-9.3462 5.09413-10.23828 5.09413-11.33876 5.09413-12.43922 5.9862-13.33131 7.08669-13.33131 8.18715-13.33131 9.07924-12.43922 9.07924-11.33876ZM7.08669-11.33876"/>
<path transform="matrix(1.00005,0,0,-1,5.6483309,22.416)" stroke-width=".3985" stroke-linecap="butt" stroke-dasharray="2.98883,2.98883" stroke-miterlimit="10" stroke-linejoin="miter" fill="none" stroke="#ff0000" d="M3.448 1.47765 27.56657 11.81415M32.10394 13.24854 54.3539 17.93289M58.69833 17.12234 81.12895 2.54248"/>
<path transform="matrix(1.00005,0,0,-1,5.6483309,22.416)" stroke-width=".3985" stroke-linecap="butt" stroke-dasharray=".3985,1.99255" stroke-miterlimit="10" stroke-linejoin="miter" fill="none" stroke="#0000ff" d="M81.91962-3.46754 73.88391-12.3962M69.95705-14.72095 50.51686-19.2951M45.84811-19.35826 9.42804-11.82315M5.81947-9.31116 1.9882-3.18118"/>
<path transform="matrix(1.00005,0,0,-1,5.6483309,22.416)" stroke-width=".3985" stroke-linecap="butt" stroke-miterlimit="10" stroke-linejoin="miter" fill="none" stroke="#000000" d=""/>
<path transform="matrix(1.00005,0,0,-1,5.6483309,22.416)" d="M116.74022 0C116.74022 1.85179 115.23907 3.35294 113.38728 3.35294 111.53548 3.35294 110.03433 1.85179 110.03433 0 110.03433-1.85179 111.53548-3.35294 113.38728-3.35294 115.23907-3.35294 116.74022-1.85179 116.74022 0ZM113.38728 0" fill="#ff0000"/>
<path transform="matrix(1.00005,0,0,-1,5.6483309,22.416)" stroke-width=".79701" stroke-linecap="butt" stroke-miterlimit="10" stroke-linejoin="miter" fill="none" stroke="#000000" d="M116.74022 0C116.74022 1.85179 115.23907 3.35294 113.38728 3.35294 111.53548 3.35294 110.03433 1.85179 110.03433 0 110.03433-1.85179 111.53548-3.35294 113.38728-3.35294 115.23907-3.35294 116.74022-1.85179 116.74022 0ZM113.38728 0"/>
<use data-text="v" xlink:href="#font_1_1" transform="matrix(9.963098,0,0,-9.9626,116.44786,24.561)"/>
<path transform="matrix(1.00005,0,0,-1,5.6483309,22.416)" stroke-width=".3985" stroke-linecap="butt" stroke-miterlimit="10" stroke-linejoin="miter" fill="none" stroke="#000000" d=""/>
<path transform="matrix(1.00005,0,0,-1,5.6483309,22.416)" d="M122.46652 7.08669C122.46652 8.18715 121.57443 9.07924 120.47397 9.07924 119.3735 9.07924 118.48141 8.18715 118.48141 7.08669 118.48141 5.9862 119.3735 5.09413 120.47397 5.09413 121.57443 5.09413 122.46652 5.9862 122.46652 7.08669ZM120.47397 7.08669" fill="#ff0000"/>
<path transform="matrix(1.00005,0,0,-1,5.6483309,22.416)" stroke-width=".79701" stroke-linecap="butt" stroke-miterlimit="10" stroke-linejoin="miter" fill="none" stroke="#000000" d="M122.46652 7.08669C122.46652 8.18715 121.57443 9.07924 120.47397 9.07924 119.3735 9.07924 118.48141 8.18715 118.48141 7.08669 118.48141 5.9862 119.3735 5.09413 120.47397 5.09413 121.57443 5.09413 122.46652 5.9862 122.46652 7.08669ZM120.47397 7.08669"/>
<path transform="matrix(1.00005,0,0,-1,5.6483309,22.416)" stroke-width=".3985" stroke-linecap="butt" stroke-miterlimit="10" stroke-linejoin="miter" fill="none" stroke="#000000" d=""/>
<path transform="matrix(1.00005,0,0,-1,5.6483309,22.416)" d="M150.81334 14.17339C150.81334 15.27386 149.92125 16.16594 148.82079 16.16594 147.7203 16.16594 146.82823 15.27386 146.82823 14.17339 146.82823 13.07292 147.7203 12.18083 148.82079 12.18083 149.92125 12.18083 150.81334 13.07292 150.81334 14.17339ZM148.82079 14.17339" fill="#ff0000"/>
<path transform="matrix(1.00005,0,0,-1,5.6483309,22.416)" stroke-width=".79701" stroke-linecap="butt" stroke-miterlimit="10" stroke-linejoin="miter" fill="none" stroke="#000000" d="M150.81334 14.17339C150.81334 15.27386 149.92125 16.16594 148.82079 16.16594 147.7203 16.16594 146.82823 15.27386 146.82823 14.17339 146.82823 13.07292 147.7203 12.18083 148.82079 12.18083 149.92125 12.18083 150.81334 13.07292 150.81334 14.17339ZM148.82079 14.17339"/>
<path transform="matrix(1.00005,0,0,-1,5.6483309,22.416)" stroke-width=".3985" stroke-linecap="butt" stroke-miterlimit="10" stroke-linejoin="miter" fill="none" stroke="#000000" d=""/>
<path transform="matrix(1.00005,0,0,-1,5.6483309,22.416)" d="M177.74272 4.25204C177.74272 5.35252 176.85065 6.2446 175.75017 6.2446 174.6497 6.2446 173.75762 5.35252 173.75762 4.25204 173.75762 3.15158 174.6497 2.25949 175.75017 2.25949 176.85065 2.25949 177.74272 3.15158 177.74272 4.25204ZM175.75017 4.25204" fill="#ff0000"/>
<path transform="matrix(1.00005,0,0,-1,5.6483309,22.416)" stroke-width=".79701" stroke-linecap="butt" stroke-miterlimit="10" stroke-linejoin="miter" fill="none" stroke="#000000" d="M177.74272 4.25204C177.74272 5.35252 176.85065 6.2446 175.75017 6.2446 174.6497 6.2446 173.75762 5.35252 173.75762 4.25204 173.75762 3.15158 174.6497 2.25949 175.75017 2.25949 176.85065 2.25949 177.74272 3.15158 177.74272 4.25204ZM175.75017 4.25204"/>
<path transform="matrix(1.00005,0,0,-1,5.6483309,22.416)" stroke-width=".3985" stroke-linecap="butt" stroke-miterlimit="10" stroke-linejoin="miter" fill="none" stroke="#000000" d=""/>
<path transform="matrix(1.00005,0,0,-1,5.6483309,22.416)" d="M193.33356 11.33876C193.33356 12.43922 192.44147 13.33131 191.341 13.33131 190.24053 13.33131 189.34845 12.43922 189.34845 11.33876 189.34845 10.23828 190.24053 9.3462 191.341 9.3462 192.44147 9.3462 193.33356 10.23828 193.33356 11.33876ZM191.341 11.33876" fill="#ff0000"/>
<path transform="matrix(1.00005,0,0,-1,5.6483309,22.416)" stroke-width=".79701" stroke-linecap="butt" stroke-miterlimit="10" stroke-linejoin="miter" fill="none" stroke="#000000" d="M193.33356 11.33876C193.33356 12.43922 192.44147 13.33131 191.341 13.33131 190.24053 13.33131 189.34845 12.43922 189.34845 11.33876 189.34845 10.23828 190.24053 9.3462 191.341 9.3462 192.44147 9.3462 193.33356 10.23828 193.33356 11.33876ZM191.341 11.33876"/>
<path transform="matrix(1.00005,0,0,-1,5.6483309,22.416)" stroke-width=".3985" stroke-linecap="butt" stroke-miterlimit="10" stroke-linejoin="miter" fill="none" stroke="#000000" d=""/>
<path transform="matrix(1.00005,0,0,-1,5.6483309,22.416)" d="M202.69448 0C202.69448 2.35648 200.7842 4.26677 198.4277 4.26677 196.07122 4.26677 194.16094 2.35648 194.16094 0 194.16094-2.35648 196.07122-4.26677 198.4277-4.26677 200.7842-4.26677 202.69448-2.35648 202.69448 0ZM198.4277 0" fill="#ff0000"/>
<path transform="matrix(1.00005,0,0,-1,5.6483309,22.416)" stroke-width=".79701" stroke-linecap="butt" stroke-miterlimit="10" stroke-linejoin="miter" fill="none" stroke="#000000" d="M202.69448 0C202.69448 2.35648 200.7842 4.26677 198.4277 4.26677 196.07122 4.26677 194.16094 2.35648 194.16094 0 194.16094-2.35648 196.07122-4.26677 198.4277-4.26677 200.7842-4.26677 202.69448-2.35648 202.69448 0ZM198.4277 0"/>
<use data-text="w" xlink:href="#font_1_2" transform="matrix(9.963098,0,0,-9.9626,200.38506,24.561)"/>
<path transform="matrix(1.00005,0,0,-1,5.6483309,22.416)" stroke-width=".3985" stroke-linecap="butt" stroke-miterlimit="10" stroke-linejoin="miter" fill="none" stroke="#000000" d=""/>
<path transform="matrix(1.00005,0,0,-1,5.6483309,22.416)" d="M143.72664-4.25204C143.72664-3.15158 142.83457-2.25949 141.73409-2.25949 140.63362-2.25949 139.74153-3.15158 139.74153-4.25204 139.74153-5.35252 140.63362-6.2446 141.73409-6.2446 142.83457-6.2446 143.72664-5.35252 143.72664-4.25204ZM141.73409-4.25204" fill="#ff0000"/>
<path transform="matrix(1.00005,0,0,-1,5.6483309,22.416)" stroke-width=".79701" stroke-linecap="butt" stroke-miterlimit="10" stroke-linejoin="miter" fill="none" stroke="#000000" d="M143.72664-4.25204C143.72664-3.15158 142.83457-2.25949 141.73409-2.25949 140.63362-2.25949 139.74153-3.15158 139.74153-4.25204 139.74153-5.35252 140.63362-6.2446 141.73409-6.2446 142.83457-6.2446 143.72664-5.35252 143.72664-4.25204ZM141.73409-4.25204"/>
<path transform="matrix(1.00005,0,0,-1,5.6483309,22.416)" stroke-width=".3985" stroke-linecap="butt" stroke-miterlimit="10" stroke-linejoin="miter" fill="none" stroke="#000000" d=""/>
<path transform="matrix(1.00005,0,0,-1,5.6483309,22.416)" d="M149.39592-14.17339C149.39592-13.07292 148.50383-12.18083 147.40337-12.18083 146.30289-12.18083 145.41082-13.07292 145.41082-14.17339 145.41082-15.27386 146.30289-16.16594 147.40337-16.16594 148.50383-16.16594 149.39592-15.27386 149.39592-14.17339ZM147.40337-14.17339" fill="#ff0000"/>
<path transform="matrix(1.00005,0,0,-1,5.6483309,22.416)" stroke-width=".79701" stroke-linecap="butt" stroke-miterlimit="10" stroke-linejoin="miter" fill="none" stroke="#000000" d="M149.39592-14.17339C149.39592-13.07292 148.50383-12.18083 147.40337-12.18083 146.30289-12.18083 145.41082-13.07292 145.41082-14.17339 145.41082-15.27386 146.30289-16.16594 147.40337-16.16594 148.50383-16.16594 149.39592-15.27386 149.39592-14.17339ZM147.40337-14.17339"/>
<path transform="matrix(1.00005,0,0,-1,5.6483309,22.416)" stroke-width=".3985" stroke-linecap="butt" stroke-miterlimit="10" stroke-linejoin="miter" fill="none" stroke="#000000" d=""/>
<path transform="matrix(1.00005,0,0,-1,5.6483309,22.416)" d="M139.47458-11.33876C139.47458-10.23828 138.58249-9.3462 137.48203-9.3462 136.38155-9.3462 135.48947-10.23828 135.48947-11.33876 135.48947-12.43922 136.38155-13.33131 137.48203-13.33131 138.58249-13.33131 139.47458-12.43922 139.47458-11.33876ZM137.48203-11.33876" fill="#ff0000"/>
<path transform="matrix(1.00005,0,0,-1,5.6483309,22.416)" stroke-width=".79701" stroke-linecap="butt" stroke-miterlimit="10" stroke-linejoin="miter" fill="none" stroke="#000000" d="M139.47458-11.33876C139.47458-10.23828 138.58249-9.3462 137.48203-9.3462 136.38155-9.3462 135.48947-10.23828 135.48947-11.33876 135.48947-12.43922 136.38155-13.33131 137.48203-13.33131 138.58249-13.33131 139.47458-12.43922 139.47458-11.33876ZM137.48203-11.33876"/>
<path transform="matrix(1.00005,0,0,-1,5.6483309,22.416)" stroke-width=".3985" stroke-linecap="butt" stroke-miterlimit="10" stroke-linejoin="miter" fill="none" stroke="#000000" d=""/>
<path transform="matrix(1.00005,0,0,-1,5.6483309,22.416)" d="M197.5856-9.92133C197.5856-8.82085 196.69353-7.92877 195.59305-7.92877 194.49259-7.92877 193.6005-8.82085 193.6005-9.92133 193.6005-11.02179 194.49259-11.91388 195.59305-11.91388 196.69353-11.91388 197.5856-11.02179 197.5856-9.92133ZM195.59305-9.92133" fill="#ff0000"/>
<path transform="matrix(1.00005,0,0,-1,5.6483309,22.416)" stroke-width=".79701" stroke-linecap="butt" stroke-miterlimit="10" stroke-linejoin="miter" fill="none" stroke="#000000" d="M197.5856-9.92133C197.5856-8.82085 196.69353-7.92877 195.59305-7.92877 194.49259-7.92877 193.6005-8.82085 193.6005-9.92133 193.6005-11.02179 194.49259-11.91388 195.59305-11.91388 196.69353-11.91388 197.5856-11.02179 197.5856-9.92133ZM195.59305-9.92133"/>
<path transform="matrix(1.00005,0,0,-1,5.6483309,22.416)" stroke-width=".3985" stroke-linecap="butt" stroke-dasharray="2.98883,2.98883" stroke-miterlimit="10" stroke-linejoin="miter" fill="none" stroke="#ff0000" d="M116.03995 2.65266 118.78323 5.39595M122.79362 7.66653 146.50113 13.59354M151.06432 13.34685 173.50664 5.0786M177.92676 5.2414 189.16437 10.34944M192.6082 9.31116 195.9552 3.9561"/>
<path transform="matrix(1.00005,0,0,-1,5.6483309,22.416)" stroke-width=".3985" stroke-linecap="butt" stroke-dasharray=".3985,1.99255" stroke-miterlimit="10" stroke-linejoin="miter" fill="none" stroke="#0000ff" d="M116.03995 2.65266 118.78323 5.39595M122.58365 5.96153 139.6244-3.1269M142.92028-6.32799 146.21714-12.0975M145.1044-13.51656 139.781-11.99554M138.71219-9.28851 140.5039-6.30229M144.05374-3.6722 173.43051 3.6722M177.69576 2.86238 193.64748-8.53166M196.24985-7.62233 197.14615-4.48558"/>
</svg>
