<svg xmlns="http://www.w3.org/2000/svg" xmlns:xlink="http://www.w3.org/1999/xlink" xmlns:inkscape="http://www.inkscape.org/namespaces/inkscape" version="1.1" width="165" height="95" viewBox="0 0 165 95">
<defs>
<path id="font_1_42" d="M.6649933 .23271179C.6649933 .24272156 .6649933 .24972534 .6519928 .24972534 .6409912 .24972534 .6409912 .24372864 .6399994 .23371887 .6319885 .09059143 .5249939 .008529663 .41600038 .008529663 .35499574 .008529663 .15899658 .042556764 .15899658 .34080506 .15899658 .64004519 .35398866 .67407229 .4149933 .67407229 .5239868 .67407229 .61299136 .58299258 .6329956 .4368744 .6349945 .42286683 .6349945 .41986085 .6489868 .41986085 .6649933 .41986085 .6649933 .42286683 .6649933 .44387818V.68107607C.6649933 .69807437 .6649933 .7050781 .6539917 .7050781 .6499939 .7050781 .6459961 .7050781 .6380005 .69306948L.58799746 .61901858C.5509949 .6550598 .5 .7050781 .4039917 .7050781 .21699524 .7050781 .055999757 .5459595 .055999757 .34179688 .055999757 .1346283 .21798706-.022460938 .4039917-.022460938 .5669861-.022460938 .6649933 .116622928 .6649933 .23271179Z"/>
</defs>
<path transform="matrix(1.00002,0,0,-1.00005,4.8138048,4.541628)" stroke-width=".3985" stroke-linecap="butt" stroke-miterlimit="10" stroke-linejoin="miter" fill="none" stroke="#000000" d=""/>
<use data-text="C" xlink:href="#font_1_42" transform="matrix(9.962799,0,0,-9.963098,43.738584,7.943798)"/>
<path transform="matrix(1.00002,0,0,-1.00005,4.8138048,4.541628)" stroke-width=".3985" stroke-linecap="butt" stroke-miterlimit="10" stroke-linejoin="miter" fill="none" stroke="#000000" d=""/>
<use data-text="C" xlink:href="#font_1_42" transform="matrix(9.962799,0,0,-9.963098,57.91187,7.943798)"/>
<path transform="matrix(1.00002,0,0,-1.00005,4.8138048,4.541628)" stroke-width=".3985" stroke-linecap="butt" stroke-miterlimit="10" stroke-linejoin="miter" fill="none" stroke="#000000" d=""/>
<use data-text="C" xlink:href="#font_1_42" transform="matrix(9.962799,0,0,-9.963098,72.08515,7.943798)"/>
<path transform="matrix(1.00002,0,0,-1.00005,4.8138048,4.541628)" stroke-width=".3985" stroke-linecap="butt" stroke-miterlimit="10" stroke-linejoin="miter" fill="none" stroke="#000000" d=""/>
<use data-text="C" xlink:href="#font_1_42" transform="matrix(9.962799,0,0,-9.963098,86.25944,7.943798)"/>
<path transform="matrix(1.00002,0,0,-1.00005,4.8138048,4.541628)" stroke-width=".3985" stroke-linecap="butt" stroke-miterlimit="10" stroke-linejoin="miter" fill="none" stroke="#000000" d=""/>
<use data-text="C" xlink:href="#font_1_42" transform="matrix(9.962799,0,0,-9.963098,100.43272,7.943798)"/>
<path transform="matrix(1.00002,0,0,-1.00005,4.8138048,4.541628)" stroke-width=".3985" stroke-linecap="butt" stroke-miterlimit="10" stroke-linejoin="miter" fill="none" stroke="#000000" d=""/>
<use data-text="C" xlink:href="#font_1_42" transform="matrix(9.962799,0,0,-9.963098,114.607,7.943798)"/>
<path transform="matrix(1.00002,0,0,-1.00005,4.8138048,4.541628)" stroke-width=".3985" stroke-linecap="butt" stroke-miterlimit="10" stroke-linejoin="miter" fill="none" stroke="#000000" d="M49.6366 0H49.57722M63.81 0H63.75064M77.9834 0H77.92404M92.1568 0H92.09746M106.33022 0H106.27086"/>
<path transform="matrix(1.00002,0,0,-1.00005,4.8138048,4.541628)" stroke-width=".3985" stroke-linecap="butt" stroke-miterlimit="10" stroke-linejoin="miter" fill="none" stroke="#000000" d=""/>
<use data-text="C" xlink:href="#font_1_42" transform="matrix(9.962799,0,0,-9.963098,1.2167358,43.379568)"/>
<path transform="matrix(1.00002,0,0,-1.00005,4.8138048,4.541628)" stroke-width=".3985" stroke-linecap="butt" stroke-miterlimit="10" stroke-linejoin="miter" fill="none" stroke="#000000" d=""/>
<use data-text="C" xlink:href="#font_1_42" transform="matrix(9.962799,0,0,-9.963098,15.391014,43.379568)"/>
<path transform="matrix(1.00002,0,0,-1.00005,4.8138048,4.541628)" stroke-width=".3985" stroke-linecap="butt" stroke-miterlimit="10" stroke-linejoin="miter" fill="none" stroke="#000000" d=""/>
<use data-text="C" xlink:href="#font_1_42" transform="matrix(9.962799,0,0,-9.963098,29.5643,43.379568)"/>
<path transform="matrix(1.00002,0,0,-1.00005,4.8138048,4.541628)" stroke-width=".3985" stroke-linecap="butt" stroke-miterlimit="10" stroke-linejoin="miter" fill="none" stroke="#000000" d=""/>
<use data-text="C" xlink:href="#font_1_42" transform="matrix(9.962799,0,0,-9.963098,43.738584,43.379568)"/>
<path transform="matrix(1.00002,0,0,-1.00005,4.8138048,4.541628)" stroke-width=".3985" stroke-linecap="butt" stroke-miterlimit="10" stroke-linejoin="miter" fill="none" stroke="#000000" d=""/>
<use data-text="C" xlink:href="#font_1_42" transform="matrix(9.962799,0,0,-9.963098,57.91187,43.379568)"/>
<path transform="matrix(1.00002,0,0,-1.00005,4.8138048,4.541628)" stroke-width=".3985" stroke-linecap="butt" stroke-miterlimit="10" stroke-linejoin="miter" fill="none" stroke="#000000" d=""/>
<use data-text="C" xlink:href="#font_1_42" transform="matrix(9.962799,0,0,-9.963098,15.391014,29.20486)"/>
<path transform="matrix(1.00002,0,0,-1.00005,4.8138048,4.541628)" stroke-width=".3985" stroke-linecap="butt" stroke-miterlimit="10" stroke-linejoin="miter" fill="none" stroke="#000000" d="M7.11638-35.4335H7.057M21.28976-35.4335H21.23042M35.46318-35.4335H35.40382M49.63658-35.4335H49.57722"/>
<path transform="matrix(1.00002,0,0,-1.00005,4.8138048,4.541628)" stroke-width=".3985" stroke-linecap="butt" stroke-miterlimit="10" stroke-linejoin="miter" fill="none" stroke="#000000" d="M14.17339-28.29222V-28.4014"/>
<path transform="matrix(1.00002,0,0,-1.00005,4.8138048,4.541628)" stroke-width=".3985" stroke-linecap="butt" stroke-miterlimit="10" stroke-linejoin="miter" fill="none" stroke="#000000" d=""/>
<use data-text="C" xlink:href="#font_1_42" transform="matrix(9.962799,0,0,-9.963098,100.43272,43.379568)"/>
<path transform="matrix(1.00002,0,0,-1.00005,4.8138048,4.541628)" stroke-width=".3985" stroke-linecap="butt" stroke-miterlimit="10" stroke-linejoin="miter" fill="none" stroke="#000000" d=""/>
<use data-text="C" xlink:href="#font_1_42" transform="matrix(9.962799,0,0,-9.963098,114.607,43.379568)"/>
<path transform="matrix(1.00002,0,0,-1.00005,4.8138048,4.541628)" stroke-width=".3985" stroke-linecap="butt" stroke-miterlimit="10" stroke-linejoin="miter" fill="none" stroke="#000000" d=""/>
<use data-text="C" xlink:href="#font_1_42" transform="matrix(9.962799,0,0,-9.963098,128.78028,43.379568)"/>
<path transform="matrix(1.00002,0,0,-1.00005,4.8138048,4.541628)" stroke-width=".3985" stroke-linecap="butt" stroke-miterlimit="10" stroke-linejoin="miter" fill="none" stroke="#000000" d=""/>
<use data-text="C" xlink:href="#font_1_42" transform="matrix(9.962799,0,0,-9.963098,142.95456,43.379568)"/>
<path transform="matrix(1.00002,0,0,-1.00005,4.8138048,4.541628)" stroke-width=".3985" stroke-linecap="butt" stroke-miterlimit="10" stroke-linejoin="miter" fill="none" stroke="#000000" d=""/>
<use data-text="C" xlink:href="#font_1_42" transform="matrix(9.962799,0,0,-9.963098,157.12787,43.379568)"/>
<path transform="matrix(1.00002,0,0,-1.00005,4.8138048,4.541628)" stroke-width=".3985" stroke-linecap="butt" stroke-miterlimit="10" stroke-linejoin="miter" fill="none" stroke="#000000" d=""/>
<use data-text="C" xlink:href="#font_1_42" transform="matrix(9.962799,0,0,-9.963098,128.78028,29.20486)"/>
<path transform="matrix(1.00002,0,0,-1.00005,4.8138048,4.541628)" stroke-width=".3985" stroke-linecap="butt" stroke-miterlimit="10" stroke-linejoin="miter" fill="none" stroke="#000000" d="M106.33025-35.4335H106.27089M120.50365-35.4335H120.44429M134.67705-35.4335H134.61769M148.85045-35.4335H148.7911"/>
<path transform="matrix(1.00002,0,0,-1.00005,4.8138048,4.541628)" stroke-width=".3985" stroke-linecap="butt" stroke-miterlimit="10" stroke-linejoin="miter" fill="none" stroke="#000000" d="M127.56067-28.29222V-28.4014"/>
<path transform="matrix(1.00002,0,0,-1.00005,4.8138048,4.541628)" stroke-width=".3985" stroke-linecap="butt" stroke-miterlimit="10" stroke-linejoin="miter" fill="none" stroke="#000000" d=""/>
<use data-text="C" xlink:href="#font_1_42" transform="matrix(9.962799,0,0,-9.963098,1.2167358,78.81433)"/>
<path transform="matrix(1.00002,0,0,-1.00005,4.8138048,4.541628)" stroke-width=".3985" stroke-linecap="butt" stroke-miterlimit="10" stroke-linejoin="miter" fill="none" stroke="#000000" d=""/>
<use data-text="C" xlink:href="#font_1_42" transform="matrix(9.962799,0,0,-9.963098,15.391014,78.81433)"/>
<path transform="matrix(1.00002,0,0,-1.00005,4.8138048,4.541628)" stroke-width=".3985" stroke-linecap="butt" stroke-miterlimit="10" stroke-linejoin="miter" fill="none" stroke="#000000" d=""/>
<use data-text="C" xlink:href="#font_1_42" transform="matrix(9.962799,0,0,-9.963098,29.5643,78.81433)"/>
<path transform="matrix(1.00002,0,0,-1.00005,4.8138048,4.541628)" stroke-width=".3985" stroke-linecap="butt" stroke-miterlimit="10" stroke-linejoin="miter" fill="none" stroke="#000000" d=""/>
<use data-text="C" xlink:href="#font_1_42" transform="matrix(9.962799,0,0,-9.963098,43.738584,78.81433)"/>
<path transform="matrix(1.00002,0,0,-1.00005,4.8138048,4.541628)" stroke-width=".3985" stroke-linecap="butt" stroke-miterlimit="10" stroke-linejoin="miter" fill="none" stroke="#000000" d=""/>
<use data-text="C" xlink:href="#font_1_42" transform="matrix(9.962799,0,0,-9.963098,15.391014,64.640628)"/>
<path transform="matrix(1.00002,0,0,-1.00005,4.8138048,4.541628)" stroke-width=".3985" stroke-linecap="butt" stroke-miterlimit="10" stroke-linejoin="miter" fill="none" stroke="#000000" d=""/>
<use data-text="C" xlink:href="#font_1_42" transform="matrix(9.962799,0,0,-9.963098,29.5643,64.640628)"/>
<path transform="matrix(1.00002,0,0,-1.00005,4.8138048,4.541628)" stroke-width=".3985" stroke-linecap="butt" stroke-miterlimit="10" stroke-linejoin="miter" fill="none" stroke="#000000" d="M7.11638-70.86703H7.057M21.28976-70.86703H21.23042M35.46318-70.86703H35.40382"/>
<path transform="matrix(1.00002,0,0,-1.00005,4.8138048,4.541628)" stroke-width=".3985" stroke-linecap="butt" stroke-miterlimit="10" stroke-linejoin="miter" fill="none" stroke="#000000" d="M14.17339-63.72575V-63.83493"/>
<path transform="matrix(1.00002,0,0,-1.00005,4.8138048,4.541628)" stroke-width=".3985" stroke-linecap="butt" stroke-miterlimit="10" stroke-linejoin="miter" fill="none" stroke="#000000" d="M28.3468-63.72575V-63.83493"/>
<path transform="matrix(1.00002,0,0,-1.00005,4.8138048,4.541628)" stroke-width=".3985" stroke-linecap="butt" stroke-miterlimit="10" stroke-linejoin="miter" fill="none" stroke="#000000" d=""/>
<use data-text="C" xlink:href="#font_1_42" transform="matrix(9.962799,0,0,-9.963098,100.43272,78.81433)"/>
<path transform="matrix(1.00002,0,0,-1.00005,4.8138048,4.541628)" stroke-width=".3985" stroke-linecap="butt" stroke-miterlimit="10" stroke-linejoin="miter" fill="none" stroke="#000000" d=""/>
<use data-text="C" xlink:href="#font_1_42" transform="matrix(9.962799,0,0,-9.963098,114.607,78.81433)"/>
<path transform="matrix(1.00002,0,0,-1.00005,4.8138048,4.541628)" stroke-width=".3985" stroke-linecap="butt" stroke-miterlimit="10" stroke-linejoin="miter" fill="none" stroke="#000000" d=""/>
<use data-text="C" xlink:href="#font_1_42" transform="matrix(9.962799,0,0,-9.963098,128.78028,78.81433)"/>
<path transform="matrix(1.00002,0,0,-1.00005,4.8138048,4.541628)" stroke-width=".3985" stroke-linecap="butt" stroke-miterlimit="10" stroke-linejoin="miter" fill="none" stroke="#000000" d=""/>
<use data-text="C" xlink:href="#font_1_42" transform="matrix(9.962799,0,0,-9.963098,142.95456,78.81433)"/>
<path transform="matrix(1.00002,0,0,-1.00005,4.8138048,4.541628)" stroke-width=".3985" stroke-linecap="butt" stroke-miterlimit="10" stroke-linejoin="miter" fill="none" stroke="#000000" d=""/>
<use data-text="C" xlink:href="#font_1_42" transform="matrix(9.962799,0,0,-9.963098,114.607,64.640628)"/>
<path transform="matrix(1.00002,0,0,-1.00005,4.8138048,4.541628)" stroke-width=".3985" stroke-linecap="butt" stroke-miterlimit="10" stroke-linejoin="miter" fill="none" stroke="#000000" d=""/>
<use data-text="C" xlink:href="#font_1_42" transform="matrix(9.962799,0,0,-9.963098,114.607,92.989048)"/>
<path transform="matrix(1.00002,0,0,-1.00005,4.8138048,4.541628)" stroke-width=".3985" stroke-linecap="butt" stroke-miterlimit="10" stroke-linejoin="miter" fill="none" stroke="#000000" d="M106.33025-70.86703H106.27089M120.50365-70.86703H120.44429M134.67705-70.86703H134.61769"/>
<path transform="matrix(1.00002,0,0,-1.00005,4.8138048,4.541628)" stroke-width=".3985" stroke-linecap="butt" stroke-miterlimit="10" stroke-linejoin="miter" fill="none" stroke="#000000" d="M113.38727-77.89915V-78.00832M113.38727-63.72575V-63.83493"/>
</svg>
