<svg xmlns="http://www.w3.org/2000/svg" xmlns:xlink="http://www.w3.org/1999/xlink" xmlns:inkscape="http://www.inkscape.org/namespaces/inkscape" version="1.1" width="207" height="106" viewBox="0 0 207 106">
<path transform="matrix(1,0,0,-1.00003,4.288002,95.61039)" d="M1.99255 28.3468C1.99255 29.44728 1.10046 30.33936 0 30.33936-1.10046 30.33936-1.99255 29.44728-1.99255 28.3468-1.99255 27.24634-1.10046 26.35425 0 26.35425 1.10046 26.35425 1.99255 27.24634 1.99255 28.3468ZM0 28.3468" fill="#ff0000"/>
<path transform="matrix(1,0,0,-1.00003,4.288002,95.61039)" stroke-width=".79701" stroke-linecap="butt" stroke-miterlimit="10" stroke-linejoin="miter" fill="none" stroke="#000000" d="M1.99255 28.3468C1.99255 29.44728 1.10046 30.33936 0 30.33936-1.10046 30.33936-1.99255 29.44728-1.99255 28.3468-1.99255 27.24634-1.10046 26.35425 0 26.35425 1.10046 26.35425 1.99255 27.24634 1.99255 28.3468ZM0 28.3468"/>
<path transform="matrix(1,0,0,-1.00003,4.288002,95.61039)" d="M1.99255 56.69362C1.99255 57.79408 1.10046 58.68617 0 58.68617-1.10046 58.68617-1.99255 57.79408-1.99255 56.69362-1.99255 55.59314-1.10046 54.70107 0 54.70107 1.10046 54.70107 1.99255 55.59314 1.99255 56.69362ZM0 56.69362" fill="#ff0000"/>
<path transform="matrix(1,0,0,-1.00003,4.288002,95.61039)" stroke-width=".79701" stroke-linecap="butt" stroke-miterlimit="10" stroke-linejoin="miter" fill="none" stroke="#000000" d="M1.99255 56.69362C1.99255 57.79408 1.10046 58.68617 0 58.68617-1.10046 58.68617-1.99255 57.79408-1.99255 56.69362-1.99255 55.59314-1.10046 54.70107 0 54.70107 1.10046 54.70107 1.99255 55.59314 1.99255 56.69362ZM0 56.69362"/>
<path transform="matrix(1,0,0,-1.00003,4.288002,95.61039)" d="M30.33936 85.04042C30.33936 86.1409 29.44728 87.03297 28.3468 87.03297 27.24634 87.03297 26.35425 86.1409 26.35425 85.04042 26.35425 83.93996 27.24634 83.04787 28.3468 83.04787 29.44728 83.04787 30.33936 83.93996 30.33936 85.04042ZM28.3468 85.04042" fill="#ff0000"/>
<path transform="matrix(1,0,0,-1.00003,4.288002,95.61039)" stroke-width=".79701" stroke-linecap="butt" stroke-miterlimit="10" stroke-linejoin="miter" fill="none" stroke="#000000" d="M30.33936 85.04042C30.33936 86.1409 29.44728 87.03297 28.3468 87.03297 27.24634 87.03297 26.35425 86.1409 26.35425 85.04042 26.35425 83.93996 27.24634 83.04787 28.3468 83.04787 29.44728 83.04787 30.33936 83.93996 30.33936 85.04042ZM28.3468 85.04042"/>
<path transform="matrix(1,0,0,-1.00003,4.288002,95.61039)" d="M58.68617 56.69362C58.68617 57.79408 57.79408 58.68617 56.69362 58.68617 55.59314 58.68617 54.70107 57.79408 54.70107 56.69362 54.70107 55.59314 55.59314 54.70107 56.69362 54.70107 57.79408 54.70107 58.68617 55.59314 58.68617 56.69362ZM56.69362 56.69362" fill="#ff0000"/>
<path transform="matrix(1,0,0,-1.00003,4.288002,95.61039)" stroke-width=".79701" stroke-linecap="butt" stroke-miterlimit="10" stroke-linejoin="miter" fill="none" stroke="#000000" d="M58.68617 56.69362C58.68617 57.79408 57.79408 58.68617 56.69362 58.68617 55.59314 58.68617 54.70107 57.79408 54.70107 56.69362 54.70107 55.59314 55.59314 54.70107 56.69362 54.70107 57.79408 54.70107 58.68617 55.59314 58.68617 56.69362ZM56.69362 56.69362"/>
<path transform="matrix(1,0,0,-1.00003,4.288002,95.61039)" d="M58.68617 28.3468C58.68617 29.44728 57.79408 30.33936 56.69362 30.33936 55.59314 30.33936 54.70107 29.44728 54.70107 28.3468 54.70107 27.24634 55.59314 26.35425 56.69362 26.35425 57.79408 26.35425 58.68617 27.24634 58.68617 28.3468ZM56.69362 28.3468" fill="#ff0000"/>
<path transform="matrix(1,0,0,-1.00003,4.288002,95.61039)" stroke-width=".79701" stroke-linecap="butt" stroke-miterlimit="10" stroke-linejoin="miter" fill="none" stroke="#000000" d="M58.68617 28.3468C58.68617 29.44728 57.79408 30.33936 56.69362 30.33936 55.59314 30.33936 54.70107 29.44728 54.70107 28.3468 54.70107 27.24634 55.59314 26.35425 56.69362 26.35425 57.79408 26.35425 58.68617 27.24634 58.68617 28.3468ZM56.69362 28.3468"/>
<path transform="matrix(1,0,0,-1.00003,4.288002,95.61039)" d="M30.33936 0C30.33936 1.10046 29.44728 1.99255 28.3468 1.99255 27.24634 1.99255 26.35425 1.10046 26.35425 0 26.35425-1.10046 27.24634-1.99255 28.3468-1.99255 29.44728-1.99255 30.33936-1.10046 30.33936 0ZM28.3468 0" fill="#ff0000"/>
<path transform="matrix(1,0,0,-1.00003,4.288002,95.61039)" stroke-width=".79701" stroke-linecap="butt" stroke-miterlimit="10" stroke-linejoin="miter" fill="none" stroke="#000000" d="M30.33936 0C30.33936 1.10046 29.44728 1.99255 28.3468 1.99255 27.24634 1.99255 26.35425 1.10046 26.35425 0 26.35425-1.10046 27.24634-1.99255 28.3468-1.99255 29.44728-1.99255 30.33936-1.10046 30.33936 0ZM28.3468 0"/>
<path transform="matrix(1,0,0,-1.00003,4.288002,95.61039)" stroke-width=".3985" stroke-linecap="butt" stroke-miterlimit="10" stroke-linejoin="miter" fill="none" stroke="#000000" d="M0 30.73785V54.30255M1.69072 58.38434 26.65607 83.34969M30.03754 83.34969 55.00288 58.38434M56.69362 54.30255V30.73785M55.00288 26.65607 30.03754 1.69072M26.65607 1.69072 1.69072 26.65607M2.39105 28.3468H54.30255M54.55515 29.41602 2.13846 55.62439M2.39105 56.69362H54.30255"/>
<path transform="matrix(1,0,0,-1.00003,4.288002,95.61039)" d="M143.72666 42.52022C143.72666 43.62068 142.83458 44.51277 141.7341 44.51277 140.63364 44.51277 139.74155 43.62068 139.74155 42.52022 139.74155 41.41974 140.63364 40.52766 141.7341 40.52766 142.83458 40.52766 143.72666 41.41974 143.72666 42.52022ZM141.7341 42.52022" fill="#ff0000"/>
<path transform="matrix(1,0,0,-1.00003,4.288002,95.61039)" stroke-width=".79701" stroke-linecap="butt" stroke-miterlimit="10" stroke-linejoin="miter" fill="none" stroke="#000000" d="M143.72666 42.52022C143.72666 43.62068 142.83458 44.51277 141.7341 44.51277 140.63364 44.51277 139.74155 43.62068 139.74155 42.52022 139.74155 41.41974 140.63364 40.52766 141.7341 40.52766 142.83458 40.52766 143.72666 41.41974 143.72666 42.52022ZM141.7341 42.52022"/>
<path transform="matrix(1,0,0,-1.00003,4.288002,95.61039)" d="M200.42028 42.52022C200.42028 43.62068 199.5282 44.51277 198.42772 44.51277 197.32726 44.51277 196.43517 43.62068 196.43517 42.52022 196.43517 41.41974 197.32726 40.52766 198.42772 40.52766 199.5282 40.52766 200.42028 41.41974 200.42028 42.52022ZM198.42772 42.52022" fill="#ff0000"/>
<path transform="matrix(1,0,0,-1.00003,4.288002,95.61039)" stroke-width=".79701" stroke-linecap="butt" stroke-miterlimit="10" stroke-linejoin="miter" fill="none" stroke="#000000" d="M200.42028 42.52022C200.42028 43.62068 199.5282 44.51277 198.42772 44.51277 197.32726 44.51277 196.43517 43.62068 196.43517 42.52022 196.43517 41.41974 197.32726 40.52766 198.42772 40.52766 199.5282 40.52766 200.42028 41.41974 200.42028 42.52022ZM198.42772 42.52022"/>
<path transform="matrix(1,0,0,-1.00003,4.288002,95.61039)" d="M115.37985 91.61845C115.37985 92.71893 114.48776 93.61101 113.3873 93.61101 112.28682 93.61101 111.39474 92.71893 111.39474 91.61845 111.39474 90.51799 112.28682 89.6259 113.3873 89.6259 114.48776 89.6259 115.37985 90.51799 115.37985 91.61845ZM113.3873 91.61845" fill="#ff0000"/>
<path transform="matrix(1,0,0,-1.00003,4.288002,95.61039)" stroke-width=".79701" stroke-linecap="butt" stroke-miterlimit="10" stroke-linejoin="miter" fill="none" stroke="#000000" d="M115.37985 91.61845C115.37985 92.71893 114.48776 93.61101 113.3873 93.61101 112.28682 93.61101 111.39474 92.71893 111.39474 91.61845 111.39474 90.51799 112.28682 89.6259 113.3873 89.6259 114.48776 89.6259 115.37985 90.51799 115.37985 91.61845ZM113.3873 91.61845"/>
<path transform="matrix(1,0,0,-1.00003,4.288002,95.61039)" d="M115.37985-6.578C115.37985-5.47754 114.48776-4.58545 113.3873-4.58545 112.28682-4.58545 111.39474-5.47754 111.39474-6.578 111.39474-7.67848 112.28682-8.57056 113.3873-8.57056 114.48776-8.57056 115.37985-7.67848 115.37985-6.578ZM113.3873-6.578" fill="#ff0000"/>
<path transform="matrix(1,0,0,-1.00003,4.288002,95.61039)" stroke-width=".79701" stroke-linecap="butt" stroke-miterlimit="10" stroke-linejoin="miter" fill="none" stroke="#000000" d="M115.37985-6.578C115.37985-5.47754 114.48776-4.58545 113.3873-4.58545 112.28682-4.58545 111.39474-5.47754 111.39474-6.578 111.39474-7.67848 112.28682-8.57056 113.3873-8.57056 114.48776-8.57056 115.37985-7.67848 115.37985-6.578ZM113.3873-6.578"/>
<path transform="matrix(1,0,0,-1.00003,4.288002,95.61039)" stroke-width=".3985" stroke-linecap="butt" stroke-miterlimit="10" stroke-linejoin="miter" fill="none" stroke="#000000" d="M144.12517 42.52022H196.03667M196.35704 43.7157 115.45796 90.42297M113.3873 89.2274V-4.18695M114.58278-4.50734 140.53862 40.44954M140.53862 44.5909 114.58278 89.54778"/>
<path transform="matrix(1,0,0,-1.00003,4.288002,95.61039)" stroke-width=".3985" stroke-linecap="butt" stroke-miterlimit="10" stroke-linejoin="miter" fill="none" stroke="#000000" d="M196.35704 41.32474 115.45796-5.38252"/>
</svg>
