<svg xmlns="http://www.w3.org/2000/svg" xmlns:xlink="http://www.w3.org/1999/xlink" xmlns:inkscape="http://www.inkscape.org/namespaces/inkscape" version="1.1" width="317" height="81" viewBox="0 0 317 81">
<defs>
<path id="font_1_3" d="M.5089874 .40376283C.5079956 .40675355 .5039978 .41474916 .5039978 .41775514 .5039978 .41874696 .5219879 .43273927 .5329895 .44073487L.70799258 .5756531C.8019867 .64460757 .84098818 .64860537 .87098696 .6516113 .8789978 .65260317 .8889923 .6536102 .8889923 .6716156 .8889923 .6756134 .8860016 .6826172 .8779907 .6826172 .85598757 .6826172 .83099368 .6796112 .8069916 .6796112 .7709961 .6796112 .7319946 .6826172 .69599917 .6826172 .68899539 .6826172 .6769867 .6826172 .6769867 .6626129 .6769867 .65560916 .6819916 .65260317 .68899539 .6516113 .71099856 .6496124 .7200012 .64460757 .7200012 .63061526 .7200012 .6126251 .6899872 .5896454 .6839905 .5846405L.2939911 .28483583 .37399293 .6056366C.3829956 .6416168 .3849945 .6516113 .45799256 .6516113 .48298646 .6516113 .49198915 .6516113 .49198915 .6716156 .49198915 .680603 .48399354 .6826172 .47799684 .6826172 .44999696 .6826172 .37799073 .6796112 .34999085 .6796112 .32099916 .6796112 .25 .6826172 .22099304 .6826172 .21398926 .6826172 .20098877 .6826172 .20098877 .66360476 .20098877 .6516113 .20999146 .6516113 .22999573 .6516113 .24299622 .6516113 .26098634 .65060427 .272995 .6496124 .2889862 .6476135 .29499818 .64460757 .29499818 .6336212 .29499818 .6296234 .2939911 .62661746 .29100038 .614624L.15699768 .07795715C.14698792 .038986207 .14498902 .0309906 .06599426 .0309906 .04899597 .0309906 .037994386 .0309906 .037994386 .011993408 .037994386 0 .049987794 0 .052993776 0 .08099365 0 .1519928 .0029907227 .17999268 .0029907227 .20098877 .0029907227 .22299195 .0019989014 .24398804 .0019989014 .2659912 .0019989014 .28799439 0 .30899049 0 .31599427 0 .32899476 0 .32899476 .019989014 .32899476 .0309906 .31999208 .0309906 .30099488 .0309906 .2639923 .0309906 .23599243 .0309906 .23599243 .048980714 .23599243 .05596924 .24198914 .07795715 .24499512 .09295654 .25898744 .14492798 .27198792 .19789124 .2849884 .24986267L.43399049 .3657837 .5499878 .096954349C.56199648 .06996155 .56199648 .06796265 .56199648 .061965944 .56199648 .03199768 .5189972 .0309906 .5099945 .0309906 .49899293 .0309906 .48799134 .0309906 .48799134 .010986328 .48799134 0 .5 0 .5019989 0 .5419922 0 .58399966 .0029907227 .6239929 .0029907227 .6459961 .0029907227 .69999697 0 .7220001 0 .72698977 0 .73999026 0 .73999026 .019989014 .73999026 .0309906 .72898867 .0309906 .7200012 .0309906 .67900088 .03199768 .66600039 .040985109 .651001 .07595825L.5089874 .40376283Z"/>
<path id="font_2_1" d="M.15499878 .5588074C.20599365 .5458069 .23599243 .5458069 .2519989 .5458069 .38398744 .5458069 .46199037 .6358032 .46199037 .6508026 .46199037 .6618042 .45498658 .6648102 .44999696 .6648102 .44799806 .6648102 .44599916 .6648102 .44198609 .6618042 .41799928 .6528015 .36499024 .6328125 .29100038 .6328125 .2630005 .6328125 .20999146 .6348114 .14498902 .6598053 .1349945 .6648102 .1329956 .6648102 .13198853 .6648102 .11898804 .6648102 .11898804 .6538086 .11898804 .6378021V.34251405C.11898804 .32548524 .11898804 .3134613 .1349945 .3134613 .14399719 .3134613 .14498902 .3154602 .15499878 .32748414 .19799805 .38259889 .25898744 .390625 .2939911 .390625 .35398866 .390625 .3809967 .34251405 .38598634 .33450318 .4039917 .30143739 .4099884 .26335145 .4099884 .20524597 .4099884 .17524719 .4099884 .116256717 .37998963 .07234192 .35499574 .03640747 .31199647 .012466431 .2630005 .012466431 .19799805 .012466431 .1309967 .04838562 .10598755 .11425781 .14399719 .11125183 .16299439 .13624573 .16299439 .16325379 .16299439 .20625305 .12599182 .21424866 .11299133 .21424866 .11099243 .21424866 .06298828 .21424866 .06298828 .1602478 .06298828 .07034302 .14498902-.01953125 .2649994-.01953125 .3929901-.01953125 .5049896 .07533264 .5049896 .20124817 .5049896 .31445313 .4189911 .41862489 .29499818 .41862489 .25099183 .41862489 .19898987 .4076233 .15499878 .36956788V.5588074Z"/>
<path id="font_1_2" d="M.70799258 .23292542C.70999148 .23791504 .71299746 .24491883 .71299746 .24691773 .71299746 .24790955 .71299746 .2579193 .70098879 .2579193 .69200137 .2579193 .6899872 .25190736 .6879883 .24591065 .6230011 .097961429 .58599856 .0309906 .4149933 .0309906H.2689972C.25498963 .0309906 .25299073 .0309906 .24699402 .03199768 .23699951 .032989503 .23399353 .033996583 .23399353 .041992189 .23399353 .04498291 .23399353 .04698181 .23899842 .06498718L.30699159 .33789063H.4059906C.4909973 .33789063 .4909973 .31689454 .4909973 .29190064 .4909973 .28489686 .4909973 .27290345 .48399354 .24291992 .48199464 .23791504 .48098756 .23492432 .48098756 .23191834 .48098756 .22692871 .4850006 .220932 .49398805 .220932 .5019989 .220932 .5049896 .22592163 .5089874 .24092102L.56599429 .47477723C.56599429 .48077394 .5609894 .48576356 .55400088 .48576356 .54499819 .48576356 .54299929 .47976686 .5399933 .4677887 .5189972 .39186097 .5009918 .36888124 .40899659 .36888124H.31498719L.375 .60964968C.38398744 .64460757 .3849945 .64860537 .42900086 .64860537H.56999209C.69200137 .64860537 .7220001 .61964419 .7220001 .5377197 .7220001 .51374819 .7220001 .51174929 .71798709 .48477174 .71798709 .47877503 .71699526 .4717865 .71699526 .46678163 .71699526 .461792 .7200012 .45480348 .72898867 .45480348 .73999026 .45480348 .7409973 .46080018 .7429962 .47976686L.7630005 .65260317C.7659912 .6796112 .7609863 .6796112 .73599246 .6796112H.23098755C.21099854 .6796112 .20098877 .6796112 .20098877 .65960696 .20098877 .64860537 .20999146 .64860537 .22898865 .64860537 .2659912 .64860537 .2939911 .64860537 .2939911 .6306305 .2939911 .6266327 .2939911 .6246338 .2889862 .6066437L.15699768 .07797241C.14698792 .038986207 .14498902 .0309906 .06599426 .0309906 .04899597 .0309906 .037994386 .0309906 .037994386 .011993408 .037994386 0 .04699707 0 .06599426 0H.58499148C.60798647 0 .60899356 .0009918213 .6159973 .016998291L.70799258 .23292542Z"/>
<path id="font_1_4" d="M.30299378 .3157959H.47299195C.61499026 .3157959 .7539978 .41973878 .7539978 .53167727 .7539978 .6086273 .6879883 .6826172 .5569916 .6826172H.23298645C.21398926 .6826172 .20298767 .6826172 .20298767 .66360476 .20298767 .6516113 .21199036 .6516113 .23199463 .6516113 .24499512 .6516113 .2630005 .65060427 .2749939 .6496124 .29100038 .6476135 .29699708 .64460757 .29699708 .6336212 .29699708 .6296234 .29599 .62661746 .29299928 .614624L.15899658 .07795715C.14898682 .038986207 .14698792 .0309906 .067993167 .0309906 .050994874 .0309906 .039993287 .0309906 .039993287 .011993408 .039993287 0 .051986696 0 .054992677 0 .08299255 0 .1539917 .0029907227 .18199158 .0029907227 .20298767 .0029907227 .22499085 .0019989014 .24598694 .0019989014 .2679901 .0019989014 .2899933 0 .31098939 0 .31799317 0 .33099366 0 .33099366 .019989014 .33099366 .0309906 .32199098 .0309906 .30299378 .0309906 .2659912 .0309906 .23799134 .0309906 .23799134 .048980714 .23799134 .054977418 .23999024 .05996704 .24099732 .065963748L.30299378 .3157959M.375 .6136322C.38398744 .64860537 .38598634 .6516113 .42900086 .6516113H.5249939C.60798647 .6516113 .6609955 .62461856 .6609955 .55566409 .6609955 .5166931 .6409912 .43074037 .60198977 .39476014 .5519867 .34977723 .49198915 .34179688 .44799806 .34179688H.30699159L.375 .6136322Z"/>
<path id="font_1_1" d="M.7599945 .69506838C.7599945 .69807437 .7579956 .7050781 .7489929 .7050781 .74598696 .7050781 .7449951 .70407107 .73399356 .69306948L.6639862 .61602786C.6549988 .6300354 .60899356 .7050781 .49798585 .7050781 .2749939 .7050781 .049987794 .48391725 .049987794 .25172425 .049987794 .08659363 .16799927-.022460938 .32099916-.022460938 .4079895-.022460938 .48399354 .017532349 .5369873 .063583377 .6299896 .14564514 .6469879 .2367096 .6469879 .23971558 .6469879 .24972534 .6369934 .24972534 .6349945 .24972534 .6289978 .24972534 .6239929 .24772644 .621994 .23971558 .61299136 .21069336 .58999636 .13963318 .5209961 .081588748 .45199586 .025543213 .3889923 .008529663 .33699037 .008529663 .24699402 .008529663 .14099121 .060577394 .14099121 .21670532 .14099121 .27374269 .1619873 .43588258 .2619934 .55296328 .32299806 .62402346 .4169922 .67407229 .5059967 .67407229 .60798647 .67407229 .6669922 .5970001 .6669922 .48091126 .6669922 .44088746 .6639862 .43988038 .6639862 .4298706 .6639862 .41986085 .6749878 .41986085 .67900088 .41986085 .69200137 .41986085 .69200137 .42185975 .69699099 .43988038L.7599945 .69506838Z"/>
</defs>
<use data-text="K" xlink:href="#font_1_3" transform="matrix(9.962899,0,0,-9.9626,24.78318,77.51399)"/>
<use data-text="5" xlink:href="#font_2_1" transform="matrix(6.9740097,0,0,-6.9738,33.24443,79.008998)"/>
<use data-text="E" xlink:href="#font_1_2" transform="matrix(9.962899,0,0,-9.9626,110.37875,77.51399)"/>
<use data-text="5" xlink:href="#font_2_1" transform="matrix(6.9740097,0,0,-6.9738,117.73297,79.008998)"/>
<use data-text="P" xlink:href="#font_1_4" transform="matrix(9.962899,0,0,-9.9626,195.9013,77.51399)"/>
<use data-text="5" xlink:href="#font_2_1" transform="matrix(6.9740097,0,0,-6.9738,202.29752,79.008998)"/>
<use data-text="C" xlink:href="#font_1_1" transform="matrix(9.962899,0,0,-9.9626,280.58189,77.51399)"/>
<use data-text="5" xlink:href="#font_2_1" transform="matrix(6.9740097,0,0,-6.9738,287.7021,79.008998)"/>
<path transform="matrix(1.00003,0,0,-1,31.248375,32.336999)" stroke-width=".3985" stroke-linecap="butt" stroke-miterlimit="10" stroke-linejoin="miter" fill="none" stroke="#000000" d="M0 28.3468-26.95966 8.75974M0 28.3468-16.66179-22.93315M-26.95966 8.75974-16.66179-22.93315M-26.95966 8.75974 16.66179-22.93315M-16.66179-22.93315H16.66179M-16.66179-22.93315 26.95966 8.75974M16.66179-22.93315 26.95966 8.75974M16.66179-22.93315 0 28.3468M26.95966 8.75974 0 28.3468M26.95966 8.75974H-26.95966"/>
<path transform="matrix(1.00003,0,0,-1,31.248375,32.336999)" d="M1.99255 28.3468C1.99255 29.44728 1.10046 30.33936 0 30.33936-1.10046 30.33936-1.99255 29.44728-1.99255 28.3468-1.99255 27.24634-1.10046 26.35425 0 26.35425 1.10046 26.35425 1.99255 27.24634 1.99255 28.3468ZM0 28.3468" fill="#ff0000"/>
<path transform="matrix(1.00003,0,0,-1,31.248375,32.336999)" stroke-width=".79701" stroke-linecap="butt" stroke-miterlimit="10" stroke-linejoin="miter" fill="none" stroke="#000000" d="M1.99255 28.3468C1.99255 29.44728 1.10046 30.33936 0 30.33936-1.10046 30.33936-1.99255 29.44728-1.99255 28.3468-1.99255 27.24634-1.10046 26.35425 0 26.35425 1.10046 26.35425 1.99255 27.24634 1.99255 28.3468ZM0 28.3468"/>
<path transform="matrix(1.00003,0,0,-1,31.248375,32.336999)" d="M-24.9671 8.75974C-24.9671 9.86021-25.85918 10.75229-26.95966 10.75229-28.06012 10.75229-28.95221 9.86021-28.95221 8.75974-28.95221 7.65927-28.06012 6.76718-26.95966 6.76718-25.85918 6.76718-24.9671 7.65927-24.9671 8.75974ZM-26.95966 8.75974" fill="#ff0000"/>
<path transform="matrix(1.00003,0,0,-1,31.248375,32.336999)" stroke-width=".79701" stroke-linecap="butt" stroke-miterlimit="10" stroke-linejoin="miter" fill="none" stroke="#000000" d="M-24.9671 8.75974C-24.9671 9.86021-25.85918 10.75229-26.95966 10.75229-28.06012 10.75229-28.95221 9.86021-28.95221 8.75974-28.95221 7.65927-28.06012 6.76718-26.95966 6.76718-25.85918 6.76718-24.9671 7.65927-24.9671 8.75974ZM-26.95966 8.75974"/>
<path transform="matrix(1.00003,0,0,-1,31.248375,32.336999)" d="M-14.66924-22.93315C-14.66924-21.83267-15.56131-20.9406-16.66179-20.9406-17.76225-20.9406-18.65434-21.83267-18.65434-22.93315-18.65434-24.03362-17.76225-24.9257-16.66179-24.9257-15.56131-24.9257-14.66924-24.03362-14.66924-22.93315ZM-16.66179-22.93315" fill="#ff0000"/>
<path transform="matrix(1.00003,0,0,-1,31.248375,32.336999)" stroke-width=".79701" stroke-linecap="butt" stroke-miterlimit="10" stroke-linejoin="miter" fill="none" stroke="#000000" d="M-14.66924-22.93315C-14.66924-21.83267-15.56131-20.9406-16.66179-20.9406-17.76225-20.9406-18.65434-21.83267-18.65434-22.93315-18.65434-24.03362-17.76225-24.9257-16.66179-24.9257-15.56131-24.9257-14.66924-24.03362-14.66924-22.93315ZM-16.66179-22.93315"/>
<path transform="matrix(1.00003,0,0,-1,31.248375,32.336999)" d="M18.65434-22.93315C18.65434-21.83267 17.76225-20.9406 16.66179-20.9406 15.56131-20.9406 14.66924-21.83267 14.66924-22.93315 14.66924-24.03362 15.56131-24.9257 16.66179-24.9257 17.76225-24.9257 18.65434-24.03362 18.65434-22.93315ZM16.66179-22.93315" fill="#ff0000"/>
<path transform="matrix(1.00003,0,0,-1,31.248375,32.336999)" stroke-width=".79701" stroke-linecap="butt" stroke-miterlimit="10" stroke-linejoin="miter" fill="none" stroke="#000000" d="M18.65434-22.93315C18.65434-21.83267 17.76225-20.9406 16.66179-20.9406 15.56131-20.9406 14.66924-21.83267 14.66924-22.93315 14.66924-24.03362 15.56131-24.9257 16.66179-24.9257 17.76225-24.9257 18.65434-24.03362 18.65434-22.93315ZM16.66179-22.93315"/>
<path transform="matrix(1.00003,0,0,-1,31.248375,32.336999)" d="M28.95221 8.75974C28.95221 9.86021 28.06012 10.75229 26.95966 10.75229 25.85918 10.75229 24.9671 9.86021 24.9671 8.75974 24.9671 7.65927 25.85918 6.76718 26.95966 6.76718 28.06012 6.76718 28.95221 7.65927 28.95221 8.75974ZM26.95966 8.75974" fill="#ff0000"/>
<path transform="matrix(1.00003,0,0,-1,31.248375,32.336999)" stroke-width=".79701" stroke-linecap="butt" stroke-miterlimit="10" stroke-linejoin="miter" fill="none" stroke="#000000" d="M28.95221 8.75974C28.95221 9.86021 28.06012 10.75229 26.95966 10.75229 25.85918 10.75229 24.9671 9.86021 24.9671 8.75974 24.9671 7.65927 25.85918 6.76718 26.95966 6.76718 28.06012 6.76718 28.95221 7.65927 28.95221 8.75974ZM26.95966 8.75974"/>
<path transform="matrix(1.00003,0,0,-1,31.248375,32.336999)" stroke-width=".3985" stroke-linecap="butt" stroke-miterlimit="10" stroke-linejoin="miter" fill="none" stroke="#000000" d=""/>
<path transform="matrix(1.00003,0,0,-1,31.248375,32.336999)" d="M87.033 28.3468C87.033 29.44728 86.14093 30.33936 85.04045 30.33936 83.93999 30.33936 83.0479 29.44728 83.0479 28.3468 83.0479 27.24634 83.93999 26.35425 85.04045 26.35425 86.14093 26.35425 87.033 27.24634 87.033 28.3468ZM85.04045 28.3468" fill="#ff0000"/>
<path transform="matrix(1.00003,0,0,-1,31.248375,32.336999)" stroke-width=".79701" stroke-linecap="butt" stroke-miterlimit="10" stroke-linejoin="miter" fill="none" stroke="#000000" d="M87.033 28.3468C87.033 29.44728 86.14093 30.33936 85.04045 30.33936 83.93999 30.33936 83.0479 29.44728 83.0479 28.3468 83.0479 27.24634 83.93999 26.35425 85.04045 26.35425 86.14093 26.35425 87.033 27.24634 87.033 28.3468ZM85.04045 28.3468"/>
<path transform="matrix(1.00003,0,0,-1,31.248375,32.336999)" d="M60.07335 8.75974C60.07335 9.86021 59.18126 10.75229 58.0808 10.75229 56.98032 10.75229 56.08824 9.86021 56.08824 8.75974 56.08824 7.65927 56.98032 6.76718 58.0808 6.76718 59.18126 6.76718 60.07335 7.65927 60.07335 8.75974ZM58.0808 8.75974" fill="#ff0000"/>
<path transform="matrix(1.00003,0,0,-1,31.248375,32.336999)" stroke-width=".79701" stroke-linecap="butt" stroke-miterlimit="10" stroke-linejoin="miter" fill="none" stroke="#000000" d="M60.07335 8.75974C60.07335 9.86021 59.18126 10.75229 58.0808 10.75229 56.98032 10.75229 56.08824 9.86021 56.08824 8.75974 56.08824 7.65927 56.98032 6.76718 58.0808 6.76718 59.18126 6.76718 60.07335 7.65927 60.07335 8.75974ZM58.0808 8.75974"/>
<path transform="matrix(1.00003,0,0,-1,31.248375,32.336999)" d="M70.37122-22.93315C70.37122-21.83267 69.47913-20.9406 68.37866-20.9406 67.27818-20.9406 66.38611-21.83267 66.38611-22.93315 66.38611-24.03362 67.27818-24.9257 68.37866-24.9257 69.47913-24.9257 70.37122-24.03362 70.37122-22.93315ZM68.37866-22.93315" fill="#ff0000"/>
<path transform="matrix(1.00003,0,0,-1,31.248375,32.336999)" stroke-width=".79701" stroke-linecap="butt" stroke-miterlimit="10" stroke-linejoin="miter" fill="none" stroke="#000000" d="M70.37122-22.93315C70.37122-21.83267 69.47913-20.9406 68.37866-20.9406 67.27818-20.9406 66.38611-21.83267 66.38611-22.93315 66.38611-24.03362 67.27818-24.9257 68.37866-24.9257 69.47913-24.9257 70.37122-24.03362 70.37122-22.93315ZM68.37866-22.93315"/>
<path transform="matrix(1.00003,0,0,-1,31.248375,32.336999)" d="M103.6948-22.93315C103.6948-21.83267 102.80272-20.9406 101.70224-20.9406 100.60178-20.9406 99.70969-21.83267 99.70969-22.93315 99.70969-24.03362 100.60178-24.9257 101.70224-24.9257 102.80272-24.9257 103.6948-24.03362 103.6948-22.93315ZM101.70224-22.93315" fill="#ff0000"/>
<path transform="matrix(1.00003,0,0,-1,31.248375,32.336999)" stroke-width=".79701" stroke-linecap="butt" stroke-miterlimit="10" stroke-linejoin="miter" fill="none" stroke="#000000" d="M103.6948-22.93315C103.6948-21.83267 102.80272-20.9406 101.70224-20.9406 100.60178-20.9406 99.70969-21.83267 99.70969-22.93315 99.70969-24.03362 100.60178-24.9257 101.70224-24.9257 102.80272-24.9257 103.6948-24.03362 103.6948-22.93315ZM101.70224-22.93315"/>
<path transform="matrix(1.00003,0,0,-1,31.248375,32.336999)" d="M113.99266 8.75974C113.99266 9.86021 113.10059 10.75229 112.0001 10.75229 110.89964 10.75229 110.00755 9.86021 110.00755 8.75974 110.00755 7.65927 110.89964 6.76718 112.0001 6.76718 113.10059 6.76718 113.99266 7.65927 113.99266 8.75974ZM112.0001 8.75974" fill="#ff0000"/>
<path transform="matrix(1.00003,0,0,-1,31.248375,32.336999)" stroke-width=".79701" stroke-linecap="butt" stroke-miterlimit="10" stroke-linejoin="miter" fill="none" stroke="#000000" d="M113.99266 8.75974C113.99266 9.86021 113.10059 10.75229 112.0001 10.75229 110.89964 10.75229 110.00755 9.86021 110.00755 8.75974 110.00755 7.65927 110.89964 6.76718 112.0001 6.76718 113.10059 6.76718 113.99266 7.65927 113.99266 8.75974ZM112.0001 8.75974"/>
<path transform="matrix(1.00003,0,0,-1,31.248375,32.336999)" stroke-width=".3985" stroke-linecap="butt" stroke-miterlimit="10" stroke-linejoin="miter" fill="none" stroke="#000000" d="M170.08092 28.3468 143.12125 8.75974M143.12125 8.75974 153.41912-22.93315M153.41912-22.93315H186.7427M186.7427-22.93315 197.04058 8.75974"/>
<path transform="matrix(1.00003,0,0,-1,31.248375,32.336999)" d="M172.07347 28.3468C172.07347 29.44728 171.18138 30.33936 170.08092 30.33936 168.98044 30.33936 168.08837 29.44728 168.08837 28.3468 168.08837 27.24634 168.98044 26.35425 170.08092 26.35425 171.18138 26.35425 172.07347 27.24634 172.07347 28.3468ZM170.08092 28.3468" fill="#ff0000"/>
<path transform="matrix(1.00003,0,0,-1,31.248375,32.336999)" stroke-width=".79701" stroke-linecap="butt" stroke-miterlimit="10" stroke-linejoin="miter" fill="none" stroke="#000000" d="M172.07347 28.3468C172.07347 29.44728 171.18138 30.33936 170.08092 30.33936 168.98044 30.33936 168.08837 29.44728 168.08837 28.3468 168.08837 27.24634 168.98044 26.35425 170.08092 26.35425 171.18138 26.35425 172.07347 27.24634 172.07347 28.3468ZM170.08092 28.3468"/>
<path transform="matrix(1.00003,0,0,-1,31.248375,32.336999)" d="M145.1138 8.75974C145.1138 9.86021 144.22173 10.75229 143.12125 10.75229 142.02079 10.75229 141.1287 9.86021 141.1287 8.75974 141.1287 7.65927 142.02079 6.76718 143.12125 6.76718 144.22173 6.76718 145.1138 7.65927 145.1138 8.75974ZM143.12125 8.75974" fill="#ff0000"/>
<path transform="matrix(1.00003,0,0,-1,31.248375,32.336999)" stroke-width=".79701" stroke-linecap="butt" stroke-miterlimit="10" stroke-linejoin="miter" fill="none" stroke="#000000" d="M145.1138 8.75974C145.1138 9.86021 144.22173 10.75229 143.12125 10.75229 142.02079 10.75229 141.1287 9.86021 141.1287 8.75974 141.1287 7.65927 142.02079 6.76718 143.12125 6.76718 144.22173 6.76718 145.1138 7.65927 145.1138 8.75974ZM143.12125 8.75974"/>
<path transform="matrix(1.00003,0,0,-1,31.248375,32.336999)" d="M155.41167-22.93315C155.41167-21.83267 154.51959-20.9406 153.41912-20.9406 152.31865-20.9406 151.42656-21.83267 151.42656-22.93315 151.42656-24.03362 152.31865-24.9257 153.41912-24.9257 154.51959-24.9257 155.41167-24.03362 155.41167-22.93315ZM153.41912-22.93315" fill="#ff0000"/>
<path transform="matrix(1.00003,0,0,-1,31.248375,32.336999)" stroke-width=".79701" stroke-linecap="butt" stroke-miterlimit="10" stroke-linejoin="miter" fill="none" stroke="#000000" d="M155.41167-22.93315C155.41167-21.83267 154.51959-20.9406 153.41912-20.9406 152.31865-20.9406 151.42656-21.83267 151.42656-22.93315 151.42656-24.03362 152.31865-24.9257 153.41912-24.9257 154.51959-24.9257 155.41167-24.03362 155.41167-22.93315ZM153.41912-22.93315"/>
<path transform="matrix(1.00003,0,0,-1,31.248375,32.336999)" d="M188.73526-22.93315C188.73526-21.83267 187.84317-20.9406 186.7427-20.9406 185.64225-20.9406 184.75016-21.83267 184.75016-22.93315 184.75016-24.03362 185.64225-24.9257 186.7427-24.9257 187.84317-24.9257 188.73526-24.03362 188.73526-22.93315ZM186.7427-22.93315" fill="#ff0000"/>
<path transform="matrix(1.00003,0,0,-1,31.248375,32.336999)" stroke-width=".79701" stroke-linecap="butt" stroke-miterlimit="10" stroke-linejoin="miter" fill="none" stroke="#000000" d="M188.73526-22.93315C188.73526-21.83267 187.84317-20.9406 186.7427-20.9406 185.64225-20.9406 184.75016-21.83267 184.75016-22.93315 184.75016-24.03362 185.64225-24.9257 186.7427-24.9257 187.84317-24.9257 188.73526-24.03362 188.73526-22.93315ZM186.7427-22.93315"/>
<path transform="matrix(1.00003,0,0,-1,31.248375,32.336999)" d="M199.03313 8.75974C199.03313 9.86021 198.14104 10.75229 197.04058 10.75229 195.9401 10.75229 195.04802 9.86021 195.04802 8.75974 195.04802 7.65927 195.9401 6.76718 197.04058 6.76718 198.14104 6.76718 199.03313 7.65927 199.03313 8.75974ZM197.04058 8.75974" fill="#ff0000"/>
<path transform="matrix(1.00003,0,0,-1,31.248375,32.336999)" stroke-width=".79701" stroke-linecap="butt" stroke-miterlimit="10" stroke-linejoin="miter" fill="none" stroke="#000000" d="M199.03313 8.75974C199.03313 9.86021 198.14104 10.75229 197.04058 10.75229 195.9401 10.75229 195.04802 9.86021 195.04802 8.75974 195.04802 7.65927 195.9401 6.76718 197.04058 6.76718 198.14104 6.76718 199.03313 7.65927 199.03313 8.75974ZM197.04058 8.75974"/>
<path transform="matrix(1.00003,0,0,-1,31.248375,32.336999)" stroke-width=".3985" stroke-linecap="butt" stroke-miterlimit="10" stroke-linejoin="miter" fill="none" stroke="#000000" d="M255.12139 28.3468 228.16173 8.75974M228.16173 8.75974 238.4596-22.93315M238.4596-22.93315H271.7832M271.7832-22.93315 282.08106 8.75974M282.08106 8.75974 255.12139 28.3468"/>
<path transform="matrix(1.00003,0,0,-1,31.248375,32.336999)" d="M257.11396 28.3468C257.11396 29.44728 256.22187 30.33936 255.12139 30.33936 254.02092 30.33936 253.12883 29.44728 253.12883 28.3468 253.12883 27.24634 254.02092 26.35425 255.12139 26.35425 256.22187 26.35425 257.11396 27.24634 257.11396 28.3468ZM255.12139 28.3468" fill="#ff0000"/>
<path transform="matrix(1.00003,0,0,-1,31.248375,32.336999)" stroke-width=".79701" stroke-linecap="butt" stroke-miterlimit="10" stroke-linejoin="miter" fill="none" stroke="#000000" d="M257.11396 28.3468C257.11396 29.44728 256.22187 30.33936 255.12139 30.33936 254.02092 30.33936 253.12883 29.44728 253.12883 28.3468 253.12883 27.24634 254.02092 26.35425 255.12139 26.35425 256.22187 26.35425 257.11396 27.24634 257.11396 28.3468ZM255.12139 28.3468"/>
<path transform="matrix(1.00003,0,0,-1,31.248375,32.336999)" d="M230.15428 8.75974C230.15428 9.86021 229.26219 10.75229 228.16173 10.75229 227.06127 10.75229 226.16918 9.86021 226.16918 8.75974 226.16918 7.65927 227.06127 6.76718 228.16173 6.76718 229.26219 6.76718 230.15428 7.65927 230.15428 8.75974ZM228.16173 8.75974" fill="#ff0000"/>
<path transform="matrix(1.00003,0,0,-1,31.248375,32.336999)" stroke-width=".79701" stroke-linecap="butt" stroke-miterlimit="10" stroke-linejoin="miter" fill="none" stroke="#000000" d="M230.15428 8.75974C230.15428 9.86021 229.26219 10.75229 228.16173 10.75229 227.06127 10.75229 226.16918 9.86021 226.16918 8.75974 226.16918 7.65927 227.06127 6.76718 228.16173 6.76718 229.26219 6.76718 230.15428 7.65927 230.15428 8.75974ZM228.16173 8.75974"/>
<path transform="matrix(1.00003,0,0,-1,31.248375,32.336999)" d="M240.45215-22.93315C240.45215-21.83267 239.56006-20.9406 238.4596-20.9406 237.35912-20.9406 236.46704-21.83267 236.46704-22.93315 236.46704-24.03362 237.35912-24.9257 238.4596-24.9257 239.56006-24.9257 240.45215-24.03362 240.45215-22.93315ZM238.4596-22.93315" fill="#ff0000"/>
<path transform="matrix(1.00003,0,0,-1,31.248375,32.336999)" stroke-width=".79701" stroke-linecap="butt" stroke-miterlimit="10" stroke-linejoin="miter" fill="none" stroke="#000000" d="M240.45215-22.93315C240.45215-21.83267 239.56006-20.9406 238.4596-20.9406 237.35912-20.9406 236.46704-21.83267 236.46704-22.93315 236.46704-24.03362 237.35912-24.9257 238.4596-24.9257 239.56006-24.9257 240.45215-24.03362 240.45215-22.93315ZM238.4596-22.93315"/>
<path transform="matrix(1.00003,0,0,-1,31.248375,32.336999)" d="M273.77574-22.93315C273.77574-21.83267 272.88365-20.9406 271.7832-20.9406 270.6827-20.9406 269.79063-21.83267 269.79063-22.93315 269.79063-24.03362 270.6827-24.9257 271.7832-24.9257 272.88365-24.9257 273.77574-24.03362 273.77574-22.93315ZM271.7832-22.93315" fill="#ff0000"/>
<path transform="matrix(1.00003,0,0,-1,31.248375,32.336999)" stroke-width=".79701" stroke-linecap="butt" stroke-miterlimit="10" stroke-linejoin="miter" fill="none" stroke="#000000" d="M273.77574-22.93315C273.77574-21.83267 272.88365-20.9406 271.7832-20.9406 270.6827-20.9406 269.79063-21.83267 269.79063-22.93315 269.79063-24.03362 270.6827-24.9257 271.7832-24.9257 272.88365-24.9257 273.77574-24.03362 273.77574-22.93315ZM271.7832-22.93315"/>
<path transform="matrix(1.00003,0,0,-1,31.248375,32.336999)" d="M284.0736 8.75974C284.0736 9.86021 283.18153 10.75229 282.08106 10.75229 280.9806 10.75229 280.0885 9.86021 280.0885 8.75974 280.0885 7.65927 280.9806 6.76718 282.08106 6.76718 283.18153 6.76718 284.0736 7.65927 284.0736 8.75974ZM282.08106 8.75974" fill="#ff0000"/>
<path transform="matrix(1.00003,0,0,-1,31.248375,32.336999)" stroke-width=".79701" stroke-linecap="butt" stroke-miterlimit="10" stroke-linejoin="miter" fill="none" stroke="#000000" d="M284.0736 8.75974C284.0736 9.86021 283.18153 10.75229 282.08106 10.75229 280.9806 10.75229 280.0885 9.86021 280.0885 8.75974 280.0885 7.65927 280.9806 6.76718 282.08106 6.76718 283.18153 6.76718 284.0736 7.65927 284.0736 8.75974ZM282.08106 8.75974"/>
</svg>
