<svg xmlns="http://www.w3.org/2000/svg" xmlns:xlink="http://www.w3.org/1999/xlink" xmlns:inkscape="http://www.inkscape.org/namespaces/inkscape" version="1.1" width="411" height="224" viewBox="0 0 411 224">
<defs>
<path id="font_1_82" d="M.4189911 0V.0309906H.3869934C.29699708 .0309906 .2939911 .041992189 .2939911 .07902527V.64012148C.2939911 .6640167 .2939911 .6660156 .2709961 .6660156 .20899964 .60227969 .12098694 .60227969 .08898926 .60227969V.57128909C.10899353 .57128909 .16799927 .57128909 .21998596 .5972748V.07902527C.21998596 .042999269 .21699524 .0309906 .1269989 .0309906H.09498596V0C.12998963 .0029907227 .21699524 .0029907227 .25698854 .0029907227 .29699708 .0029907227 .38398744 .0029907227 .4189911 0Z"/>
<path id="font_1_107" d="M.44898988 .17396546H.42399598C.4189911 .14398194 .4119873 .099990848 .4019928 .084991458 .394989 .07699585 .32899476 .07699585 .30699159 .07699585H.1269989L.23298645 .17996216C.3889923 .31803895 .44898988 .37210084 .44898988 .47216798 .44898988 .5860901 .35899354 .6660156 .23699951 .6660156 .12399292 .6660156 .049987794 .57411196 .049987794 .48516847 .049987794 .4291687 .099990848 .4291687 .102996829 .4291687 .11999512 .4291687 .15499878 .44117738 .15499878 .48217774 .15499878 .5081787 .13699341 .5341797 .101989749 .5341797 .09399414 .5341797 .09199524 .5341797 .08898926 .5331726 .11199951 .59806826 .1659851 .63500979 .22399903 .63500979 .31498719 .63500979 .35798646 .5541382 .35798646 .47216798 .35798646 .39196778 .30799867 .31297303 .25299073 .25097657L.06098938 .036987306C.049987794 .025985718 .049987794 .023986817 .049987794 0H.42099L.44898988 .17396546Z"/>
</defs>
<path transform="matrix(1,0,0,-1.00002,7.0960009,211.17099)" stroke-width=".3985" stroke-linecap="butt" stroke-dasharray="2.98883,2.98883" stroke-miterlimit="10" stroke-linejoin="miter" fill="none" stroke="#000000" d="M0 0H170.08086"/>
<path transform="matrix(4,0,0,-4.00008,86.29479,211.17099)" d="M3.58653 0C2.52383 .19925 .797 .797-.3985 1.49438V-1.49438C.797-.797 2.52383-.19925 3.58653 0"/>
<path transform="matrix(1,0,0,-1.00002,7.0960009,211.17099)" stroke-width=".3985" stroke-linecap="butt" stroke-dasharray="2.98883,2.98883" stroke-miterlimit="10" stroke-linejoin="miter" fill="none" stroke="#000000" d="M0 198.42766H170.08086"/>
<path transform="matrix(4,0,0,-4.00008,86.29479,12.739365)" d="M3.58653 0C2.52383 .19925 .797 .797-.3985 1.49438V-1.49438C.797-.797 2.52383-.19925 3.58653 0"/>
<path transform="matrix(1,0,0,-1.00002,7.0960009,211.17099)" stroke-width=".3985" stroke-linecap="butt" stroke-dasharray=".3985,1.99255" stroke-miterlimit="10" stroke-linejoin="miter" fill="none" stroke="#000000" d="M0 0V198.42766"/>
<path transform="matrix(0,-4.00008,-4,-0,7.0960009,126.30166)" d="M3.58653 0C2.52383 .19925 .797 .797-.3985 1.49438V-1.49438C.797-.797 2.52383-.19925 3.58653 0"/>
<path transform="matrix(0,-4.00008,-4,-0,7.0960009,106.45728)" d="M3.58653 0C2.52383 .19925 .797 .797-.3985 1.49438V-1.49438C.797-.797 2.52383-.19925 3.58653 0"/>
<path transform="matrix(1,0,0,-1.00002,7.0960009,211.17099)" stroke-width=".3985" stroke-linecap="butt" stroke-dasharray=".3985,1.99255" stroke-miterlimit="10" stroke-linejoin="miter" fill="none" stroke="#000000" d="M170.08086 0V198.42766"/>
<path transform="matrix(0,-4.00008,-4,-0,177.17685,126.30166)" d="M3.58653 0C2.52383 .19925 .797 .797-.3985 1.49438V-1.49438C.797-.797 2.52383-.19925 3.58653 0"/>
<path transform="matrix(0,-4.00008,-4,-0,177.17685,106.45728)" d="M3.58653 0C2.52383 .19925 .797 .797-.3985 1.49438V-1.49438C.797-.797 2.52383-.19925 3.58653 0"/>
<path transform="matrix(1,0,0,-1.00002,7.0960009,211.17099)" d="M59.68245 56.69362C59.68245 58.34431 58.34431 59.68245 56.69362 59.68245 55.04291 59.68245 53.70479 58.34431 53.70479 56.69362 53.70479 55.04291 55.04291 53.70479 56.69362 53.70479 58.34431 53.70479 59.68245 55.04291 59.68245 56.69362ZM56.69362 56.69362"/>
<path transform="matrix(1,0,0,-1.00002,7.0960009,211.17099)" stroke-width=".3985" stroke-linecap="butt" stroke-miterlimit="10" stroke-linejoin="miter" fill="none" stroke="#000000" d="M59.68245 56.69362C59.68245 58.34431 58.34431 59.68245 56.69362 59.68245 55.04291 59.68245 53.70479 58.34431 53.70479 56.69362 53.70479 55.04291 55.04291 53.70479 56.69362 53.70479 58.34431 53.70479 59.68245 55.04291 59.68245 56.69362ZM56.69362 56.69362"/>
<path transform="matrix(1,0,0,-1.00002,7.0960009,211.17099)" d="M59.68245 113.38724C59.68245 115.03793 58.34431 116.37607 56.69362 116.37607 55.04291 116.37607 53.70479 115.03793 53.70479 113.38724 53.70479 111.73653 55.04291 110.3984 56.69362 110.3984 58.34431 110.3984 59.68245 111.73653 59.68245 113.38724ZM56.69362 113.38724"/>
<path transform="matrix(1,0,0,-1.00002,7.0960009,211.17099)" stroke-width=".3985" stroke-linecap="butt" stroke-miterlimit="10" stroke-linejoin="miter" fill="none" stroke="#000000" d="M59.68245 113.38724C59.68245 115.03793 58.34431 116.37607 56.69362 116.37607 55.04291 116.37607 53.70479 115.03793 53.70479 113.38724 53.70479 111.73653 55.04291 110.3984 56.69362 110.3984 58.34431 110.3984 59.68245 111.73653 59.68245 113.38724ZM56.69362 113.38724"/>
<path transform="matrix(1,0,0,-1.00002,7.0960009,211.17099)" d="M116.37607 56.69362C116.37607 58.34431 115.03793 59.68245 113.38724 59.68245 111.73653 59.68245 110.3984 58.34431 110.3984 56.69362 110.3984 55.04291 111.73653 53.70479 113.38724 53.70479 115.03793 53.70479 116.37607 55.04291 116.37607 56.69362ZM113.38724 56.69362"/>
<path transform="matrix(1,0,0,-1.00002,7.0960009,211.17099)" stroke-width=".3985" stroke-linecap="butt" stroke-miterlimit="10" stroke-linejoin="miter" fill="none" stroke="#000000" d="M116.37607 56.69362C116.37607 58.34431 115.03793 59.68245 113.38724 59.68245 111.73653 59.68245 110.3984 58.34431 110.3984 56.69362 110.3984 55.04291 111.73653 53.70479 113.38724 53.70479 115.03793 53.70479 116.37607 55.04291 116.37607 56.69362ZM113.38724 56.69362"/>
<path transform="matrix(1,0,0,-1.00002,7.0960009,211.17099)" d="M116.37607 113.38724C116.37607 115.03793 115.03793 116.37607 113.38724 116.37607 111.73653 116.37607 110.3984 115.03793 110.3984 113.38724 110.3984 111.73653 111.73653 110.3984 113.38724 110.3984 115.03793 110.3984 116.37607 111.73653 116.37607 113.38724ZM113.38724 113.38724"/>
<path transform="matrix(1,0,0,-1.00002,7.0960009,211.17099)" stroke-width=".3985" stroke-linecap="butt" stroke-miterlimit="10" stroke-linejoin="miter" fill="none" stroke="#000000" d="M116.37607 113.38724C116.37607 115.03793 115.03793 116.37607 113.38724 116.37607 111.73653 116.37607 110.3984 115.03793 110.3984 113.38724 110.3984 111.73653 111.73653 110.3984 113.38724 110.3984 115.03793 110.3984 116.37607 111.73653 116.37607 113.38724ZM113.38724 113.38724"/>
<path transform="matrix(1,0,0,-1.00002,7.0960009,211.17099)" d="M88.02925 141.73404C88.02925 143.38475 86.69113 144.72287 85.04042 144.72287 83.38971 144.72287 82.05159 143.38475 82.05159 141.73404 82.05159 140.08333 83.38971 138.74521 85.04042 138.74521 86.69113 138.74521 88.02925 140.08333 88.02925 141.73404ZM85.04042 141.73404"/>
<path transform="matrix(1,0,0,-1.00002,7.0960009,211.17099)" stroke-width=".3985" stroke-linecap="butt" stroke-miterlimit="10" stroke-linejoin="miter" fill="none" stroke="#000000" d="M88.02925 141.73404C88.02925 143.38475 86.69113 144.72287 85.04042 144.72287 83.38971 144.72287 82.05159 143.38475 82.05159 141.73404 82.05159 140.08333 83.38971 138.74521 85.04042 138.74521 86.69113 138.74521 88.02925 140.08333 88.02925 141.73404ZM85.04042 141.73404"/>
<path transform="matrix(1,0,0,-1.00002,7.0960009,211.17099)" stroke-width=".3985" stroke-linecap="butt" stroke-miterlimit="10" stroke-linejoin="miter" fill="none" stroke="#000000" d="M56.69362 56.69362V113.38724H113.38724V56.69362H56.69362L113.38724 113.38724"/>
<path transform="matrix(1,0,0,-1.00002,7.0960009,211.17099)" stroke-width=".3985" stroke-linecap="butt" stroke-miterlimit="10" stroke-linejoin="miter" fill="none" stroke="#000000" d="M56.69362 56.69362 70.867 0"/>
<path transform="matrix(1,0,0,-1.00002,7.0960009,211.17099)" stroke-width=".3985" stroke-linecap="butt" stroke-miterlimit="10" stroke-linejoin="miter" fill="none" stroke="#000000" d="M99.21382 0 113.38724 56.69362"/>
<path transform="matrix(1,0,0,-1.00002,7.0960009,211.17099)" stroke-width=".3985" stroke-linecap="butt" stroke-miterlimit="10" stroke-linejoin="miter" fill="none" stroke="#000000" d="M70.867 198.42766 85.04042 141.73404 99.21382 198.42766"/>
<path transform="matrix(1,0,0,-1.00002,7.0960009,211.17099)" stroke-width=".3985" stroke-linecap="butt" stroke-miterlimit="10" stroke-linejoin="miter" fill="none" stroke="#000000" d="M56.69362 113.38724 85.04042 141.73404 113.38724 113.38724"/>
<path transform="matrix(1,0,0,-1.00002,7.0960009,211.17099)" stroke-width=".3985" stroke-linecap="butt" stroke-miterlimit="10" stroke-linejoin="miter" fill="none" stroke="#000000" d="M113.38724 56.69362 170.08086 85.04042"/>
<path transform="matrix(1,0,0,-1.00002,7.0960009,211.17099)" stroke-width=".3985" stroke-linecap="butt" stroke-miterlimit="10" stroke-linejoin="miter" fill="none" stroke="#000000" d="M0 85.04042 56.69362 113.38724"/>
<use data-text="1" xlink:href="#font_1_82" transform="matrix(9.9626,0,0,-9.962799,75.472,222.99323)"/>
<use data-text="2" xlink:href="#font_1_107" transform="matrix(9.9626,0,0,-9.962799,103.819,222.99323)"/>
<use data-text="1" xlink:href="#font_1_82" transform="matrix(9.9626,0,0,-9.962799,75.472,7.5529177)"/>
<use data-text="2" xlink:href="#font_1_107" transform="matrix(9.9626,0,0,-9.962799,103.819,7.5529177)"/>
<path transform="matrix(1,0,0,-1.00002,7.0960009,211.17099)" stroke-width=".3985" stroke-linecap="butt" stroke-dasharray="2.98883,2.98883" stroke-miterlimit="10" stroke-linejoin="miter" fill="none" stroke="#000000" d="M226.77457 0H396.8554"/>
<path transform="matrix(4,0,0,-4.00008,313.06938,211.17099)" d="M3.58653 0C2.52383 .19925 .797 .797-.3985 1.49438V-1.49438C.797-.797 2.52383-.19925 3.58653 0"/>
<path transform="matrix(1,0,0,-1.00002,7.0960009,211.17099)" stroke-width=".3985" stroke-linecap="butt" stroke-dasharray="2.98883,2.98883" stroke-miterlimit="10" stroke-linejoin="miter" fill="none" stroke="#000000" d="M226.77457 198.42766H396.8554"/>
<path transform="matrix(4,0,0,-4.00008,313.06938,12.739365)" d="M3.58653 0C2.52383 .19925 .797 .797-.3985 1.49438V-1.49438C.797-.797 2.52383-.19925 3.58653 0"/>
<path transform="matrix(1,0,0,-1.00002,7.0960009,211.17099)" stroke-width=".3985" stroke-linecap="butt" stroke-dasharray=".3985,1.99255" stroke-miterlimit="10" stroke-linejoin="miter" fill="none" stroke="#000000" d="M226.77457 0V198.42766"/>
<path transform="matrix(0,-4.00008,-4,-0,233.87058,126.30166)" d="M3.58653 0C2.52383 .19925 .797 .797-.3985 1.49438V-1.49438C.797-.797 2.52383-.19925 3.58653 0"/>
<path transform="matrix(0,-4.00008,-4,-0,233.87058,106.45728)" d="M3.58653 0C2.52383 .19925 .797 .797-.3985 1.49438V-1.49438C.797-.797 2.52383-.19925 3.58653 0"/>
<path transform="matrix(1,0,0,-1.00002,7.0960009,211.17099)" stroke-width=".3985" stroke-linecap="butt" stroke-dasharray=".3985,1.99255" stroke-miterlimit="10" stroke-linejoin="miter" fill="none" stroke="#000000" d="M396.8554 0V198.42766"/>
<path transform="matrix(0,-4.00008,-4,-0,403.95143,126.30166)" d="M3.58653 0C2.52383 .19925 .797 .797-.3985 1.49438V-1.49438C.797-.797 2.52383-.19925 3.58653 0"/>
<path transform="matrix(0,-4.00008,-4,-0,403.95143,106.45728)" d="M3.58653 0C2.52383 .19925 .797 .797-.3985 1.49438V-1.49438C.797-.797 2.52383-.19925 3.58653 0"/>
<path transform="matrix(1,0,0,-1.00002,7.0960009,211.17099)" d="M229.7634 0C229.7634 1.6507 228.42527 2.98883 226.77457 2.98883 225.12386 2.98883 223.78574 1.6507 223.78574 0 223.78574-1.6507 225.12386-2.98883 226.77457-2.98883 228.42527-2.98883 229.7634-1.6507 229.7634 0ZM226.77457 0" fill="#ff0000"/>
<path transform="matrix(1,0,0,-1.00002,7.0960009,211.17099)" stroke-width=".3985" stroke-linecap="butt" stroke-miterlimit="10" stroke-linejoin="miter" fill="none" stroke="#ff0000" d="M229.7634 0C229.7634 1.6507 228.42527 2.98883 226.77457 2.98883 225.12386 2.98883 223.78574 1.6507 223.78574 0 223.78574-1.6507 225.12386-2.98883 226.77457-2.98883 228.42527-2.98883 229.7634-1.6507 229.7634 0ZM226.77457 0"/>
<path transform="matrix(1,0,0,-1.00002,7.0960009,211.17099)" d="M399.84425 0C399.84425 1.6507 398.50614 2.98883 396.8554 2.98883 395.2047 2.98883 393.8666 1.6507 393.8666 0 393.8666-1.6507 395.2047-2.98883 396.8554-2.98883 398.50614-2.98883 399.84425-1.6507 399.84425 0ZM396.8554 0" fill="#ff0000"/>
<path transform="matrix(1,0,0,-1.00002,7.0960009,211.17099)" stroke-width=".3985" stroke-linecap="butt" stroke-miterlimit="10" stroke-linejoin="miter" fill="none" stroke="#ff0000" d="M399.84425 0C399.84425 1.6507 398.50614 2.98883 396.8554 2.98883 395.2047 2.98883 393.8666 1.6507 393.8666 0 393.8666-1.6507 395.2047-2.98883 396.8554-2.98883 398.50614-2.98883 399.84425-1.6507 399.84425 0ZM396.8554 0"/>
<path transform="matrix(1,0,0,-1.00002,7.0960009,211.17099)" d="M399.84425 198.42766C399.84425 200.07837 398.50614 201.41649 396.8554 201.41649 395.2047 201.41649 393.8666 200.07837 393.8666 198.42766 393.8666 196.77695 395.2047 195.43883 396.8554 195.43883 398.50614 195.43883 399.84425 196.77695 399.84425 198.42766ZM396.8554 198.42766" fill="#ff0000"/>
<path transform="matrix(1,0,0,-1.00002,7.0960009,211.17099)" stroke-width=".3985" stroke-linecap="butt" stroke-miterlimit="10" stroke-linejoin="miter" fill="none" stroke="#ff0000" d="M399.84425 198.42766C399.84425 200.07837 398.50614 201.41649 396.8554 201.41649 395.2047 201.41649 393.8666 200.07837 393.8666 198.42766 393.8666 196.77695 395.2047 195.43883 396.8554 195.43883 398.50614 195.43883 399.84425 196.77695 399.84425 198.42766ZM396.8554 198.42766"/>
<path transform="matrix(1,0,0,-1.00002,7.0960009,211.17099)" d="M229.7634 198.42766C229.7634 200.07837 228.42527 201.41649 226.77457 201.41649 225.12386 201.41649 223.78574 200.07837 223.78574 198.42766 223.78574 196.77695 225.12386 195.43883 226.77457 195.43883 228.42527 195.43883 229.7634 196.77695 229.7634 198.42766ZM226.77457 198.42766" fill="#ff0000"/>
<path transform="matrix(1,0,0,-1.00002,7.0960009,211.17099)" stroke-width=".3985" stroke-linecap="butt" stroke-miterlimit="10" stroke-linejoin="miter" fill="none" stroke="#ff0000" d="M229.7634 198.42766C229.7634 200.07837 228.42527 201.41649 226.77457 201.41649 225.12386 201.41649 223.78574 200.07837 223.78574 198.42766 223.78574 196.77695 225.12386 195.43883 226.77457 195.43883 228.42527 195.43883 229.7634 196.77695 229.7634 198.42766ZM226.77457 198.42766"/>
<path transform="matrix(1,0,0,-1.00002,7.0960009,211.17099)" stroke-width=".3985" stroke-linecap="butt" stroke-miterlimit="10" stroke-linejoin="miter" fill="none" stroke="#ff0000" d="M226.77457 0 283.4682 56.69362"/>
<path transform="matrix(1,0,0,-1.00002,7.0960009,211.17099)" stroke-width=".3985" stroke-linecap="butt" stroke-miterlimit="10" stroke-linejoin="miter" fill="none" stroke="#ff0000" d="M396.8554 0 340.1618 56.69362"/>
<path transform="matrix(1,0,0,-1.00002,7.0960009,211.17099)" stroke-width=".3985" stroke-linecap="butt" stroke-miterlimit="10" stroke-linejoin="miter" fill="none" stroke="#ff0000" d="M396.8554 198.42766 340.1618 113.38724"/>
<path transform="matrix(1,0,0,-1.00002,7.0960009,211.17099)" stroke-width=".3985" stroke-linecap="butt" stroke-miterlimit="10" stroke-linejoin="miter" fill="none" stroke="#ff0000" d="M283.4682 113.38724 226.77457 198.42766 311.815 141.73404"/>
<path transform="matrix(1,0,0,-1.00002,7.0960009,211.17099)" d="M286.45704 56.69362C286.45704 58.34431 285.1189 59.68245 283.4682 59.68245 281.81748 59.68245 280.47935 58.34431 280.47935 56.69362 280.47935 55.04291 281.81748 53.70479 283.4682 53.70479 285.1189 53.70479 286.45704 55.04291 286.45704 56.69362ZM283.4682 56.69362"/>
<path transform="matrix(1,0,0,-1.00002,7.0960009,211.17099)" stroke-width=".3985" stroke-linecap="butt" stroke-miterlimit="10" stroke-linejoin="miter" fill="none" stroke="#000000" d="M286.45704 56.69362C286.45704 58.34431 285.1189 59.68245 283.4682 59.68245 281.81748 59.68245 280.47935 58.34431 280.47935 56.69362 280.47935 55.04291 281.81748 53.70479 283.4682 53.70479 285.1189 53.70479 286.45704 55.04291 286.45704 56.69362ZM283.4682 56.69362"/>
<path transform="matrix(1,0,0,-1.00002,7.0960009,211.17099)" d="M286.45704 113.38724C286.45704 115.03793 285.1189 116.37607 283.4682 116.37607 281.81748 116.37607 280.47935 115.03793 280.47935 113.38724 280.47935 111.73653 281.81748 110.3984 283.4682 110.3984 285.1189 110.3984 286.45704 111.73653 286.45704 113.38724ZM283.4682 113.38724"/>
<path transform="matrix(1,0,0,-1.00002,7.0960009,211.17099)" stroke-width=".3985" stroke-linecap="butt" stroke-miterlimit="10" stroke-linejoin="miter" fill="none" stroke="#000000" d="M286.45704 113.38724C286.45704 115.03793 285.1189 116.37607 283.4682 116.37607 281.81748 116.37607 280.47935 115.03793 280.47935 113.38724 280.47935 111.73653 281.81748 110.3984 283.4682 110.3984 285.1189 110.3984 286.45704 111.73653 286.45704 113.38724ZM283.4682 113.38724"/>
<path transform="matrix(1,0,0,-1.00002,7.0960009,211.17099)" d="M343.15065 56.69362C343.15065 58.34431 341.81254 59.68245 340.1618 59.68245 338.5111 59.68245 337.17298 58.34431 337.17298 56.69362 337.17298 55.04291 338.5111 53.70479 340.1618 53.70479 341.81254 53.70479 343.15065 55.04291 343.15065 56.69362ZM340.1618 56.69362"/>
<path transform="matrix(1,0,0,-1.00002,7.0960009,211.17099)" stroke-width=".3985" stroke-linecap="butt" stroke-miterlimit="10" stroke-linejoin="miter" fill="none" stroke="#000000" d="M343.15065 56.69362C343.15065 58.34431 341.81254 59.68245 340.1618 59.68245 338.5111 59.68245 337.17298 58.34431 337.17298 56.69362 337.17298 55.04291 338.5111 53.70479 340.1618 53.70479 341.81254 53.70479 343.15065 55.04291 343.15065 56.69362ZM340.1618 56.69362"/>
<path transform="matrix(1,0,0,-1.00002,7.0960009,211.17099)" d="M343.15065 113.38724C343.15065 115.03793 341.81254 116.37607 340.1618 116.37607 338.5111 116.37607 337.17298 115.03793 337.17298 113.38724 337.17298 111.73653 338.5111 110.3984 340.1618 110.3984 341.81254 110.3984 343.15065 111.73653 343.15065 113.38724ZM340.1618 113.38724"/>
<path transform="matrix(1,0,0,-1.00002,7.0960009,211.17099)" stroke-width=".3985" stroke-linecap="butt" stroke-miterlimit="10" stroke-linejoin="miter" fill="none" stroke="#000000" d="M343.15065 113.38724C343.15065 115.03793 341.81254 116.37607 340.1618 116.37607 338.5111 116.37607 337.17298 115.03793 337.17298 113.38724 337.17298 111.73653 338.5111 110.3984 340.1618 110.3984 341.81254 110.3984 343.15065 111.73653 343.15065 113.38724ZM340.1618 113.38724"/>
<path transform="matrix(1,0,0,-1.00002,7.0960009,211.17099)" d="M314.80384 141.73404C314.80384 143.38475 313.4657 144.72287 311.815 144.72287 310.16429 144.72287 308.82618 143.38475 308.82618 141.73404 308.82618 140.08333 310.16429 138.74521 311.815 138.74521 313.4657 138.74521 314.80384 140.08333 314.80384 141.73404ZM311.815 141.73404"/>
<path transform="matrix(1,0,0,-1.00002,7.0960009,211.17099)" stroke-width=".3985" stroke-linecap="butt" stroke-miterlimit="10" stroke-linejoin="miter" fill="none" stroke="#000000" d="M314.80384 141.73404C314.80384 143.38475 313.4657 144.72287 311.815 144.72287 310.16429 144.72287 308.82618 143.38475 308.82618 141.73404 308.82618 140.08333 310.16429 138.74521 311.815 138.74521 313.4657 138.74521 314.80384 140.08333 314.80384 141.73404ZM311.815 141.73404"/>
<path transform="matrix(1,0,0,-1.00002,7.0960009,211.17099)" stroke-width=".3985" stroke-linecap="butt" stroke-miterlimit="10" stroke-linejoin="miter" fill="none" stroke="#000000" d="M283.4682 56.69362V113.38724H340.1618V56.69362H283.4682L340.1618 113.38724"/>
<path transform="matrix(1,0,0,-1.00002,7.0960009,211.17099)" stroke-width=".3985" stroke-linecap="butt" stroke-miterlimit="10" stroke-linejoin="miter" fill="none" stroke="#000000" d="M283.4682 56.69362 297.6416 0"/>
<path transform="matrix(1,0,0,-1.00002,7.0960009,211.17099)" stroke-width=".3985" stroke-linecap="butt" stroke-miterlimit="10" stroke-linejoin="miter" fill="none" stroke="#000000" d="M325.9884 0 340.1618 56.69362"/>
<path transform="matrix(1,0,0,-1.00002,7.0960009,211.17099)" stroke-width=".3985" stroke-linecap="butt" stroke-miterlimit="10" stroke-linejoin="miter" fill="none" stroke="#000000" d="M297.6416 198.42766 311.815 141.73404 325.9884 198.42766"/>
<path transform="matrix(1,0,0,-1.00002,7.0960009,211.17099)" stroke-width=".3985" stroke-linecap="butt" stroke-miterlimit="10" stroke-linejoin="miter" fill="none" stroke="#000000" d="M283.4682 113.38724 311.815 141.73404 340.1618 113.38724"/>
<path transform="matrix(1,0,0,-1.00002,7.0960009,211.17099)" stroke-width=".3985" stroke-linecap="butt" stroke-miterlimit="10" stroke-linejoin="miter" fill="none" stroke="#000000" d="M340.1618 56.69362 396.8554 85.04042"/>
<path transform="matrix(1,0,0,-1.00002,7.0960009,211.17099)" stroke-width=".3985" stroke-linecap="butt" stroke-miterlimit="10" stroke-linejoin="miter" fill="none" stroke="#000000" d="M226.77457 85.04042 283.4682 113.38724"/>
<use data-text="1" xlink:href="#font_1_82" transform="matrix(9.9626,0,0,-9.962799,302.247,222.99323)"/>
<use data-text="2" xlink:href="#font_1_107" transform="matrix(9.9626,0,0,-9.962799,330.594,222.99323)"/>
<use data-text="1" xlink:href="#font_1_82" transform="matrix(9.9626,0,0,-9.962799,302.247,7.5529177)"/>
<use data-text="2" xlink:href="#font_1_107" transform="matrix(9.9626,0,0,-9.962799,330.594,7.5529177)"/>
</svg>
