<svg xmlns="http://www.w3.org/2000/svg" xmlns:xlink="http://www.w3.org/1999/xlink" xmlns:inkscape="http://www.inkscape.org/namespaces/inkscape" version="1.1" width="311" height="129" viewBox="0 0 311 129">
<path transform="matrix(1.00005,0,0,-1.00008,10.564575,84.579)" stroke-width=".3985" stroke-linecap="butt" stroke-miterlimit="10" stroke-linejoin="miter" fill="none" stroke="#000000" d="M8.46835 19.84267C8.46835 24.51965 4.67699 28.31102 0 28.31102-4.67699 28.31102-8.46835 24.51965-8.46835 19.84267-8.46835 15.16566-4.67699 11.37431 0 11.37431 4.67699 11.37431 8.46835 15.16566 8.46835 19.84267ZM0 19.84267"/>
<path transform="matrix(1.00005,0,0,-1.00008,10.564575,84.579)" stroke-width=".3985" stroke-linecap="butt" stroke-miterlimit="10" stroke-linejoin="miter" fill="none" stroke="#000000" d="M28.31102 39.68535C28.31102 44.36235 24.51965 48.1537 19.84267 48.1537 15.16566 48.1537 11.37431 44.36235 11.37431 39.68535 11.37431 35.00836 15.16566 31.217 19.84267 31.217 24.51965 31.217 28.31102 35.00836 28.31102 39.68535ZM19.84267 39.68535"/>
<path transform="matrix(1.00005,0,0,-1.00008,10.564575,84.579)" stroke-width=".3985" stroke-linecap="butt" stroke-miterlimit="10" stroke-linejoin="miter" fill="none" stroke="#000000" d="M67.99637 39.68535C67.99637 44.36235 64.20502 48.1537 59.52802 48.1537 54.85103 48.1537 51.05966 44.36235 51.05966 39.68535 51.05966 35.00836 54.85103 31.217 59.52802 31.217 64.20502 31.217 67.99637 35.00836 67.99637 39.68535ZM59.52802 39.68535"/>
<path transform="matrix(1.00005,0,0,-1.00008,10.564575,84.579)" stroke-width=".3985" stroke-linecap="butt" stroke-miterlimit="10" stroke-linejoin="miter" fill="none" stroke="#000000" d="M87.83907 19.84267C87.83907 24.51965 84.0477 28.31102 79.37071 28.31102 74.69371 28.31102 70.90236 24.51965 70.90236 19.84267 70.90236 15.16566 74.69371 11.37431 79.37071 11.37431 84.0477 11.37431 87.83907 15.16566 87.83907 19.84267ZM79.37071 19.84267"/>
<path transform="matrix(1.00005,0,0,-1.00008,10.564575,84.579)" stroke-width=".3985" stroke-linecap="butt" stroke-miterlimit="10" stroke-linejoin="miter" fill="none" stroke="#000000" d="M67.99637 0C67.99637 4.67699 64.20502 8.46835 59.52802 8.46835 54.85103 8.46835 51.05966 4.67699 51.05966 0 51.05966-4.67699 54.85103-8.46835 59.52802-8.46835 64.20502-8.46835 67.99637-4.67699 67.99637 0ZM59.52802 0"/>
<path transform="matrix(1.00005,0,0,-1.00008,10.564575,84.579)" stroke-width=".3985" stroke-linecap="butt" stroke-miterlimit="10" stroke-linejoin="miter" fill="none" stroke="#000000" d="M28.31102 0C28.31102 4.67699 24.51965 8.46835 19.84267 8.46835 15.16566 8.46835 11.37431 4.67699 11.37431 0 11.37431-4.67699 15.16566-8.46835 19.84267-8.46835 24.51965-8.46835 28.31102-4.67699 28.31102 0ZM19.84267 0"/>
<path transform="matrix(1.00005,0,0,-1.00008,10.564575,84.579)" stroke-width=".3985" stroke-linecap="butt" stroke-miterlimit="10" stroke-linejoin="miter" fill="none" stroke="#000000" d="M6.12875 25.97206 13.71399 33.55717"/>
<path transform="matrix(1.00005,0,0,-1.00008,10.564575,84.579)" stroke-width=".3985" stroke-linecap="butt" stroke-miterlimit="10" stroke-linejoin="miter" fill="none" stroke="#000000" d="M6.12901 13.71425 13.71413 6.12901"/>
<path transform="matrix(1.00005,0,0,-1.00008,10.564575,84.579)" stroke-width=".3985" stroke-linecap="butt" stroke-dasharray="2.98883,2.98883" stroke-miterlimit="10" stroke-linejoin="miter" fill="none" stroke="#000000" d="M8.66776 19.84302H70.70439"/>
<path transform="matrix(1.00005,0,0,-1.00008,10.564575,84.579)" stroke-width=".3985" stroke-linecap="butt" stroke-miterlimit="10" stroke-linejoin="miter" fill="none" stroke="#000000" d="M50.86134 39.68607H28.51079"/>
<path transform="matrix(1.00005,0,0,-1.00008,10.564575,84.579)" stroke-width=".3985" stroke-linecap="butt" stroke-miterlimit="10" stroke-linejoin="miter" fill="none" stroke="#000000" d="M65.65854 33.5577 73.24353 25.9722"/>
<path transform="matrix(1.00005,0,0,-1.00008,10.564575,84.579)" stroke-width=".3985" stroke-linecap="butt" stroke-miterlimit="10" stroke-linejoin="miter" fill="none" stroke="#000000" d="M50.86134 0H28.51079"/>
<path transform="matrix(1.00005,0,0,-1.00008,10.564575,84.579)" stroke-width=".3985" stroke-linecap="butt" stroke-miterlimit="10" stroke-linejoin="miter" fill="none" stroke="#000000" d="M65.6584 6.12863 73.2434 13.71385"/>
<path transform="matrix(1.00005,0,0,-1.00008,10.564575,84.579)" stroke-width=".3985" stroke-linecap="butt" stroke-miterlimit="10" stroke-linejoin="miter" fill="none" stroke="#000000" d="M107.68178 19.84267C107.68178 24.51965 103.89043 28.31102 99.21342 28.31102 94.53642 28.31102 90.74507 24.51965 90.74507 19.84267 90.74507 15.16566 94.53642 11.37431 99.21342 11.37431 103.89043 11.37431 107.68178 15.16566 107.68178 19.84267ZM99.21342 19.84267"/>
<path transform="matrix(1.00005,0,0,-1.00008,10.564575,84.579)" stroke-width=".3985" stroke-linecap="butt" stroke-miterlimit="10" stroke-linejoin="miter" fill="none" stroke="#000000" d="M127.52444 39.68535C127.52444 44.36235 123.7331 48.1537 119.05609 48.1537 114.3791 48.1537 110.58774 44.36235 110.58774 39.68535 110.58774 35.00836 114.3791 31.217 119.05609 31.217 123.7331 31.217 127.52444 35.00836 127.52444 39.68535ZM119.05609 39.68535"/>
<path transform="matrix(1.00005,0,0,-1.00008,10.564575,84.579)" stroke-width=".3985" stroke-linecap="butt" stroke-miterlimit="10" stroke-linejoin="miter" fill="none" stroke="#000000" d="M167.20981 39.68535C167.20981 44.36235 163.41844 48.1537 158.74146 48.1537 154.06446 48.1537 150.2731 44.36235 150.2731 39.68535 150.2731 35.00836 154.06446 31.217 158.74146 31.217 163.41844 31.217 167.20981 35.00836 167.20981 39.68535ZM158.74146 39.68535"/>
<path transform="matrix(1.00005,0,0,-1.00008,10.564575,84.579)" stroke-width=".3985" stroke-linecap="butt" stroke-miterlimit="10" stroke-linejoin="miter" fill="none" stroke="#000000" d="M187.05249 19.84267C187.05249 24.51965 183.26114 28.31102 178.58414 28.31102 173.90715 28.31102 170.11579 24.51965 170.11579 19.84267 170.11579 15.16566 173.90715 11.37431 178.58414 11.37431 183.26114 11.37431 187.05249 15.16566 187.05249 19.84267ZM178.58414 19.84267"/>
<path transform="matrix(1.00005,0,0,-1.00008,10.564575,84.579)" stroke-width=".3985" stroke-linecap="butt" stroke-miterlimit="10" stroke-linejoin="miter" fill="none" stroke="#000000" d="M167.20981 0C167.20981 4.67699 163.41844 8.46835 158.74146 8.46835 154.06446 8.46835 150.2731 4.67699 150.2731 0 150.2731-4.67699 154.06446-8.46835 158.74146-8.46835 163.41844-8.46835 167.20981-4.67699 167.20981 0ZM158.74146 0"/>
<path transform="matrix(1.00005,0,0,-1.00008,10.564575,84.579)" stroke-width=".3985" stroke-linecap="butt" stroke-miterlimit="10" stroke-linejoin="miter" fill="none" stroke="#000000" d="M127.52444 0C127.52444 4.67699 123.7331 8.46835 119.05609 8.46835 114.3791 8.46835 110.58774 4.67699 110.58774 0 110.58774-4.67699 114.3791-8.46835 119.05609-8.46835 123.7331-8.46835 127.52444-4.67699 127.52444 0ZM119.05609 0"/>
<path transform="matrix(1.00005,0,0,-1.00008,10.564575,84.579)" stroke-width=".3985" stroke-linecap="butt" stroke-miterlimit="10" stroke-linejoin="miter" fill="none" stroke="#000000" d="M105.3422 25.97206 112.92741 33.55717"/>
<path transform="matrix(1.00005,0,0,-1.00008,10.564575,84.579)" stroke-width=".3985" stroke-linecap="butt" stroke-miterlimit="10" stroke-linejoin="miter" fill="none" stroke="#000000" d="M105.34245 13.71425 112.92755 6.12901"/>
<path transform="matrix(1.00005,0,0,-1.00008,10.564575,84.579)" stroke-width=".3985" stroke-linecap="butt" stroke-dasharray="2.98883,2.98883" stroke-miterlimit="10" stroke-linejoin="miter" fill="none" stroke="#000000" d="M93.0844 25.97206C17.28294 101.77351 260.5161 101.77338 184.71465 25.97192"/>
<path transform="matrix(1.00005,0,0,-1.00008,10.564575,84.579)" stroke-width=".3985" stroke-linecap="butt" stroke-miterlimit="10" stroke-linejoin="miter" fill="none" stroke="#000000" d="M150.07477 39.68607H127.72421"/>
<path transform="matrix(1.00005,0,0,-1.00008,10.564575,84.579)" stroke-width=".3985" stroke-linecap="butt" stroke-miterlimit="10" stroke-linejoin="miter" fill="none" stroke="#000000" d="M164.87197 33.5577 172.45697 25.9722"/>
<path transform="matrix(1.00005,0,0,-1.00008,10.564575,84.579)" stroke-width=".3985" stroke-linecap="butt" stroke-miterlimit="10" stroke-linejoin="miter" fill="none" stroke="#000000" d="M150.07477 0H127.72421"/>
<path transform="matrix(1.00005,0,0,-1.00008,10.564575,84.579)" stroke-width=".3985" stroke-linecap="butt" stroke-miterlimit="10" stroke-linejoin="miter" fill="none" stroke="#000000" d="M164.87183 6.12863 172.45684 13.71385"/>
<path transform="matrix(1.00005,0,0,-1.00008,10.564575,84.579)" stroke-width=".3985" stroke-linecap="butt" stroke-miterlimit="10" stroke-linejoin="miter" fill="none" stroke="#000000" d="M206.89522 19.84267C206.89522 24.51965 203.10387 28.31102 198.42687 28.31102 193.74988 28.31102 189.95851 24.51965 189.95851 19.84267 189.95851 15.16566 193.74988 11.37431 198.42687 11.37431 203.10387 11.37431 206.89522 15.16566 206.89522 19.84267ZM198.42687 19.84267"/>
<path transform="matrix(1.00005,0,0,-1.00008,10.564575,84.579)" stroke-width=".3985" stroke-linecap="butt" stroke-miterlimit="10" stroke-linejoin="miter" fill="none" stroke="#000000" d="M226.7379 39.68535C226.7379 44.36235 222.94654 48.1537 218.26955 48.1537 213.59255 48.1537 209.8012 44.36235 209.8012 39.68535 209.8012 35.00836 213.59255 31.217 218.26955 31.217 222.94654 31.217 226.7379 35.00836 226.7379 39.68535ZM218.26955 39.68535"/>
<path transform="matrix(1.00005,0,0,-1.00008,10.564575,84.579)" stroke-width=".3985" stroke-linecap="butt" stroke-miterlimit="10" stroke-linejoin="miter" fill="none" stroke="#000000" d="M266.42326 39.68535C266.42326 44.36235 262.6319 48.1537 257.9549 48.1537 253.27791 48.1537 249.48654 44.36235 249.48654 39.68535 249.48654 35.00836 253.27791 31.217 257.9549 31.217 262.6319 31.217 266.42326 35.00836 266.42326 39.68535ZM257.9549 39.68535"/>
<path transform="matrix(1.00005,0,0,-1.00008,10.564575,84.579)" stroke-width=".3985" stroke-linecap="butt" stroke-miterlimit="10" stroke-linejoin="miter" fill="none" stroke="#000000" d="M286.26597 19.84267C286.26597 24.51965 282.47459 28.31102 277.79759 28.31102 273.12059 28.31102 269.32926 24.51965 269.32926 19.84267 269.32926 15.16566 273.12059 11.37431 277.79759 11.37431 282.47459 11.37431 286.26597 15.16566 286.26597 19.84267ZM277.79759 19.84267"/>
<path transform="matrix(1.00005,0,0,-1.00008,10.564575,84.579)" stroke-width=".3985" stroke-linecap="butt" stroke-miterlimit="10" stroke-linejoin="miter" fill="none" stroke="#000000" d="M266.42326 0C266.42326 4.67699 262.6319 8.46835 257.9549 8.46835 253.27791 8.46835 249.48654 4.67699 249.48654 0 249.48654-4.67699 253.27791-8.46835 257.9549-8.46835 262.6319-8.46835 266.42326-4.67699 266.42326 0ZM257.9549 0"/>
<path transform="matrix(1.00005,0,0,-1.00008,10.564575,84.579)" stroke-width=".3985" stroke-linecap="butt" stroke-miterlimit="10" stroke-linejoin="miter" fill="none" stroke="#000000" d="M226.7379 0C226.7379 4.67699 222.94654 8.46835 218.26955 8.46835 213.59255 8.46835 209.8012 4.67699 209.8012 0 209.8012-4.67699 213.59255-8.46835 218.26955-8.46835 222.94654-8.46835 226.7379-4.67699 226.7379 0ZM218.26955 0"/>
<path transform="matrix(1.00005,0,0,-1.00008,10.564575,84.579)" stroke-width=".3985" stroke-linecap="butt" stroke-miterlimit="10" stroke-linejoin="miter" fill="none" stroke="#000000" d="M204.55564 25.97206 212.14087 33.55717"/>
<path transform="matrix(1.00005,0,0,-1.00008,10.564575,84.579)" stroke-width=".3985" stroke-linecap="butt" stroke-miterlimit="10" stroke-linejoin="miter" fill="none" stroke="#000000" d="M204.5559 13.71425 212.141 6.12901"/>
<path transform="matrix(1.00005,0,0,-1.00008,10.564575,84.579)" stroke-width=".3985" stroke-linecap="butt" stroke-dasharray="2.98883,2.98883" stroke-miterlimit="10" stroke-linejoin="miter" fill="none" stroke="#000000" d="M192.29784 13.71399C116.49638-62.08745 359.72956-62.08719 283.9281 13.71425"/>
<path transform="matrix(1.00005,0,0,-1.00008,10.564575,84.579)" stroke-width=".3985" stroke-linecap="butt" stroke-miterlimit="10" stroke-linejoin="miter" fill="none" stroke="#000000" d="M249.28823 39.68607H226.93767"/>
<path transform="matrix(1.00005,0,0,-1.00008,10.564575,84.579)" stroke-width=".3985" stroke-linecap="butt" stroke-miterlimit="10" stroke-linejoin="miter" fill="none" stroke="#000000" d="M264.08543 33.5577 271.6704 25.9722"/>
<path transform="matrix(1.00005,0,0,-1.00008,10.564575,84.579)" stroke-width=".3985" stroke-linecap="butt" stroke-miterlimit="10" stroke-linejoin="miter" fill="none" stroke="#000000" d="M249.28823 0H226.93767"/>
<path transform="matrix(1.00005,0,0,-1.00008,10.564575,84.579)" stroke-width=".3985" stroke-linecap="butt" stroke-miterlimit="10" stroke-linejoin="miter" fill="none" stroke="#000000" d="M264.08528 6.12863 271.67027 13.71385"/>
</svg>
