<svg xmlns="http://www.w3.org/2000/svg" xmlns:xlink="http://www.w3.org/1999/xlink" xmlns:inkscape="http://www.inkscape.org/namespaces/inkscape" version="1.1" width="177" height="222" viewBox="0 0 177 222">
<defs>
<path id="font_1_27" d="M.71699526 0V.0309906H.69898989C.6389923 .0309906 .625 .037979127 .6139984 .07095337L.397995 .6958008C.3929901 .7088165 .3909912 .7158203 .375 .7158203 .35899354 .7158203 .35598756 .70980837 .35099793 .6958008L.14399719 .09791565C.12599182 .04698181 .085998538 .03199768 .03199768 .0309906V0L.13398743 .0029907227 .24899292 0V.0309906C.19898987 .0309906 .17399597 .05596924 .17399597 .0819397 .17399597 .08493042 .1749878 .09492493 .17599488 .09692383L.22200012 .2277832H.46899415L.5219879 .07495117C.522995 .07095337 .5249939 .064956668 .5249939 .060958864 .5249939 .0309906 .46899415 .0309906 .44198609 .0309906V0C.47799684 .0029907227 .5479889 .0029907227 .58599856 .0029907227L.71699526 0M.45799256 .25878907H.23298645L.34498597 .58380129 .45799256 .25878907Z"/>
<path id="font_1_34" d="M.651001 .18289185C.651001 .26983644 .56900027 .34480287 .45799256 .35679627 .5549927 .3757782 .6239929 .43974305 .6239929 .51368716 .6239929 .6006317 .5319977 .6826172 .4019928 .6826172H.035995485V.6516113H.05999756C.13699341 .6516113 .13899231 .64060977 .13899231 .6046295V.07795715C.13899231 .041992189 .13699341 .0309906 .05999756 .0309906H.035995485V0H.42799378C.5609894-.0002593994 .651001 .08874512 .651001 .18273926V.18289185M.5269928 .5136719C.5269928 .44970704 .47799684 .36573792 .36698915 .36573792H.22200012V.6116333C.22200012 .64460757 .22399903 .6516113 .2709961 .6516113H.394989C.49198915 .65174868 .5269928 .56674197 .5269928 .51374819V.5136719M.5509949 .18386841C.5509949 .1129303 .49899293 .0309906 .3959961 .0309906H.2709961C.22399903 .0309906 .22200012 .037994386 .22200012 .07095337V.34375H.4099884C.5089874 .34399415 .5509949 .25099183 .5509949 .18399048V.18386841Z"/>
<path id="font_1_42" d="M.6649933 .23271179C.6649933 .24272156 .6649933 .24972534 .6519928 .24972534 .6409912 .24972534 .6409912 .24372864 .6399994 .23371887 .6319885 .09059143 .5249939 .008529663 .41600038 .008529663 .35499574 .008529663 .15899658 .042556764 .15899658 .34080506 .15899658 .64004519 .35398866 .67407229 .4149933 .67407229 .5239868 .67407229 .61299136 .58299258 .6329956 .4368744 .6349945 .42286683 .6349945 .41986085 .6489868 .41986085 .6649933 .41986085 .6649933 .42286683 .6649933 .44387818V.68107607C.6649933 .69807437 .6649933 .7050781 .6539917 .7050781 .6499939 .7050781 .6459961 .7050781 .6380005 .69306948L.58799746 .61901858C.5509949 .6550598 .5 .7050781 .4039917 .7050781 .21699524 .7050781 .055999757 .5459595 .055999757 .34179688 .055999757 .1346283 .21798706-.022460938 .4039917-.022460938 .5669861-.022460938 .6649933 .116622928 .6649933 .23271179Z"/>
<path id="font_1_46" d="M.70700076 .33580018C.70700076 .52568057 .57199099 .6826172 .40098573 .6826172H.034988405V.6516113H.05899048C.13598633 .6516113 .13798523 .64060977 .13798523 .6046295V.07795715C.13798523 .041992189 .13598633 .0309906 .05899048 .0309906H.034988405V0H.40098573C.56900027 0 .70700076 .1479187 .70700076 .33580018M.6069946 .33580018C.6069946 .22486878 .58799746 .16490174 .5519867 .11593628 .5319977 .08895874 .47499085 .0309906 .37399293 .0309906H.272995C.22599793 .0309906 .22399903 .037994386 .22399903 .07096863V.6116333C.22399903 .64460757 .22599793 .6516113 .272995 .6516113H.37298585C.43499757 .6516113 .5039978 .6296234 .5549927 .55867007 .59799197 .49969483 .6069946 .41375733 .6069946 .33580018Z"/>
<path id="font_1_49" d="M.6519928 .2579193H.6269989C.60198977 .10397339 .57899478 .0309906 .40699769 .0309906H.27398683C.22698975 .0309906 .22499085 .037994386 .22499085 .07098389V.33789063H.31498719C.4119873 .33789063 .4229889 .30589295 .4229889 .220932H.44799806V.48606874H.4229889C.4229889 .39994813 .4119873 .36888124 .31498719 .36888124H.22499085V.6087799C.22499085 .6416931 .22698975 .64868167 .27398683 .64868167H.40299989C.55599978 .64868167 .58299258 .59381106 .598999 .45507813H.6239929L.59599307 .6796875H.032989503V.64868167H.056991579C.13398743 .64868167 .13598633 .6377106 .13598633 .6017914V.07797241C.13598633 .041992189 .13398743 .0309906 .056991579 .0309906H.032989503V0H.6100006L.6519928 .2579193Z"/>
<path id="font_1_54" d="M.6100006 .45477296 .58200076 .6796875H.032989503V.64868167H.056991579C.13398743 .64868167 .13598633 .63768008 .13598633 .6016998V.07797241C.13598633 .041992189 .13398743 .0309906 .056991579 .0309906H.032989503V0C.067993167 .0029907227 .1459961 .0029907227 .18499756 .0029907227 .22599793 .0029907227 .31698609 .0029907227 .35299684 0V.0309906H.31999208C.22499085 .031188965 .22499085 .044189454 .22499085 .079193118V.3251953H.31098939C.40699769 .3251953 .4169922 .29318238 .4169922 .20819092H.44198609V.4731903H.4169922C.4169922 .38919068 .40699769 .3561859 .31098939 .3561859H.22499085V.6091919C.22499085 .64167788 .22698975 .64868167 .27398683 .64868167H.3939972C.5439911 .64868167 .56900027 .5926819 .58499148 .4546814L.6100006 .45477296Z"/>
<path id="font_2_6" d="M.13198853 .327713V.35173036C.13198853 .6047821 .2559967 .64100649 .30699159 .64100649 .33099366 .64100649 .37298585 .634964 .394989 .6007538 .37998963 .6007538 .33999635 .6007538 .33999635 .5557556 .33999635 .524765 .3639984 .5097656 .38598634 .5097656 .4019928 .5097656 .43199159 .51875308 .43199159 .5577545 .43199159 .6178589 .3880005 .6660156 .30499269 .6660156 .1769867 .6660156 .041992189 .5367584 .041992189 .31570436 .041992189 .048553468 .1579895-.022460938 .25099183-.022460938 .3619995-.022460938 .45700074 .07156372 .45700074 .2036438 .45700074 .33070375 .36799623 .4267578 .25698854 .4267578 .18899536 .4267578 .1519928 .37573243 .13198853 .327713M.25099183 .0055389406C.18798828 .0055389406 .1579895 .06556702 .1519928 .080566409 .13398743 .127594 .13398743 .2076416 .13398743 .22564698 .13398743 .30369569 .1659851 .40374757 .2559967 .40374757 .27198792 .40374757 .31799317 .40374757 .34899903 .34172059 .36698915 .30470277 .36698915 .2536621 .36698915 .20463562 .36698915 .15661621 .36698915 .10658264 .34999085 .0705719 .31999208 .010528564 .27398683 .0055389406 .25099183 .0055389406Z"/>
<path id="font_2_4" d="M.2939911 .16503906V.07800293C.2939911 .041992189 .2919922 .0309906 .21798706 .0309906H.19699097V0C.23799134 .0029907227 .2899933 .0029907227 .33198548 .0029907227 .37399293 .0029907227 .4269867 .0029907227 .46798707 0V.0309906H.44699098C.37298585 .0309906 .37098695 .041992189 .37098695 .07800293V.16503906H.47099305V.19602967H.37098695V.65075686C.37098695 .67074587 .37098695 .6767578 .35499574 .6767578 .34599305 .6767578 .34298707 .6767578 .33499146 .66474917L.027999878 .19602967V.16503906H.2939911M.2999878 .19602967H.055999757L.2999878 .5688019V.19602967Z"/>
<path id="font_2_5" d="M.44898988 .20022583C.44898988 .3193512 .36698915 .41944886 .25898744 .41944886 .21099854 .41944886 .16799927 .40345765 .13198853 .36842347V.5637665C.1519928 .5577698 .18499756 .55078127 .21699524 .55078127 .33999635 .55078127 .4099884 .6417694 .4099884 .6547699 .4099884 .6607666 .40699769 .6657715 .3999939 .6657715 .39898683 .6657715 .39698792 .6657715 .3919983 .66278079 .37199403 .6537781 .32299806 .6337738 .2559967 .6337738 .21598816 .6337738 .16999817 .6407776 .12298584 .6617737 .114990238 .66477969 .11299133 .66477969 .11099243 .66477969 .100997928 .66477969 .100997928 .6567688 .100997928 .6407776V.34439088C.100997928 .32637025 .100997928 .31835938 .114990238 .31835938 .12199402 .31835938 .12399292 .32136537 .12799073 .32736207 .13899231 .3433838 .17599488 .39746095 .25698854 .39746095 .30899049 .39746095 .33399964 .35139466 .34199525 .33337403 .35798646 .29632569 .3600006 .25727845 .3600006 .20722962 .3600006 .17222595 .3600006 .11222839 .33599855 .07035828 .31199647 .031463624 .2749939 .0055389406 .22898865 .0055389406 .1559906 .0055389406 .09899902 .058380128 .08198547 .11723328 .084991458 .1162262 .08799744 .115234378 .09899902 .115234378 .13198853 .115234378 .14898682 .14022827 .14898682 .16423035 .14898682 .18823242 .13198853 .21322632 .09899902 .21322632 .084991458 .21322632 .049987794 .20622254 .049987794 .16023255 .049987794 .07434082 .11898804-.022460938 .23098755-.022460938 .34700013-.022460938 .44898988 .073349 .44898988 .20022583Z"/>
<path id="font_2_3" d="M.2899933 .35191346C.37199403 .37893678 .42999269 .4490509 .42999269 .52809146 .42999269 .6100464 .34199525 .6660156 .24598694 .6660156 .14498902 .6660156 .068984989 .60606387 .068984989 .53009036 .068984989 .49710084 .09098816 .47808839 .11999512 .47808839 .15098572 .47808839 .17098999 .50009158 .17098999 .5290985 .17098999 .57910159 .12399292 .57910159 .10899353 .57910159 .13999939 .62802127 .20599365 .64100649 .24198914 .64100649 .2829895 .64100649 .33799745 .6190338 .33799745 .5290985 .33799745 .51708987 .33599855 .45906068 .30999757 .4149933 .27999879 .36691285 .24598694 .36390687 .22099304 .36291505 .21299744 .36190797 .18899536 .35990907 .18199158 .35990907 .17399597 .35890199 .16699219 .35791017 .16699219 .3479004 .16699219 .33691407 .17399597 .33691407 .19099427 .33691407H.23498535C.31698609 .33691407 .35398866 .2686615 .35398866 .17037964 .35398866 .034469606 .2849884 .0055389406 .24099732 .0055389406 .19799805 .0055389406 .12298584 .022491456 .08799744 .08137512 .12298584 .07637024 .1539917 .09837341 .1539917 .1363678 .1539917 .17237854 .1269989 .19238281 .09799194 .19238281 .07398987 .19238281 .041992189 .17837525 .041992189 .1343689 .041992189 .043441774 .1349945-.022460938 .24398804-.022460938 .3659973-.022460938 .45700074 .06838989 .45700074 .17037964 .45700074 .252594 .3939972 .33088685 .2899933 .35191346Z"/>
<path id="font_2_8" d="M.16299439 .4569702C.116989139 .486969 .11299133 .52098086 .11299133 .5379791 .11299133 .598999 .17799378 .64100649 .24899292 .64100649 .32199098 .64100649 .38598634 .58898928 .38598634 .51698306 .38598634 .45996095 .34700013 .4119568 .2869873 .37695313L.16299439 .4569702M.30899049 .36193849C.3809967 .3989563 .42999269 .45095826 .42999269 .51698306 .42999269 .6090088 .34098817 .6660156 .25 .6660156 .1499939 .6660156 .068984989 .59199526 .068984989 .49897767 .068984989 .4809723 .070999149 .43595887 .11299133 .38894654 .12399292 .37695313 .16099549 .35194398 .18598938 .33494569 .12799073 .30592347 .041992189 .24984741 .041992189 .15072632 .041992189 .04458618 .14399719-.022460938 .24899292-.022460938 .3619995-.022460938 .45700074 .06060791 .45700074 .16773987 .45700074 .20379639 .44599916 .24885559 .4079895 .2909088 .3889923 .31193543 .37298585 .3219452 .30899049 .36193849M.20899964 .3199463 .33198548 .24183655C.3600006 .2228241 .40699769 .19277954 .40699769 .13169861 .40699769 .05760193 .33198548 .0055389406 .25 .0055389406 .1639862 .0055389406 .09199524 .067611698 .09199524 .15072632 .09199524 .20880127 .12399292 .27288819 .20899964 .3199463Z"/>
<path id="font_2_2" d="M.2939911 .64004519C.2939911 .66400149 .2939911 .6660156 .2709961 .6660156 .20899964 .60227969 .12098694 .60227969 .08898926 .60227969V.57128909C.10899353 .57128909 .16799927 .57128909 .21998596 .5972748V.07902527C.21998596 .042999269 .21699524 .0309906 .1269989 .0309906H.09498596V0C.12998963 .0029907227 .21699524 .0029907227 .25698854 .0029907227 .29699708 .0029907227 .38398744 .0029907227 .4189911 0V.0309906H.3869934C.29699708 .0309906 .2939911 .041992189 .2939911 .07902527V.64004519Z"/>
<path id="font_2_7" d="M.47599793 .609375C.4850006 .6213684 .4850006 .62338259 .4850006 .64437869H.24198914C.11999512 .64437869 .117996219 .65737918 .11399841 .67637637H.08898926L.055999757 .4702301H.08099365C.083999637 .48625184 .09298706 .5493469 .10598755 .56137087 .11299133 .5673828 .19099427 .5673828 .20399475 .5673828H.41099549C.3999939 .5513611 .32099916 .4421997 .29899598 .40914918 .20899964 .27394105 .17599488 .1347351 .17599488 .032577516 .17599488 .022567749 .17599488-.022460938 .22200012-.022460938 .2679901-.022460938 .2679901 .022567749 .2679901 .032577516V.08366394C.2679901 .13873291 .2709961 .19381714 .2789917 .24790955 .2829895 .27093507 .29699708 .35707093 .34098817 .41915895L.47599793 .609375Z"/>
<path id="font_2_9" d="M.36698915 .31781007V.28579713C.36698915 .05178833 .2630005 .0055389406 .20498657 .0055389406 .18798828 .0055389406 .13398743 .007537842 .10699463 .041778566 .15098572 .041778566 .15899658 .07078552 .15899658 .08778381 .15899658 .118774417 .1349945 .13378906 .11299133 .13378906 .09700012 .13378906 .066986087 .12478638 .066986087 .08578491 .066986087 .018615723 .12098694-.022460938 .20599365-.022460938 .33499146-.022460938 .45700074 .11378479 .45700074 .32881166 .45700074 .5979767 .34199525 .6660156 .25299073 .6660156 .19799805 .6660156 .14898682 .64801028 .10598755 .60298159 .06498718 .5579529 .041992189 .5159302 .041992189 .44088746 .041992189 .31581117 .12998963 .21777344 .24198914 .21777344 .30299378 .21777344 .34399415 .25978089 .36698915 .31781007M.24299622 .24076844C.22698975 .24076844 .18099976 .24076844 .1499939 .3038025 .13198853 .3408203 .13198853 .39085389 .13198853 .43988038 .13198853 .49391175 .13198853 .54093936 .15299988 .5779724 .17999268 .6279907 .21798706 .64100649 .25299073 .64100649 .29899598 .64100649 .33198548 .60697939 .34899903 .5619507 .36099244 .52993777 .36499024 .4669037 .36499024 .42086793 .36499024 .3378296 .33099366 .24076844 .24299622 .24076844Z"/>
<path id="font_2_1" d="M.45999146 .31976319C.45999146 .39982606 .45498658 .47988893 .41999818 .5539398 .37399293 .65000918 .2919922 .6660156 .25 .6660156 .18998719 .6660156 .116989139 .64001467 .07598877 .54693606 .04399109 .47789 .038986207 .39982606 .038986207 .31976319 .038986207 .24472046 .042999269 .15464783 .083999637 .07859802 .1269989-.0024719239 .19999695-.022460938 .24899292-.022460938 .30299378-.022460938 .3789978-.0014648438 .4229889 .09359741 .45498658 .16265869 .45999146 .2407074 .45999146 .31976319M.24899292-.00047302247C.20999146-.00047302247 .15098572 .024551392 .1329956 .12062073 .12199402 .18066406 .12199402 .2727356 .12199402 .3317871 .12199402 .39582826 .12199402 .46188355 .12998963 .5159149 .14898682 .63500979 .22399903 .64401248 .24899292 .64401248 .28199769 .64401248 .34799195 .6259918 .36698915 .52693179 .3769989 .47088624 .3769989 .39482118 .3769989 .3317871 .3769989 .25672914 .3769989 .18867493 .3659973 .12461853 .35099793 .029556275 .2939911-.00047302247 .24899292-.00047302247Z"/>
</defs>
<path transform="matrix(1,0,0,-1,24.431,125.149)" stroke-width=".79701" stroke-linecap="butt" stroke-miterlimit="10" stroke-linejoin="miter" fill="none" stroke="#000000" d="M9.8713 0C9.8713 5.45183 5.45183 9.8713 0 9.8713-5.45183 9.8713-9.8713 5.45183-9.8713 0-9.8713-5.45183-5.45183-9.8713 0-9.8713 5.45183-9.8713 9.8713-5.45183 9.8713 0ZM0 0"/>
<use data-text="A" xlink:href="#font_1_27" transform="matrix(9.9626,0,0,-9.9626,20.695,128.716)"/>
<path transform="matrix(1,0,0,-1,24.431,125.149)" stroke-width=".79701" stroke-linecap="butt" stroke-miterlimit="10" stroke-linejoin="miter" fill="none" stroke="#000000" d="M9.5787 85.04042C9.5787 90.33064 5.29022 94.61913 0 94.61913-5.29022 94.61913-9.5787 90.33064-9.5787 85.04042-9.5787 79.7502-5.29022 75.46172 0 75.46172 5.29022 75.46172 9.5787 79.7502 9.5787 85.04042ZM0 85.04042"/>
<use data-text="B" xlink:href="#font_1_34" transform="matrix(9.9626,0,0,-9.9626,20.904,43.511)"/>
<path transform="matrix(1,0,0,-1,24.431,125.149)" stroke-width=".79701" stroke-linecap="butt" stroke-miterlimit="10" stroke-linejoin="miter" fill="none" stroke="#000000" d="M80.63155 113.38724C80.63155 118.7801 76.25989 123.15176 70.867 123.15176 65.47414 123.15176 61.10248 118.7801 61.10248 113.38724 61.10248 107.99435 65.47414 103.6227 70.867 103.6227 76.25989 103.6227 80.63155 107.99435 80.63155 113.38724ZM70.867 113.38724"/>
<use data-text="C" xlink:href="#font_1_42" transform="matrix(9.9626,0,0,-9.9626,91.701,15.164001)"/>
<path transform="matrix(1,0,0,-1,24.431,125.149)" stroke-width=".79701" stroke-linecap="butt" stroke-miterlimit="10" stroke-linejoin="miter" fill="none" stroke="#000000" d="M80.67508 28.3468C80.67508 33.7637 76.28392 38.15488 70.867 38.15488 65.4501 38.15488 61.05893 33.7637 61.05893 28.3468 61.05893 22.9299 65.4501 18.53873 70.867 18.53873 76.28392 18.53873 80.67508 22.9299 80.67508 28.3468ZM70.867 28.3468"/>
<use data-text="D" xlink:href="#font_1_46" transform="matrix(9.9626,0,0,-9.9626,91.492,100.204)"/>
<path transform="matrix(1,0,0,-1,24.431,125.149)" stroke-width=".79701" stroke-linecap="butt" stroke-miterlimit="10" stroke-linejoin="miter" fill="none" stroke="#000000" d="M80.36131-85.04042C80.36131-79.7968 76.11063-75.54611 70.867-75.54611 65.6234-75.54611 61.37271-79.7968 61.37271-85.04042 61.37271-90.28404 65.6234-94.53473 70.867-94.53473 76.11063-94.53473 80.36131-90.28404 80.36131-85.04042ZM70.867-85.04042"/>
<use data-text="E" xlink:href="#font_1_49" transform="matrix(9.9626,0,0,-9.9626,91.906,213.577)"/>
<path transform="matrix(1,0,0,-1,24.431,125.149)" stroke-width=".79701" stroke-linecap="butt" stroke-miterlimit="10" stroke-linejoin="miter" fill="none" stroke="#000000" d="M151.11768 85.04042C151.11768 90.22292 146.91654 94.42406 141.73404 94.42406 136.55155 94.42406 132.3504 90.22292 132.3504 85.04042 132.3504 79.85793 136.55155 75.65678 141.73404 75.65678 146.91654 75.65678 151.11768 79.85793 151.11768 85.04042ZM141.73404 85.04042"/>
<use data-text="F" xlink:href="#font_1_54" transform="matrix(9.9626,0,0,-9.9626,162.912,43.496004)"/>
<path transform="matrix(1,0,0,-1,24.431,125.149)" stroke-width="1.19553" stroke-linecap="butt" stroke-miterlimit="10" stroke-linejoin="miter" fill="none" stroke="#ff0000" d="M9.53485 3.81386 56.60313 22.64134"/>
<path transform="matrix(.92844,-.37137,-.37137,-.92844,78.05205,103.70047)" d="M6.66628 0 1.93044 1.79556 3.5108 0 1.93044-1.79556Z"/>
<path transform="matrix(.92844,-.37137,-.37137,-.92844,78.05205,103.70047)" stroke-width="1.19553" stroke-linecap="butt" stroke-miterlimit="10" stroke-linejoin="miter" fill="none" stroke="#000000" d="M6.66628 0 1.93044 1.79556 3.5108 0 1.93044-1.79556Z"/>
<path transform="matrix(1,0,0,-1,24.431,125.149)" d="M44.21602 14.18512C44.21602 19.01942 40.29715 22.93831 35.46284 22.93831 30.62854 22.93831 26.70967 19.01942 26.70967 14.18512 26.70967 9.35081 30.62854 5.43195 35.46284 5.43195 40.29715 5.43195 44.21602 9.35081 44.21602 14.18512ZM35.46284 14.18512" fill="#ffffff"/>
<use data-text="6" xlink:href="#font_2_6" transform="matrix(9.9626,0,0,-9.9626,57.403,114.174)"/>
<path transform="matrix(1,0,0,-1,24.431,125.149)" stroke-width="1.19553" stroke-linecap="butt" stroke-miterlimit="10" stroke-linejoin="miter" fill="none" stroke="#ff0000" d="M70.867 38.55338V98.06743"/>
<path transform="matrix(0,-1,-1,-0,95.298,30.293526)" d="M6.66628 0 1.93044 1.79556 3.5108 0 1.93044-1.79556Z"/>
<path transform="matrix(0,-1,-1,-0,95.298,30.293526)" stroke-width="1.19553" stroke-linecap="butt" stroke-miterlimit="10" stroke-linejoin="miter" fill="none" stroke="#000000" d="M6.66628 0 1.93044 1.79556 3.5108 0 1.93044-1.79556Z"/>
<path transform="matrix(1,0,0,-1,24.431,125.149)" d="M79.6202 70.88878C79.6202 75.72308 75.70131 79.64195 70.867 79.64195 66.0327 79.64195 62.11383 75.72308 62.11383 70.88878 62.11383 66.05447 66.0327 62.1356 70.867 62.1356 75.70131 62.1356 79.6202 66.05447 79.6202 70.88878ZM70.867 70.88878" fill="#ffffff"/>
<use data-text="4" xlink:href="#font_2_4" transform="matrix(9.9626,0,0,-9.9626,92.807,57.47)"/>
<path transform="matrix(1,0,0,-1,24.431,125.149)" stroke-width="1.19553" stroke-linecap="butt" stroke-miterlimit="10" stroke-linejoin="miter" fill="none" stroke="#ff0000" d="M80.30273 109.613 127.86423 90.58824"/>
<path transform="matrix(.92844,.37137,.37137,-.92844,149.31314,33.36795)" d="M6.66628 0 1.93044 1.79556 3.5108 0 1.93044-1.79556Z"/>
<path transform="matrix(.92844,.37137,.37137,-.92844,149.31314,33.36795)" stroke-width="1.19553" stroke-linecap="butt" stroke-miterlimit="10" stroke-linejoin="miter" fill="none" stroke="#000000" d="M6.66628 0 1.93044 1.79556 3.5108 0 1.93044-1.79556Z"/>
<path transform="matrix(1,0,0,-1,24.431,125.149)" d="M115.23051 99.1431C115.23051 103.9774 111.31165 107.89627 106.47734 107.89627 101.64304 107.89627 97.72417 103.9774 97.72417 99.1431 97.72417 94.30879 101.64304 90.38992 106.47734 90.38992 111.31165 90.38992 115.23051 94.30879 115.23051 99.1431ZM106.47734 99.1431" fill="#ffffff"/>
<use data-text="5" xlink:href="#font_2_5" transform="matrix(9.9626,0,0,-9.9626,128.418,29.216004)"/>
<path transform="matrix(1,0,0,-1,24.431,125.149)" stroke-width="1.19553" stroke-linecap="butt" stroke-miterlimit="10" stroke-linejoin="miter" fill="none" stroke="#ff0000" d="M134.09593 78.92989 82.86304 37.94373"/>
<path transform="matrix(-.78082,.62466,.62466,.78082,109.80199,85.1989)" d="M6.66628 0 1.93044 1.79556 3.5108 0 1.93044-1.79556Z"/>
<path transform="matrix(-.78082,.62466,.62466,.78082,109.80199,85.1989)" stroke-width="1.19553" stroke-linecap="butt" stroke-miterlimit="10" stroke-linejoin="miter" fill="none" stroke="#000000" d="M6.66628 0 1.93044 1.79556 3.5108 0 1.93044-1.79556Z"/>
<path transform="matrix(1,0,0,-1,24.431,125.149)" d="M115.2194 56.82619C115.2194 61.66049 111.30054 65.57936 106.46623 65.57936 101.63193 65.57936 97.71304 61.66049 97.71304 56.82619 97.71304 51.99188 101.63193 48.07301 106.46623 48.07301 111.30054 48.07301 115.2194 51.99188 115.2194 56.82619ZM106.46623 56.82619" fill="#ffffff"/>
<use data-text="3" xlink:href="#font_2_3" transform="matrix(9.9626,0,0,-9.9626,128.407,71.533008)"/>
<path transform="matrix(1,0,0,-1,24.431,125.149)" stroke-width="1.19553" stroke-linecap="butt" stroke-miterlimit="10" stroke-linejoin="miter" fill="none" stroke="#ff0000" d="M70.867 18.14023V-69.99084"/>
<path transform="matrix(0,1,1,0,95.298,191.92792)" d="M6.66628 0 1.93044 1.79556 3.5108 0 1.93044-1.79556Z"/>
<path transform="matrix(0,1,1,0,95.298,191.92792)" stroke-width="1.19553" stroke-linecap="butt" stroke-miterlimit="10" stroke-linejoin="miter" fill="none" stroke="#000000" d="M6.66628 0 1.93044 1.79556 3.5108 0 1.93044-1.79556Z"/>
<path transform="matrix(1,0,0,-1,24.431,125.149)" d="M79.6202-28.5037C79.6202-23.66939 75.70131-19.7505 70.867-19.7505 66.0327-19.7505 62.11383-23.66939 62.11383-28.5037 62.11383-33.338 66.0327-37.25687 70.867-37.25687 75.70131-37.25687 79.6202-33.338 79.6202-28.5037ZM70.867-28.5037" fill="#ffffff"/>
<use data-text="8" xlink:href="#font_2_8" transform="matrix(9.9626,0,0,-9.9626,92.807,156.863)"/>
<path transform="matrix(1,0,0,-1,24.431,125.149)" stroke-width=".3985" stroke-linecap="butt" stroke-miterlimit="10" stroke-linejoin="miter" fill="none" stroke="#000000" d="M0 10.2698V75.06322"/>
<path transform="matrix(1,0,0,-1,24.431,125.149)" d="M8.75317 42.6665C8.75317 47.50081 4.8343 51.41968 0 51.41968-4.8343 51.41968-8.75317 47.50081-8.75317 42.6665-8.75317 37.8322-4.8343 33.91333 0 33.91333 4.8343 33.91333 8.75317 37.8322 8.75317 42.6665ZM0 42.6665" fill="#ffffff"/>
<use data-text="3" xlink:href="#font_2_3" transform="matrix(9.9626,0,0,-9.9626,21.940003,85.693)"/>
<path transform="matrix(1,0,0,-1,24.431,125.149)" stroke-width=".3985" stroke-linecap="butt" stroke-miterlimit="10" stroke-linejoin="miter" fill="none" stroke="#000000" d="M9.2632 88.74564 61.43127 109.613"/>
<path transform="matrix(1,0,0,-1,24.431,125.149)" d="M44.10042 99.1793C44.10042 104.01361 40.18155 107.9325 35.34724 107.9325 30.51294 107.9325 26.59406 104.01361 26.59406 99.1793 26.59406 94.345 30.51294 90.42613 35.34724 90.42613 40.18155 90.42613 44.10042 94.345 44.10042 99.1793ZM35.34724 99.1793" fill="#ffffff"/>
<use data-text="1" xlink:href="#font_2_2" transform="matrix(9.9626,0,0,-9.9626,57.287996,29.18)"/>
<path transform="matrix(1,0,0,-1,24.431,125.149)" stroke-width=".3985" stroke-linecap="butt" stroke-miterlimit="10" stroke-linejoin="miter" fill="none" stroke="#000000" d="M6.57422-7.88913 64.5341-77.44089"/>
<path transform="matrix(1,0,0,-1,24.431,125.149)" d="M44.30734-42.66501C44.30734-37.8307 40.38847-33.91183 35.55417-33.91183 30.71986-33.91183 26.801-37.8307 26.801-42.66501 26.801-47.49931 30.71986-51.4182 35.55417-51.4182 40.38847-51.4182 44.30734-47.49931 44.30734-42.66501ZM35.55417-42.66501" fill="#ffffff"/>
<use data-text="7" xlink:href="#font_2_7" transform="matrix(9.9626,0,0,-9.9626,57.494005,171.024)"/>
<path transform="matrix(1,0,0,-1,24.431,125.149)" stroke-width=".3985" stroke-linecap="butt" stroke-miterlimit="10" stroke-linejoin="miter" fill="none" stroke="#000000" d="M74.67162-75.90916 137.97202 76.01132"/>
<path transform="matrix(1,0,0,-1,24.431,125.149)" d="M115.07498 .05107C115.07498 4.88538 111.15611 8.80424 106.32181 8.80424 101.4875 8.80424 97.56863 4.88538 97.56863 .05107 97.56863-4.78322 101.4875-8.70209 106.32181-8.70209 111.15611-8.70209 115.07498-4.78322 115.07498 .05107ZM106.32181 .05107" fill="#ffffff"/>
<use data-text="9" xlink:href="#font_2_9" transform="matrix(9.9626,0,0,-9.9626,128.262,128.308)"/>
<path transform="matrix(1,0,0,-1,24.431,125.149)" stroke-width=".3985" stroke-linecap="butt" stroke-miterlimit="10" stroke-linejoin="miter" fill="none" stroke="#000000" d="M-6.05685 77.11253C-47.3362 23.0376-6.41331-75.05853 61.05663-83.76987"/>
<path transform="matrix(1,0,0,-1,24.431,125.149)" d="M-2.70757-20.34001C-2.70757-14.50035-7.44144-9.7665-13.2811-9.7665-19.12076-9.7665-23.85461-14.50035-23.85461-20.34001-23.85461-26.17967-19.12076-30.91353-13.2811-30.91353-7.44144-30.91353-2.70757-26.17967-2.70757-20.34001ZM-13.2811-20.34001" fill="#ffffff"/>
<use data-text="1" xlink:href="#font_2_2" transform="matrix(9.9626,0,0,-9.9626,6.1689989,148.699)"/>
<use data-text="0" xlink:href="#font_2_1" transform="matrix(9.9626,0,0,-9.9626,11.150291,148.699)"/>
</svg>
