<svg xmlns="http://www.w3.org/2000/svg" xmlns:xlink="http://www.w3.org/1999/xlink" xmlns:inkscape="http://www.inkscape.org/namespaces/inkscape" version="1.1" width="264" height="194" viewBox="0 0 264 194">
<defs>
<path id="font_1_1" d="M.2939911 .64004519C.2939911 .66400149 .2939911 .6660156 .2709961 .6660156 .20899964 .60227969 .12098694 .60227969 .08898926 .60227969V.57128909C.10899353 .57128909 .16799927 .57128909 .21998596 .5972748V.07902527C.21998596 .042999269 .21699524 .0309906 .1269989 .0309906H.09498596V0C.12998963 .0029907227 .21699524 .0029907227 .25698854 .0029907227 .29699708 .0029907227 .38398744 .0029907227 .4189911 0V.0309906H.3869934C.29699708 .0309906 .2939911 .041992189 .2939911 .07902527V.64004519Z"/>
<path id="font_1_2" d="M.1269989 .07699585 .23298645 .18003845C.3889923 .31811524 .44898988 .3721466 .44898988 .47216798 .44898988 .5860901 .35899354 .6660156 .23699951 .6660156 .12399292 .6660156 .049987794 .57411196 .049987794 .48516847 .049987794 .4291687 .099990848 .4291687 .102996829 .4291687 .11999512 .4291687 .15499878 .44117738 .15499878 .48217774 .15499878 .5081787 .13699341 .5341797 .101989749 .5341797 .09399414 .5341797 .09199524 .5341797 .08898926 .5331726 .11199951 .59806826 .1659851 .63500979 .22399903 .63500979 .31498719 .63500979 .35798646 .5541382 .35798646 .47216798 .35798646 .39215089 .30799867 .31311036 .25299073 .25108338L.06098938 .036987306C.049987794 .025985718 .049987794 .023986817 .049987794 0H.42099L.44898988 .17404175H.42399598C.4189911 .14402771 .4119873 .1000061 .4019928 .084991458 .394989 .07699585 .32899476 .07699585 .30699159 .07699585H.1269989Z"/>
<path id="font_1_3" d="M.2899933 .35191346C.37199403 .37893678 .42999269 .4490509 .42999269 .52809146 .42999269 .6100464 .34199525 .6660156 .24598694 .6660156 .14498902 .6660156 .068984989 .60606387 .068984989 .53009036 .068984989 .49710084 .09098816 .47808839 .11999512 .47808839 .15098572 .47808839 .17098999 .50009158 .17098999 .5290985 .17098999 .57910159 .12399292 .57910159 .10899353 .57910159 .13999939 .62802127 .20599365 .64100649 .24198914 .64100649 .2829895 .64100649 .33799745 .6190338 .33799745 .5290985 .33799745 .51708987 .33599855 .45906068 .30999757 .4149933 .27999879 .36691285 .24598694 .36390687 .22099304 .36291505 .21299744 .36190797 .18899536 .35990907 .18199158 .35990907 .17399597 .35890199 .16699219 .35791017 .16699219 .3479004 .16699219 .33691407 .17399597 .33691407 .19099427 .33691407H.23498535C.31698609 .33691407 .35398866 .2686615 .35398866 .17037964 .35398866 .034469606 .2849884 .0055389406 .24099732 .0055389406 .19799805 .0055389406 .12298584 .022491456 .08799744 .08137512 .12298584 .07637024 .1539917 .09837341 .1539917 .1363678 .1539917 .17237854 .1269989 .19238281 .09799194 .19238281 .07398987 .19238281 .041992189 .17837525 .041992189 .1343689 .041992189 .043441774 .1349945-.022460938 .24398804-.022460938 .3659973-.022460938 .45700074 .06838989 .45700074 .17037964 .45700074 .252594 .3939972 .33088685 .2899933 .35191346Z"/>
<path id="font_1_4" d="M.2939911 .16503906V.07800293C.2939911 .041992189 .2919922 .0309906 .21798706 .0309906H.19699097V0C.23799134 .0029907227 .2899933 .0029907227 .33198548 .0029907227 .37399293 .0029907227 .4269867 .0029907227 .46798707 0V.0309906H.44699098C.37298585 .0309906 .37098695 .041992189 .37098695 .07800293V.16503906H.47099305V.19602967H.37098695V.65075686C.37098695 .67074587 .37098695 .6767578 .35499574 .6767578 .34599305 .6767578 .34298707 .6767578 .33499146 .66474917L.027999878 .19602967V.16503906H.2939911M.2999878 .19602967H.055999757L.2999878 .5688019V.19602967Z"/>
<path id="font_1_5" d="M.44898988 .20022583C.44898988 .3193512 .36698915 .41944886 .25898744 .41944886 .21099854 .41944886 .16799927 .40345765 .13198853 .36842347V.5637665C.1519928 .5577698 .18499756 .55078127 .21699524 .55078127 .33999635 .55078127 .4099884 .6417694 .4099884 .6547699 .4099884 .6607666 .40699769 .6657715 .3999939 .6657715 .39898683 .6657715 .39698792 .6657715 .3919983 .66278079 .37199403 .6537781 .32299806 .6337738 .2559967 .6337738 .21598816 .6337738 .16999817 .6407776 .12298584 .6617737 .114990238 .66477969 .11299133 .66477969 .11099243 .66477969 .100997928 .66477969 .100997928 .6567688 .100997928 .6407776V.34439088C.100997928 .32637025 .100997928 .31835938 .114990238 .31835938 .12199402 .31835938 .12399292 .32136537 .12799073 .32736207 .13899231 .3433838 .17599488 .39746095 .25698854 .39746095 .30899049 .39746095 .33399964 .35139466 .34199525 .33337403 .35798646 .29632569 .3600006 .25727845 .3600006 .20722962 .3600006 .17222595 .3600006 .11222839 .33599855 .07035828 .31199647 .031463624 .2749939 .0055389406 .22898865 .0055389406 .1559906 .0055389406 .09899902 .058380128 .08198547 .11723328 .084991458 .1162262 .08799744 .115234378 .09899902 .115234378 .13198853 .115234378 .14898682 .14022827 .14898682 .16423035 .14898682 .18823242 .13198853 .21322632 .09899902 .21322632 .084991458 .21322632 .049987794 .20622254 .049987794 .16023255 .049987794 .07434082 .11898804-.022460938 .23098755-.022460938 .34700013-.022460938 .44898988 .073349 .44898988 .20022583Z"/>
<path id="font_2_82" d="M.4189911 0V.0309906H.3869934C.29699708 .0309906 .2939911 .041992189 .2939911 .07902527V.64012148C.2939911 .6640167 .2939911 .6660156 .2709961 .6660156 .20899964 .60227969 .12098694 .60227969 .08898926 .60227969V.57128909C.10899353 .57128909 .16799927 .57128909 .21998596 .5972748V.07902527C.21998596 .042999269 .21699524 .0309906 .1269989 .0309906H.09498596V0C.12998963 .0029907227 .21699524 .0029907227 .25698854 .0029907227 .29699708 .0029907227 .38398744 .0029907227 .4189911 0Z"/>
<path id="font_2_106" d="M.45700074 .17037964C.45700074 .252594 .3939972 .33088685 .2899933 .35191346 .37199403 .37893678 .42999269 .4490509 .42999269 .52809146 .42999269 .6100464 .34199525 .6660156 .24598694 .6660156 .14498902 .6660156 .068984989 .60606387 .068984989 .53009036 .068984989 .49710084 .09098816 .47808839 .11999512 .47808839 .15098572 .47808839 .17098999 .50009158 .17098999 .5290985 .17098999 .57910159 .12399292 .57910159 .10899353 .57910159 .13999939 .62802127 .20599365 .64100649 .24198914 .64100649 .2829895 .64100649 .33799745 .6190338 .33799745 .5290985 .33799745 .51708987 .33599855 .45906068 .30999757 .4149933 .27999879 .36691285 .24598694 .36390687 .22099304 .36291505 .21299744 .36190797 .18899536 .35990907 .18199158 .35990907 .17399597 .35890199 .16699219 .35791017 .16699219 .3479004 .16699219 .33691407 .17399597 .33691407 .19099427 .33691407H.23498535C.31698609 .33691407 .35398866 .2686615 .35398866 .17037964 .35398866 .034469606 .2849884 .0055389406 .24099732 .0055389406 .19799805 .0055389406 .12298584 .022491456 .08799744 .08137512 .12298584 .07637024 .1539917 .09837341 .1539917 .1363678 .1539917 .17237854 .1269989 .19238281 .09799194 .19238281 .07398987 .19238281 .041992189 .17837525 .041992189 .1343689 .041992189 .043441774 .1349945-.022460938 .24398804-.022460938 .3659973-.022460938 .45700074 .06838989 .45700074 .17037964Z"/>
<path id="font_2_43" d="M.4149933 .119140628C.4149933 .12911988 .40499879 .12911988 .4019928 .12911988 .3929901 .12911988 .3909912 .12512207 .3889923 .119140628 .3600006 .026229859 .29499818 .014251709 .2579956 .014251709 .20498657 .014251709 .116989139 .0572052 .116989139 .21801758 .116989139 .38093568 .19898987 .42323304 .2519989 .42323304 .26098634 .42323304 .32398988 .42222596 .35899354 .38594056 .31799317 .38293458 .31199647 .3529358 .31199647 .3399353 .31199647 .31393434 .32998658 .2939453 .35798646 .2939453 .38398744 .2939453 .4039917 .3109436 .4039917 .34094239 .4039917 .40911866 .32798768 .4482422 .25099183 .4482422 .12599182 .4482422 .033996583 .3399353 .033996583 .21601868 .033996583 .08816528 .1329956-.0107421879 .24899292-.0107421879 .3829956-.0107421879 .4149933 .10914612 .4149933 .119140628Z"/>
<path id="font_2_96" d="M.3639984 .38137818C.3639984 .41337586 .33299256 .4423828 .2899933 .4423828 .21699524 .4423828 .18099976 .37538148 .16699219 .3323822V.4423828L.027999878 .43066407V.3996582C.09799194 .3996582 .10598755 .39266969 .10598755 .34370423V.07595825C.10598755 .0309906 .09498596 .0309906 .027999878 .0309906V0L.14199829 .0029907227C.18199158 .0029907227 .22898865 .0029907227 .2689972 0V.0309906H.24798584C.17399597 .0309906 .17199707 .04197693 .17199707 .07795715V.23181153C.17199707 .33137513 .21398926 .42037965 .2899933 .42037965 .29699708 .42037965 .29899598 .42037965 .30099488 .41937257 .2979889 .41838075 .27799989 .40637208 .27799989 .3803711 .27799989 .35237123 .29899598 .33737184 .32099916 .33737184 .33898927 .33737184 .3639984 .3493805 .3639984 .38137818Z"/>
<path id="font_2_81" d="M.47099305 .21424866C.47099305 .34223939 .37098695 .4482422 .25 .4482422 .125 .4482422 .027999878 .3392334 .027999878 .21424866 .027999878 .085250858 .13198853-.0107421879 .24899292-.0107421879 .36999513-.0107421879 .47099305 .087249759 .47099305 .21424866M.3880005 .22224427C.3880005 .18624878 .3880005 .13224793 .3659973 .08824158 .34399415 .04324341 .2999878 .014251709 .25 .014251709 .20698548 .014251709 .16299439 .035247804 .13598633 .08125305 .11099243 .12524414 .11099243 .18624878 .11099243 .22224427 .11099243 .26124574 .11099243 .31523133 .1349945 .35923768 .1619873 .40522767 .20899964 .426239 .24899292 .426239 .29299928 .426239 .33599855 .40423585 .3619995 .36123658 .3880005 .3182373 .3880005 .26023866 .3880005 .22224427Z"/>
<path id="font_2_98" d="M.3600006 .12823487C.3600006 .18122864 .32998658 .21122742 .31799317 .22323609 .2849884 .25523377 .24598694 .26322938 .20399475 .27124024 .147995 .28224183 .08099365 .29522706 .08099365 .35324098 .08099365 .38822938 .10699463 .42922975 .19299317 .42922975 .30299378 .42922975 .30799867 .3392334 .30999757 .30822755 .31098939 .2992401 .32199098 .2992401 .32199098 .2992401 .33499146 .2992401 .33499146 .30422975 .33499146 .32322694V.4242401C.33499146 .4412384 .33499146 .4482422 .32398988 .4482422 .31900025 .4482422 .31698609 .4482422 .3039856 .43623353 .30099488 .43223573 .29100038 .42323304 .2869873 .42022706 .24899292 .4482422 .20799256 .4482422 .19299317 .4482422 .070999149 .4482422 .032989503 .38124085 .032989503 .3252411 .032989503 .29023744 .04899597 .26223756 .07598877 .24023438 .10798645 .2142334 .13598633 .2082367 .20799256 .19422913 .22999573 .19021607 .31199647 .17422486 .31199647 .10221863 .31199647 .051223756 .2769928 .011245728 .19898987 .011245728 .114990238 .011245728 .07899475 .068222049 .05999756 .1532135 .056991579 .16621399 .055999757 .17021179 .04598999 .17021179 .032989503 .17021179 .032989503 .16322327 .032989503 .1452179V.013214111C.032989503-.003753662 .032989503-.0107421879 .04399109-.0107421879 .04899597-.0107421879 .049987794-.009750366 .068984989 .009246826 .070999149 .011245728 .070999149 .013214111 .08898926 .032226564 .1329956-.009750366 .17799378-.0107421879 .19898987-.0107421879 .31399537-.0107421879 .3600006 .05621338 .3600006 .1282196V.12823487Z"/>
<path id="font_2_50" d="M.4149933 .11933899C.4149933 .12934876 .40699769 .13134766 .4019928 .13134766 .3929901 .13134766 .3909912 .12535095 .3889923 .11734009 .35398866 .014251709 .2639923 .014251709 .2539978 .014251709 .20399475 .014251709 .1639862 .044281007 .14099121 .08131409 .11099243 .12934876 .11099243 .19540406 .11099243 .23144531H.3899994C.4119873 .23144531 .4149933 .23144531 .4149933 .2524414 .4149933 .35131837 .36099244 .4482422 .23599243 .4482422 .11999512 .4482422 .027999878 .34532167 .027999878 .22042847 .027999878 .08631897 .1329956-.0107421879 .24798584-.0107421879 .36999513-.0107421879 .4149933 .10032654 .4149933 .11933899M.34899903 .2524414H.11199951C.117996219 .40126039 .20199585 .426239 .23599243 .426239 .33898927 .426239 .34899903 .2913971 .34899903 .2524414Z"/>
<path id="font_2_107" d="M.44898988 .17396546H.42399598C.4189911 .14398194 .4119873 .099990848 .4019928 .084991458 .394989 .07699585 .32899476 .07699585 .30699159 .07699585H.1269989L.23298645 .17996216C.3889923 .31803895 .44898988 .37210084 .44898988 .47216798 .44898988 .5860901 .35899354 .6660156 .23699951 .6660156 .12399292 .6660156 .049987794 .57411196 .049987794 .48516847 .049987794 .4291687 .099990848 .4291687 .102996829 .4291687 .11999512 .4291687 .15499878 .44117738 .15499878 .48217774 .15499878 .5081787 .13699341 .5341797 .101989749 .5341797 .09399414 .5341797 .09199524 .5341797 .08898926 .5331726 .11199951 .59806826 .1659851 .63500979 .22399903 .63500979 .31498719 .63500979 .35798646 .5541382 .35798646 .47216798 .35798646 .39196778 .30799867 .31297303 .25299073 .25097657L.06098938 .036987306C.049987794 .025985718 .049987794 .023986817 .049987794 0H.42099L.44898988 .17396546Z"/>
<path id="font_2_57" d="M.47099305 .16503906V.19602967H.37098695V.6507721C.37098695 .6707611 .37098695 .6767578 .35499574 .6767578 .34599305 .6767578 .34298707 .6767578 .33499146 .6647644L.027999878 .19602967V.16503906H.2939911V.07800293C.2939911 .041992189 .2919922 .0309906 .21798706 .0309906H.19699097V0C.23799134 .0029907227 .2899933 .0029907227 .33198548 .0029907227 .37399293 .0029907227 .4269867 .0029907227 .46798707 0V.0309906H.44699098C.37298585 .0309906 .37098695 .041992189 .37098695 .07800293V.16503906H.47099305M.2999878 .19602967H.055999757L.2999878 .56881716V.19602967Z"/>
<path id="font_2_28" d="M.48298646 .08912659V.14511109H.45799256V.08912659C.45799256 .03112793 .43299867 .025131226 .42199708 .025131226 .3889923 .025131226 .3849945 .070129398 .3849945 .07511902V.27508546C.3849945 .31707765 .3849945 .3560791 .34899903 .39312745 .30999757 .43223573 .2599945 .4482422 .21199036 .4482422 .12998963 .4482422 .06098938 .40115357 .06098938 .335083 .06098938 .30508424 .08099365 .28808595 .10699463 .28808595 .1349945 .28808595 .15299988 .30807496 .15299988 .33407594 .15299988 .3460846 .147995 .37908937 .101989749 .38008119 .1289978 .41519166 .17799378 .426239 .20999146 .426239 .25898744 .426239 .31599427 .38710023 .31599427 .29808045V.26107789C.2649994 .25808717 .19499207 .25508119 .13198853 .22509766 .056991579 .19110108 .03199768 .13911438 .03199768 .09512329 .03199768 .014251709 .1289978-.0107421879 .19198609-.0107421879 .2579956-.0107421879 .3039856 .029251099 .32299806 .07624817 .32699586 .036132814 .35398866-.005859375 .40098573-.005859375 .42199708-.005859375 .48298646 .008132935 .48298646 .08912659M.31599427 .14013672C.31599427 .04525757 .24398804 .011245728 .19898987 .011245728 .1499939 .011245728 .10899353 .04624939 .10899353 .09625244 .10899353 .15124512 .15098572 .23425293 .31599427 .24024964V.14013672Z"/>
<path id="font_2_77" d="M.5349884 0V.0309906C.48298646 .0309906 .45799256 .0309906 .45700074 .061019899V.25221253C.45700074 .3383026 .45700074 .36932374 .42599488 .405365 .4119873 .42237855 .3789978 .4423828 .32099916 .4423828 .24798584 .4423828 .20098877 .39935304 .17298889 .33729554V.4423828L.03199768 .43066407V.3996582C.101989749 .3996582 .10998535 .39266969 .10998535 .34370423V.07595825C.10998535 .0309906 .09899902 .0309906 .03199768 .0309906V0L.14498902 .0029907227 .25698854 0V.0309906C.18998719 .0309906 .1789856 .0309906 .1789856 .07595825V.25978089C.1789856 .36431886 .25 .42037965 .31399537 .42037965 .3769989 .42037965 .3880005 .36631776 .3880005 .30926515V.076034549C.3880005 .0309906 .3769989 .0309906 .30999757 .0309906V0L.4229889 .0029907227 .5349884 0Z"/>
<path id="font_2_47" d="M.5269928 0V.0309906C.45700074 .0309906 .44898988 .038009645 .44898988 .0871582V.69433596L.30499269 .6826172V.6516113C.375 .6516113 .3829956 .64463809 .3829956 .59580996V.38035584C.35398866 .41636659 .31098939 .4423828 .25698854 .4423828 .13899231 .4423828 .033996583 .3443451 .033996583 .21531677 .033996583 .088272098 .13198853-.0107421879 .24598694-.0107421879 .30999757-.0107421879 .35499574 .023254395 .37998963 .055267335V-.0107421879L.5269928 0M.37998963 .117996219C.37998963 .099990848 .37998963 .09799194 .36898805 .08099365 .33898927 .033218385 .2939911 .011245728 .25099183 .011245728 .20599365 .011245728 .16999817 .037216188 .1459961 .075164798 .11999512 .1161499 .116989139 .17320252 .116989139 .21421814 .116989139 .25125123 .11898804 .31129457 .147995 .35632325 .16899109 .38734437 .20698548 .42037965 .26098634 .42037965 .29599 .42037965 .33799745 .405365 .36898805 .3603363 .37998963 .34332276 .37998963 .34132386 .37998963 .32330323V.117996219Z"/>
<path id="font_2_56" d="M.44898988 .20091248C.44898988 .31991578 .36698915 .41992188 .25898744 .41992188 .21099854 .41992188 .16799927 .4039154 .13198853 .36891175V.5641022C.1519928 .55778506 .18499756 .55078127 .21699524 .55078127 .33999635 .55078127 .4099884 .6418457 .4099884 .65493777 .4099884 .6609802 .40699769 .6660156 .3999939 .6660156 .3999939 .66607668 .39698792 .66607668 .3919983 .66308596 .37199403 .65408328 .32299806 .63378909 .2559967 .63378909 .21598816 .63409426 .16999817 .641098 .12298584 .6621094 .114990238 .6651001 .11099243 .6651001 .11099243 .6651001 .100997928 .66508486 .100997928 .657074 .100997928 .64108279V.3447113C.100997928 .3266449 .100997928 .31861878 .114990238 .31861878 .12199402 .31861878 .12399292 .32164 .12799073 .32765199 .13899231 .34371949 .17599488 .3979187 .25698854 .3979187 .30899049 .3979187 .33399964 .3517456 .34199525 .3336792 .35798646 .2965393 .3600006 .2574005 .3600006 .20721436 .3600006 .17218018 .3600006 .112197879 .33599855 .07032776 .31199647 .031448366 .2749939 .0055389406 .22898865 .0055389406 .1559906 .0055389406 .09899902 .05836487 .08198547 .1171875 .084991458 .11685181 .08799744 .115859989 .09899902 .115859989 .13198853 .115859989 .14898682 .14085388 .14898682 .16485596 .14898682 .18885803 .13198853 .21386719 .09899902 .21386719 .084991458 .21386719 .049987794 .2068634 .049987794 .16085816 .049987794 .07432556 .11898804-.022460938 .23098755-.022460938 .34700013-.022460938 .44898988 .07331848 .44898988 .20019531V.20091248Z"/>
<path id="font_2_502" d="M.20599365 .58932498C.20599365 .6493225 .18199158 .69433596 .13899231 .69433596 .10398865 .69433596 .085998538 .6673279 .085998538 .6413269 .085998538 .6153259 .102996829 .58833315 .13899231 .58833315 .15899658 .58833315 .17298889 .59832766 .1789856 .60432437 .17999268 .60632327 .18199158 .6073303 .18199158 .6073303 .18199158 .6073303 .18399048 .59332278 .18399048 .58932498 .18399048 .5573578 .1769867 .4854126 .11399841 .42347718 .101989749 .41148377 .101989749 .40948487 .101989749 .40649415 .101989749 .39949037 .10699463 .3955078 .11199951 .3955078 .12298584 .3955078 .20599365 .47143556 .20599365 .58932498Z"/>
<path id="font_2_105" d="M.33198548 .12385559V.18066406H.30699159V.12585449C.30699159 .052108766 .2769928 .014251709 .23999024 .014251709 .17298889 .014251709 .17298889 .10491943 .17298889 .12187195V.3996582H.31599427V.43066407H.17298889V.6142578H.147995C.14698792 .5324249 .116989139 .42565919 .018997193 .42166139V.3996582H.10398865V.12408447C.10398865 .0012512207 .19699097-.0107421879 .23298645-.0107421879 .3039856-.0107421879 .33198548 .060180665 .33198548 .12408447V.12385559Z"/>
</defs>
<path transform="matrix(1.00002,0,0,-1.00002,10.563835,69.795078)" stroke-width=".3985" stroke-linecap="butt" stroke-miterlimit="10" stroke-linejoin="miter" fill="none" stroke="#000000" d="M28.31102 0C28.31102 4.67699 24.51965 8.46835 19.84267 8.46835 15.16566 8.46835 11.37431 4.67699 11.37431 0 11.37431-4.67699 15.16566-8.46835 19.84267-8.46835 24.51965-8.46835 28.31102-4.67699 28.31102 0ZM19.84267 0"/>
<use data-text="1" xlink:href="#font_1_1" transform="matrix(9.962799,0,0,-9.962799,27.916184,73.00514)"/>
<path transform="matrix(1.00002,0,0,-1.00002,10.563835,69.795078)" stroke-width=".3985" stroke-linecap="butt" stroke-miterlimit="10" stroke-linejoin="miter" fill="none" stroke="#000000" d="M8.46835 39.68535C8.46835 44.36235 4.67699 48.1537 0 48.1537-4.67699 48.1537-8.46835 44.36235-8.46835 39.68535-8.46835 35.00836-4.67699 31.217 0 31.217 4.67699 31.217 8.46835 35.00836 8.46835 39.68535ZM0 39.68535"/>
<use data-text="2" xlink:href="#font_1_2" transform="matrix(9.962799,0,0,-9.962799,8.072784,33.319349)"/>
<path transform="matrix(1.00002,0,0,-1.00002,10.563835,69.795078)" stroke-width=".3985" stroke-linecap="butt" stroke-miterlimit="10" stroke-linejoin="miter" fill="none" stroke="#000000" d="M48.1537 59.52802C48.1537 64.20502 44.36235 67.99637 39.68535 67.99637 35.00836 67.99637 31.217 64.20502 31.217 59.52802 31.217 54.85103 35.00836 51.05966 39.68535 51.05966 44.36235 51.05966 48.1537 54.85103 48.1537 59.52802ZM39.68535 59.52802"/>
<use data-text="3" xlink:href="#font_1_3" transform="matrix(9.962799,0,0,-9.962799,47.75958,13.4759449)"/>
<path transform="matrix(1.00002,0,0,-1.00002,10.563835,69.795078)" stroke-width=".3985" stroke-linecap="butt" stroke-miterlimit="10" stroke-linejoin="miter" fill="none" stroke="#000000" d="M87.83907 39.68535C87.83907 44.36235 84.0477 48.1537 79.37071 48.1537 74.69371 48.1537 70.90236 44.36235 70.90236 39.68535 70.90236 35.00836 74.69371 31.217 79.37071 31.217 84.0477 31.217 87.83907 35.00836 87.83907 39.68535ZM79.37071 39.68535"/>
<use data-text="4" xlink:href="#font_1_4" transform="matrix(9.962799,0,0,-9.962799,87.44537,33.319349)"/>
<path transform="matrix(1.00002,0,0,-1.00002,10.563835,69.795078)" stroke-width=".3985" stroke-linecap="butt" stroke-miterlimit="10" stroke-linejoin="miter" fill="none" stroke="#000000" d="M67.99637 0C67.99637 4.67699 64.20502 8.46835 59.52802 8.46835 54.85103 8.46835 51.05966 4.67699 51.05966 0 51.05966-4.67699 54.85103-8.46835 59.52802-8.46835 64.20502-8.46835 67.99637-4.67699 67.99637 0ZM59.52802 0"/>
<use data-text="5" xlink:href="#font_1_5" transform="matrix(9.962799,0,0,-9.962799,67.601978,73.00514)"/>
<path transform="matrix(1.00002,0,0,-1.00002,10.563835,69.795078)" stroke-width=".3985" stroke-linecap="butt" stroke-miterlimit="10" stroke-linejoin="miter" fill="none" stroke="#000000" d="M15.96701 7.75223 3.87598 31.93394"/>
<path transform="matrix(1.00002,0,0,-1.00002,10.563835,69.795078)" stroke-width=".3985" stroke-linecap="butt" stroke-miterlimit="10" stroke-linejoin="miter" fill="none" stroke="#000000" d="M22.58383 8.22255 36.94525 51.30653"/>
<path transform="matrix(1.00002,0,0,-1.00002,10.563835,69.795078)" stroke-width=".3985" stroke-linecap="butt" stroke-miterlimit="10" stroke-linejoin="miter" fill="none" stroke="#000000" d="M28.51079 0H50.86134"/>
<path transform="matrix(1.00002,0,0,-1.00002,10.563835,69.795078)" stroke-width=".3985" stroke-linecap="butt" stroke-miterlimit="10" stroke-linejoin="miter" fill="none" stroke="#000000" d="M7.75223 43.56233 31.93382 55.6531"/>
<path transform="matrix(1.00002,0,0,-1.00002,10.563835,69.795078)" stroke-width=".3985" stroke-linecap="butt" stroke-miterlimit="10" stroke-linejoin="miter" fill="none" stroke="#000000" d="M8.66776 39.68607H70.70439"/>
<path transform="matrix(1.00002,0,0,-1.00002,10.563835,69.795078)" stroke-width=".3985" stroke-linecap="butt" stroke-miterlimit="10" stroke-linejoin="miter" fill="none" stroke="#000000" d="M47.43846 55.65338 71.6199 43.56233"/>
<path transform="matrix(1.00002,0,0,-1.00002,10.563835,69.795078)" stroke-width=".3985" stroke-linecap="butt" stroke-miterlimit="10" stroke-linejoin="miter" fill="none" stroke="#000000" d="M75.49644 31.93369 63.40536 7.75223"/>
<use data-text="1" xlink:href="#font_2_82" transform="matrix(9.962799,0,0,-9.962799,5.8847429,192.20153)"/>
<use data-text="3" xlink:href="#font_2_106" transform="matrix(9.962799,0,0,-9.962799,10.866142,192.20153)"/>
<use data-text="c" xlink:href="#font_2_43" transform="matrix(9.962799,0,0,-9.962799,19.165154,192.20153)"/>
<use data-text="r" xlink:href="#font_2_96" transform="matrix(9.962799,0,0,-9.962799,23.588639,192.20153)"/>
<use data-text="o" xlink:href="#font_2_81" transform="matrix(9.962799,0,0,-9.962799,27.494057,192.20153)"/>
<use data-text="s" xlink:href="#font_2_98" transform="matrix(9.962799,0,0,-9.962799,32.475458,192.20153)"/>
<use data-text="s" xlink:href="#font_2_98" transform="matrix(9.962799,0,0,-9.962799,36.400796,192.20153)"/>
<use data-text="e" xlink:href="#font_2_50" transform="matrix(9.962799,0,0,-9.962799,40.32614,192.20153)"/>
<use data-text="s" xlink:href="#font_2_98" transform="matrix(9.962799,0,0,-9.962799,44.74962,192.20153)"/>
<use data-text="2" xlink:href="#font_2_107" transform="matrix(9.962799,0,0,-9.962799,51.992586,192.20153)"/>
<use data-text="4" xlink:href="#font_2_57" transform="matrix(9.962799,0,0,-9.962799,56.97397,192.20153)"/>
<use data-text="a" xlink:href="#font_2_28" transform="matrix(9.962799,0,0,-9.962799,65.27298,192.20153)"/>
<use data-text="n" xlink:href="#font_2_77" transform="matrix(9.962799,0,0,-9.962799,70.25438,192.20153)"/>
<use data-text="d" xlink:href="#font_2_47" transform="matrix(9.962799,0,0,-9.962799,75.793689,192.20153)"/>
<use data-text="2" xlink:href="#font_2_107" transform="matrix(9.962799,0,0,-9.962799,84.65062,192.20153)"/>
<use data-text="5" xlink:href="#font_2_56" transform="matrix(9.962799,0,0,-9.962799,89.632,192.20153)"/>
<path transform="matrix(1.00002,0,0,-1.00002,10.563835,69.795078)" stroke-width=".3985" stroke-linecap="butt" stroke-miterlimit="10" stroke-linejoin="miter" fill="none" stroke="#000000" d="M28.31102-99.21342C28.31102-94.53642 24.51965-90.74507 19.84267-90.74507 15.16566-90.74507 11.37431-94.53642 11.37431-99.21342 11.37431-103.89043 15.16566-107.68178 19.84267-107.68178 24.51965-107.68178 28.31102-103.89043 28.31102-99.21342ZM19.84267-99.21342"/>
<use data-text="1" xlink:href="#font_1_1" transform="matrix(9.962799,0,0,-9.962799,27.916184,172.22113)"/>
<path transform="matrix(1.00002,0,0,-1.00002,10.563835,69.795078)" stroke-width=".3985" stroke-linecap="butt" stroke-miterlimit="10" stroke-linejoin="miter" fill="none" stroke="#000000" d="M8.46835-59.52806C8.46835-54.85107 4.67699-51.05971 0-51.05971-4.67699-51.05971-8.46835-54.85107-8.46835-59.52806-8.46835-64.20506-4.67699-67.99641 0-67.99641 4.67699-67.99641 8.46835-64.20506 8.46835-59.52806ZM0-59.52806"/>
<use data-text="2" xlink:href="#font_1_2" transform="matrix(9.962799,0,0,-9.962799,8.072784,132.53433)"/>
<path transform="matrix(1.00002,0,0,-1.00002,10.563835,69.795078)" stroke-width=".3985" stroke-linecap="butt" stroke-miterlimit="10" stroke-linejoin="miter" fill="none" stroke="#000000" d="M48.1537-39.6854C48.1537-35.0084 44.36235-31.21704 39.68535-31.21704 35.00836-31.21704 31.217-35.0084 31.217-39.6854 31.217-44.3624 35.00836-48.15375 39.68535-48.15375 44.36235-48.15375 48.1537-44.3624 48.1537-39.6854ZM39.68535-39.6854"/>
<use data-text="3" xlink:href="#font_1_3" transform="matrix(9.962799,0,0,-9.962799,47.75958,112.69193)"/>
<path transform="matrix(1.00002,0,0,-1.00002,10.563835,69.795078)" stroke-width=".3985" stroke-linecap="butt" stroke-miterlimit="10" stroke-linejoin="miter" fill="none" stroke="#000000" d="M87.83907-59.52806C87.83907-54.85107 84.0477-51.05971 79.37071-51.05971 74.69371-51.05971 70.90236-54.85107 70.90236-59.52806 70.90236-64.20506 74.69371-67.99641 79.37071-67.99641 84.0477-67.99641 87.83907-64.20506 87.83907-59.52806ZM79.37071-59.52806"/>
<use data-text="4" xlink:href="#font_1_4" transform="matrix(9.962799,0,0,-9.962799,87.44537,132.53433)"/>
<path transform="matrix(1.00002,0,0,-1.00002,10.563835,69.795078)" stroke-width=".3985" stroke-linecap="butt" stroke-miterlimit="10" stroke-linejoin="miter" fill="none" stroke="#000000" d="M67.99637-99.21342C67.99637-94.53642 64.20502-90.74507 59.52802-90.74507 54.85103-90.74507 51.05966-94.53642 51.05966-99.21342 51.05966-103.89043 54.85103-107.68178 59.52802-107.68178 64.20502-107.68178 67.99637-103.89043 67.99637-99.21342ZM59.52802-99.21342"/>
<use data-text="5" xlink:href="#font_1_5" transform="matrix(9.962799,0,0,-9.962799,67.601978,172.22113)"/>
<path transform="matrix(1.00002,0,0,-1.00002,10.563835,69.795078)" stroke-width=".3985" stroke-linecap="butt" stroke-miterlimit="10" stroke-linejoin="miter" fill="none" stroke="#000000" d="M15.96701-91.46118 3.87598-67.27945"/>
<path transform="matrix(1.00002,0,0,-1.00002,10.563835,69.795078)" stroke-width=".3985" stroke-linecap="butt" stroke-miterlimit="10" stroke-linejoin="miter" fill="none" stroke="#000000" d="M22.58383-90.99086 36.94525-47.90688"/>
<path transform="matrix(1.00002,0,0,-1.00002,10.563835,69.795078)" stroke-width=".3985" stroke-linecap="butt" stroke-miterlimit="10" stroke-linejoin="miter" fill="none" stroke="#000000" d="M28.51079-99.21342H50.86134"/>
<path transform="matrix(1.00002,0,0,-1.00002,10.563835,69.795078)" stroke-width=".3985" stroke-linecap="butt" stroke-miterlimit="10" stroke-linejoin="miter" fill="none" stroke="#000000" d="M7.75223-55.65108 31.93382-43.56029"/>
<path transform="matrix(1.00002,0,0,-1.00002,10.563835,69.795078)" stroke-width=".3985" stroke-linecap="butt" stroke-miterlimit="10" stroke-linejoin="miter" fill="none" stroke="#000000" d="M7.21169-64.33496 52.3174-94.40567"/>
<path transform="matrix(1.00002,0,0,-1.00002,10.563835,69.795078)" stroke-width=".3985" stroke-linecap="butt" stroke-miterlimit="10" stroke-linejoin="miter" fill="none" stroke="#000000" d="M47.43846-43.56003 71.6199-55.65108"/>
<path transform="matrix(1.00002,0,0,-1.00002,10.563835,69.795078)" stroke-width=".3985" stroke-linecap="butt" stroke-miterlimit="10" stroke-linejoin="miter" fill="none" stroke="#000000" d="M75.49644-67.27974 63.40536-91.46118"/>
<path transform="matrix(1.00002,0,0,-1.00002,10.563835,69.795078)" stroke-width=".3985" stroke-linecap="butt" stroke-miterlimit="10" stroke-linejoin="miter" fill="none" stroke="#000000" d="M187.05252 0C187.05252 4.67699 183.26117 8.46835 178.58417 8.46835 173.90718 8.46835 170.11582 4.67699 170.11582 0 170.11582-4.67699 173.90718-8.46835 178.58417-8.46835 183.26117-8.46835 187.05252-4.67699 187.05252 0ZM178.58417 0"/>
<use data-text="1" xlink:href="#font_1_1" transform="matrix(9.962799,0,0,-9.962799,186.66037,73.00514)"/>
<path transform="matrix(1.00002,0,0,-1.00002,10.563835,69.795078)" stroke-width=".3985" stroke-linecap="butt" stroke-miterlimit="10" stroke-linejoin="miter" fill="none" stroke="#000000" d="M167.20986 39.68535C167.20986 44.36235 163.41849 48.1537 158.7415 48.1537 154.0645 48.1537 150.27315 44.36235 150.27315 39.68535 150.27315 35.00836 154.0645 31.217 158.7415 31.217 163.41849 31.217 167.20986 35.00836 167.20986 39.68535ZM158.7415 39.68535"/>
<use data-text="2" xlink:href="#font_1_2" transform="matrix(9.962799,0,0,-9.962799,166.81797,33.319349)"/>
<path transform="matrix(1.00002,0,0,-1.00002,10.563835,69.795078)" stroke-width=".3985" stroke-linecap="butt" stroke-miterlimit="10" stroke-linejoin="miter" fill="none" stroke="#000000" d="M206.8952 59.52802C206.8952 64.20502 203.10385 67.99637 198.42685 67.99637 193.74987 67.99637 189.9585 64.20502 189.9585 59.52802 189.9585 54.85103 193.74987 51.05966 198.42685 51.05966 203.10385 51.05966 206.8952 54.85103 206.8952 59.52802ZM198.42685 59.52802"/>
<use data-text="3" xlink:href="#font_1_3" transform="matrix(9.962799,0,0,-9.962799,206.50376,13.4759449)"/>
<path transform="matrix(1.00002,0,0,-1.00002,10.563835,69.795078)" stroke-width=".3985" stroke-linecap="butt" stroke-miterlimit="10" stroke-linejoin="miter" fill="none" stroke="#000000" d="M246.58057 39.68535C246.58057 44.36235 242.78922 48.1537 238.11222 48.1537 233.43521 48.1537 229.64386 44.36235 229.64386 39.68535 229.64386 35.00836 233.43521 31.217 238.11222 31.217 242.78922 31.217 246.58057 35.00836 246.58057 39.68535ZM238.11222 39.68535"/>
<use data-text="4" xlink:href="#font_1_4" transform="matrix(9.962799,0,0,-9.962799,246.19055,33.319349)"/>
<path transform="matrix(1.00002,0,0,-1.00002,10.563835,69.795078)" stroke-width=".3985" stroke-linecap="butt" stroke-miterlimit="10" stroke-linejoin="miter" fill="none" stroke="#000000" d="M226.73789 0C226.73789 4.67699 222.94652 8.46835 218.26953 8.46835 213.59253 8.46835 209.80118 4.67699 209.80118 0 209.80118-4.67699 213.59253-8.46835 218.26953-8.46835 222.94652-8.46835 226.73789-4.67699 226.73789 0ZM218.26953 0"/>
<use data-text="5" xlink:href="#font_1_5" transform="matrix(9.962799,0,0,-9.962799,226.34717,73.00514)"/>
<path transform="matrix(1.00002,0,0,-1.00002,10.563835,69.795078)" stroke-width=".3985" stroke-linecap="butt" stroke-miterlimit="10" stroke-linejoin="miter" fill="none" stroke="#000000" d="M174.70853 7.75223 162.6175 31.93394"/>
<path transform="matrix(1.00002,0,0,-1.00002,10.563835,69.795078)" stroke-width=".3985" stroke-linecap="butt" stroke-miterlimit="10" stroke-linejoin="miter" fill="none" stroke="#000000" d="M181.32535 8.22255 195.68677 51.30653"/>
<path transform="matrix(1.00002,0,0,-1.00002,10.563835,69.795078)" stroke-width=".3985" stroke-linecap="butt" stroke-miterlimit="10" stroke-linejoin="miter" fill="none" stroke="#000000" d="M185.79624 4.80774 230.90196 34.87831"/>
<path transform="matrix(1.00002,0,0,-1.00002,10.563835,69.795078)" stroke-width=".3985" stroke-linecap="butt" stroke-miterlimit="10" stroke-linejoin="miter" fill="none" stroke="#000000" d="M187.25229 0H209.60285"/>
<path transform="matrix(1.00002,0,0,-1.00002,10.563835,69.795078)" stroke-width=".3985" stroke-linecap="butt" stroke-miterlimit="10" stroke-linejoin="miter" fill="none" stroke="#000000" d="M166.49375 43.56233 190.67533 55.6531"/>
<path transform="matrix(1.00002,0,0,-1.00002,10.563835,69.795078)" stroke-width=".3985" stroke-linecap="butt" stroke-miterlimit="10" stroke-linejoin="miter" fill="none" stroke="#000000" d="M206.17998 55.65338 230.36142 43.56233"/>
<path transform="matrix(1.00002,0,0,-1.00002,10.563835,69.795078)" stroke-width=".3985" stroke-linecap="butt" stroke-miterlimit="10" stroke-linejoin="miter" fill="none" stroke="#000000" d="M234.23795 31.93369 222.14687 7.75223"/>
<use data-text="1" xlink:href="#font_2_82" transform="matrix(9.962799,0,0,-9.962799,155.06473,192.20153)"/>
<use data-text="3" xlink:href="#font_2_106" transform="matrix(9.962799,0,0,-9.962799,160.04615,192.20153)"/>
<use data-text="d" xlink:href="#font_2_47" transform="matrix(9.962799,0,0,-9.962799,168.34516,192.20153)"/>
<use data-text="o" xlink:href="#font_2_81" transform="matrix(9.962799,0,0,-9.962799,173.88446,192.20153)"/>
<use data-text="e" xlink:href="#font_2_50" transform="matrix(9.962799,0,0,-9.962799,179.14484,192.20153)"/>
<use data-text="s" xlink:href="#font_2_98" transform="matrix(9.962799,0,0,-9.962799,183.5683,192.20153)"/>
<use data-text="n" xlink:href="#font_2_77" transform="matrix(9.962799,0,0,-9.962799,187.49365,192.20153)"/>
<use data-text="&#x2019;" xlink:href="#font_2_502" transform="matrix(9.962799,0,0,-9.962799,193.03296,192.20153)"/>
<use data-text="t" xlink:href="#font_2_105" transform="matrix(9.962799,0,0,-9.962799,195.80263,192.20153)"/>
<use data-text="c" xlink:href="#font_2_43" transform="matrix(9.962799,0,0,-9.962799,202.99578,192.20153)"/>
<use data-text="r" xlink:href="#font_2_96" transform="matrix(9.962799,0,0,-9.962799,207.41927,192.20153)"/>
<use data-text="o" xlink:href="#font_2_81" transform="matrix(9.962799,0,0,-9.962799,211.32468,192.20153)"/>
<use data-text="s" xlink:href="#font_2_98" transform="matrix(9.962799,0,0,-9.962799,216.30608,192.20153)"/>
<use data-text="s" xlink:href="#font_2_98" transform="matrix(9.962799,0,0,-9.962799,220.23142,192.20153)"/>
<use data-text="1" xlink:href="#font_2_82" transform="matrix(9.962799,0,0,-9.962799,227.47437,192.20153)"/>
<use data-text="4" xlink:href="#font_2_57" transform="matrix(9.962799,0,0,-9.962799,232.45577,192.20153)"/>
<use data-text="o" xlink:href="#font_2_81" transform="matrix(9.962799,0,0,-9.962799,240.75478,192.20153)"/>
<use data-text="r" xlink:href="#font_2_96" transform="matrix(9.962799,0,0,-9.962799,245.73616,192.20153)"/>
<use data-text="3" xlink:href="#font_2_106" transform="matrix(9.962799,0,0,-9.962799,252.9592,192.20153)"/>
<use data-text="5" xlink:href="#font_2_56" transform="matrix(9.962799,0,0,-9.962799,257.94059,192.20153)"/>
<path transform="matrix(1.00002,0,0,-1.00002,10.563835,69.795078)" stroke-width=".3985" stroke-linecap="butt" stroke-miterlimit="10" stroke-linejoin="miter" fill="none" stroke="#000000" d="M187.05252-99.21342C187.05252-94.53642 183.26117-90.74507 178.58417-90.74507 173.90718-90.74507 170.11582-94.53642 170.11582-99.21342 170.11582-103.89043 173.90718-107.68178 178.58417-107.68178 183.26117-107.68178 187.05252-103.89043 187.05252-99.21342ZM178.58417-99.21342"/>
<use data-text="1" xlink:href="#font_1_1" transform="matrix(9.962799,0,0,-9.962799,186.66037,172.22113)"/>
<path transform="matrix(1.00002,0,0,-1.00002,10.563835,69.795078)" stroke-width=".3985" stroke-linecap="butt" stroke-miterlimit="10" stroke-linejoin="miter" fill="none" stroke="#000000" d="M167.20986-59.52806C167.20986-54.85107 163.41849-51.05971 158.7415-51.05971 154.0645-51.05971 150.27315-54.85107 150.27315-59.52806 150.27315-64.20506 154.0645-67.99641 158.7415-67.99641 163.41849-67.99641 167.20986-64.20506 167.20986-59.52806ZM158.7415-59.52806"/>
<use data-text="2" xlink:href="#font_1_2" transform="matrix(9.962799,0,0,-9.962799,166.81797,132.53433)"/>
<path transform="matrix(1.00002,0,0,-1.00002,10.563835,69.795078)" stroke-width=".3985" stroke-linecap="butt" stroke-miterlimit="10" stroke-linejoin="miter" fill="none" stroke="#000000" d="M206.8952-39.6854C206.8952-35.0084 203.10385-31.21704 198.42685-31.21704 193.74987-31.21704 189.9585-35.0084 189.9585-39.6854 189.9585-44.3624 193.74987-48.15375 198.42685-48.15375 203.10385-48.15375 206.8952-44.3624 206.8952-39.6854ZM198.42685-39.6854"/>
<use data-text="3" xlink:href="#font_1_3" transform="matrix(9.962799,0,0,-9.962799,206.50376,112.69193)"/>
<path transform="matrix(1.00002,0,0,-1.00002,10.563835,69.795078)" stroke-width=".3985" stroke-linecap="butt" stroke-miterlimit="10" stroke-linejoin="miter" fill="none" stroke="#000000" d="M246.58057-59.52806C246.58057-54.85107 242.78922-51.05971 238.11222-51.05971 233.43521-51.05971 229.64386-54.85107 229.64386-59.52806 229.64386-64.20506 233.43521-67.99641 238.11222-67.99641 242.78922-67.99641 246.58057-64.20506 246.58057-59.52806ZM238.11222-59.52806"/>
<use data-text="4" xlink:href="#font_1_4" transform="matrix(9.962799,0,0,-9.962799,246.19055,132.53433)"/>
<path transform="matrix(1.00002,0,0,-1.00002,10.563835,69.795078)" stroke-width=".3985" stroke-linecap="butt" stroke-miterlimit="10" stroke-linejoin="miter" fill="none" stroke="#000000" d="M226.73789-99.21342C226.73789-94.53642 222.94652-90.74507 218.26953-90.74507 213.59253-90.74507 209.80118-94.53642 209.80118-99.21342 209.80118-103.89043 213.59253-107.68178 218.26953-107.68178 222.94652-107.68178 226.73789-103.89043 226.73789-99.21342ZM218.26953-99.21342"/>
<use data-text="5" xlink:href="#font_1_5" transform="matrix(9.962799,0,0,-9.962799,226.34717,172.22113)"/>
<path transform="matrix(1.00002,0,0,-1.00002,10.563835,69.795078)" stroke-width=".3985" stroke-linecap="butt" stroke-miterlimit="10" stroke-linejoin="miter" fill="none" stroke="#000000" d="M174.70853-91.46118 162.6175-67.27945"/>
<path transform="matrix(1.00002,0,0,-1.00002,10.563835,69.795078)" stroke-width=".3985" stroke-linecap="butt" stroke-miterlimit="10" stroke-linejoin="miter" fill="none" stroke="#000000" d="M181.32535-90.99086 195.68677-47.90688"/>
<path transform="matrix(1.00002,0,0,-1.00002,10.563835,69.795078)" stroke-width=".3985" stroke-linecap="butt" stroke-miterlimit="10" stroke-linejoin="miter" fill="none" stroke="#000000" d="M187.25229-99.21342H209.60285"/>
<path transform="matrix(1.00002,0,0,-1.00002,10.563835,69.795078)" stroke-width=".3985" stroke-linecap="butt" stroke-miterlimit="10" stroke-linejoin="miter" fill="none" stroke="#000000" d="M166.49375-55.65108 190.67533-43.56029"/>
<path transform="matrix(1.00002,0,0,-1.00002,10.563835,69.795078)" stroke-width=".3985" stroke-linecap="butt" stroke-miterlimit="10" stroke-linejoin="miter" fill="none" stroke="#000000" d="M206.17998-43.56003 230.36142-55.65108"/>
<path transform="matrix(1.00002,0,0,-1.00002,10.563835,69.795078)" stroke-width=".3985" stroke-linecap="butt" stroke-miterlimit="10" stroke-linejoin="miter" fill="none" stroke="#000000" d="M201.16852-47.90688 215.52996-90.99086"/>
<path transform="matrix(1.00002,0,0,-1.00002,10.563835,69.795078)" stroke-width=".3985" stroke-linecap="butt" stroke-miterlimit="10" stroke-linejoin="miter" fill="none" stroke="#000000" d="M234.23795-67.27974 222.14687-91.46118"/>
</svg>
