<svg xmlns="http://www.w3.org/2000/svg" xmlns:xlink="http://www.w3.org/1999/xlink" xmlns:inkscape="http://www.inkscape.org/namespaces/inkscape" version="1.1" width="171" height="80" viewBox="0 0 171 80">
<defs>
<path id="font_1_115" d="M.7259979 0V.0309906H.70700076C.6549988 .0309906 .6339874 .035995485 .61299136 .066970828L.4019928 .3857727 .5389862 .5866394C.5609894 .6186218 .59498599 .65060427 .6839905 .6516113V.6826172L.57299807 .6796112C.5329895 .6796112 .4850006 .6796112 .44499208 .6826172V.6516113C.4850006 .65060427 .5069885 .62861636 .5069885 .6056366 .5069885 .5956421 .5049896 .5936432 .49798585 .5826416L.38398744 .41375733 .25498963 .6066284C.25299073 .6096344 .24798584 .61763 .24798584 .6216278 .24798584 .6336212 .269989 .65060427 .31298829 .6516113V.6826172C.27799989 .6796112 .20498657 .6796112 .16699219 .6796112L.036987306 .6826172V.6516113H.055999757C.11099243 .6516113 .12998963 .64460757 .14898682 .6166229L.33299256 .33880616 .16899109 .096954349C.15499878 .07696533 .125 .0309906 .023986817 .0309906V0L.1349945 .0029907227C.17199707 .0029907227 .22698975 .0029907227 .2630005 0V.0309906C.21699524 .03199768 .19999695 .05897522 .19999695 .07696533 .19999695 .08595276 .20298767 .08995056 .20999146 .10095215L.35198976 .31082154 .5099945 .07196045C.5119934 .06796265 .5149994 .063964847 .5149994 .06097412 .5149994 .048980714 .49299623 .03199768 .44999696 .0309906V0C.4850006 .0029907227 .55799868 .0029907227 .59599307 .0029907227L.7259979 0Z"/>
<path id="font_1_117" d="M.73799136 .6516113V.6826172C.70700076 .680603 .6669922 .6796112 .6399994 .6796112L.5249939 .6826172V.6516113C.56599429 .6516113 .58200076 .63261416 .58200076 .6126251 .58200076 .6016388 .57598879 .5886383 .57199099 .5826416L.40699769 .31481935 .22599793 .6096344C.21899414 .6196289 .21899414 .6216278 .21899414 .62661746 .21899414 .6476135 .24398804 .6516113 .2889862 .6516113V.6826172C.25299073 .6796112 .17999268 .6796112 .14099121 .6796112L.010986328 .6826172V.6516113H.0289917C.09700012 .6516113 .10499573 .64060977 .12098694 .614624L.33099366 .2728424V.07795715C.33099366 .041992189 .32899476 .0309906 .2519989 .0309906H.22799683V0C.2639923 .0029907227 .33499146 .0029907227 .37399293 .0029907227 .41299439 .0029907227 .48399354 .0029907227 .519989 0V.0309906H.49699403C.41999818 .0309906 .4169922 .040985109 .4169922 .079956058V.2728424L.6100006 .5866394C.6469879 .6476135 .70599368 .6516113 .73799136 .6516113Z"/>
<path id="font_1_27" d="M.71699526 0V.0309906H.69898989C.6389923 .0309906 .625 .037979127 .6139984 .07095337L.397995 .6958008C.3929901 .7088165 .3909912 .7158203 .375 .7158203 .35899354 .7158203 .35598756 .70980837 .35099793 .6958008L.14399719 .09791565C.12599182 .04698181 .085998538 .03199768 .03199768 .0309906V0L.13398743 .0029907227 .24899292 0V.0309906C.19898987 .0309906 .17399597 .05596924 .17399597 .0819397 .17399597 .08493042 .1749878 .09492493 .17599488 .09692383L.22200012 .2277832H.46899415L.5219879 .07495117C.522995 .07095337 .5249939 .064956668 .5249939 .060958864 .5249939 .0309906 .46899415 .0309906 .44198609 .0309906V0C.47799684 .0029907227 .5479889 .0029907227 .58599856 .0029907227L.71699526 0M.45799256 .25878907H.23298645L.34498597 .58380129 .45799256 .25878907Z"/>
<path id="font_1_34" d="M.651001 .18289185C.651001 .26983644 .56900027 .34480287 .45799256 .35679627 .5549927 .3757782 .6239929 .43974305 .6239929 .51368716 .6239929 .6006317 .5319977 .6826172 .4019928 .6826172H.035995485V.6516113H.05999756C.13699341 .6516113 .13899231 .64060977 .13899231 .6046295V.07795715C.13899231 .041992189 .13699341 .0309906 .05999756 .0309906H.035995485V0H.42799378C.5609894-.0002593994 .651001 .08874512 .651001 .18273926V.18289185M.5269928 .5136719C.5269928 .44970704 .47799684 .36573792 .36698915 .36573792H.22200012V.6116333C.22200012 .64460757 .22399903 .6516113 .2709961 .6516113H.394989C.49198915 .65174868 .5269928 .56674197 .5269928 .51374819V.5136719M.5509949 .18386841C.5509949 .1129303 .49899293 .0309906 .3959961 .0309906H.2709961C.22399903 .0309906 .22200012 .037994386 .22200012 .07095337V.34375H.4099884C.5089874 .34399415 .5509949 .25099183 .5509949 .18399048V.18386841Z"/>
</defs>
<path transform="matrix(1.00008,0,0,-1.00002,84.015277,40.216485)" stroke-width=".79701" stroke-linecap="butt" stroke-miterlimit="10" stroke-linejoin="miter" fill="none" stroke="#000000" d="M9.71223 0C9.71223 5.36398 5.36398 9.71223 0 9.71223-5.36398 9.71223-9.71223 5.36398-9.71223 0-9.71223-5.36398-5.36398-9.71223 0-9.71223 5.36398-9.71223 9.71223-5.36398 9.71223 0ZM0 0"/>
<use data-text="X" xlink:href="#font_1_115" transform="matrix(9.963397,0,0,-9.962799,80.27898,43.618555)"/>
<path transform="matrix(1.00008,0,0,-1.00002,84.015277,40.216485)" stroke-width=".79701" stroke-linecap="butt" stroke-miterlimit="10" stroke-linejoin="miter" fill="none" stroke="#000000" d="M66.40585 0C66.40585 5.36398 62.0576 9.71223 56.69362 9.71223 51.32962 9.71223 46.98137 5.36398 46.98137 0 46.98137-5.36398 51.32962-9.71223 56.69362-9.71223 62.0576-9.71223 66.40585-5.36398 66.40585 0ZM56.69362 0"/>
<use data-text="Y" xlink:href="#font_1_117" transform="matrix(9.963397,0,0,-9.962799,136.97751,43.618555)"/>
<path transform="matrix(1.00008,0,0,-1.00002,84.015277,40.216485)" stroke-width=".79701" stroke-linecap="butt" stroke-miterlimit="10" stroke-linejoin="miter" fill="none" stroke="#000000" d="M38.21811 28.3468C38.21811 33.79865 33.79865 38.21811 28.3468 38.21811 22.89496 38.21811 18.4755 33.79865 18.4755 28.3468 18.4755 22.89496 22.89496 18.4755 28.3468 18.4755 33.79865 18.4755 38.21811 22.89496 38.21811 28.3468ZM28.3468 28.3468"/>
<use data-text="A" xlink:href="#font_1_27" transform="matrix(9.963397,0,0,-9.962799,108.62824,15.435987)"/>
<path transform="matrix(1.00008,0,0,-1.00002,84.015277,40.216485)" stroke-width=".79701" stroke-linecap="butt" stroke-miterlimit="10" stroke-linejoin="miter" fill="none" stroke="#000000" d="M37.9255-28.3468C37.9255-23.05658 33.63702-18.7681 28.3468-18.7681 23.05658-18.7681 18.7681-23.05658 18.7681-28.3468 18.7681-33.63702 23.05658-37.9255 28.3468-37.9255 33.63702-37.9255 37.9255-33.63702 37.9255-28.3468ZM28.3468-28.3468"/>
<use data-text="B" xlink:href="#font_1_34" transform="matrix(9.963397,0,0,-9.962799,108.83726,71.96612)"/>
<path transform="matrix(1.00008,0,0,-1.00002,84.015277,40.216485)" stroke-width=".3985" stroke-linecap="butt" stroke-miterlimit="10" stroke-linejoin="miter" fill="none" stroke="#000000" d="M-82.91362-26.22-9.63972-3.04836M7.14937 7.14937 21.08495 21.08495M35.60867 21.08495 49.54425 7.14937M65.73643 4.52124 85.04042 14.17339"/>
<path transform="matrix(1.00008,0,0,-1.00002,84.015277,40.216485)" stroke-width=".3985" stroke-linecap="butt" stroke-miterlimit="10" stroke-linejoin="miter" fill="none" stroke="#000000" d="M-28.3468 0H-10.11073M7.14937-7.14937 21.29185-21.29185M35.40175-21.29185 49.54425-7.14937M65.73643-4.52124 85.04042-14.17339"/>
<path transform="matrix(1.00008,0,0,-1.00002,84.015277,40.216485)" stroke-width=".3985" stroke-linecap="butt" stroke-miterlimit="10" stroke-linejoin="miter" fill="none" stroke="#000000" d="M-28.3468-14.17339-9.04282-4.52124"/>
</svg>
