<svg xmlns="http://www.w3.org/2000/svg" xmlns:xlink="http://www.w3.org/1999/xlink" xmlns:inkscape="http://www.inkscape.org/namespaces/inkscape" version="1.1" width="122" height="53" viewBox="0 0 122 53">
<defs>
<path id="font_1_1" d="M.30299378 .3157959H.47299195C.61499026 .3157959 .7539978 .41973878 .7539978 .53167727 .7539978 .6086273 .6879883 .6826172 .5569916 .6826172H.23298645C.21398926 .6826172 .20298767 .6826172 .20298767 .66360476 .20298767 .6516113 .21199036 .6516113 .23199463 .6516113 .24499512 .6516113 .2630005 .65060427 .2749939 .6496124 .29100038 .6476135 .29699708 .64460757 .29699708 .6336212 .29699708 .6296234 .29599 .62661746 .29299928 .614624L.15899658 .07795715C.14898682 .038986207 .14698792 .0309906 .067993167 .0309906 .050994874 .0309906 .039993287 .0309906 .039993287 .011993408 .039993287 0 .051986696 0 .054992677 0 .08299255 0 .1539917 .0029907227 .18199158 .0029907227 .20298767 .0029907227 .22499085 .0019989014 .24598694 .0019989014 .2679901 .0019989014 .2899933 0 .31098939 0 .31799317 0 .33099366 0 .33099366 .019989014 .33099366 .0309906 .32199098 .0309906 .30299378 .0309906 .2659912 .0309906 .23799134 .0309906 .23799134 .048980714 .23799134 .054977418 .23999024 .05996704 .24099732 .065963748L.30299378 .3157959M.375 .6136322C.38398744 .64860537 .38598634 .6516113 .42900086 .6516113H.5249939C.60798647 .6516113 .6609955 .62461856 .6609955 .55566409 .6609955 .5166931 .6409912 .43074037 .60198977 .39476014 .5519867 .34977723 .49198915 .34179688 .44799806 .34179688H.30699159L.375 .6136322Z"/>
<path id="font_2_1" d="M.5289917 .1640625V.20005799H.41799928V.64582827C.41799928 .66682437 .41799928 .6738281 .3959961 .6738281 .38398744 .6738281 .37998963 .6738281 .36999513 .65982058L.038986207 .20005799V.1640625H.33299256V.08201599C.33299256 .04800415 .33299256 .035995485 .2519989 .035995485H.22499085V0C.2749939 .0019989014 .33898927 .0039978029 .375 .0039978029 .4119873 .0039978029 .47599793 .0019989014 .526001 0V.035995485H.49899293C.41799928 .035995485 .41799928 .04800415 .41799928 .08201599V.1640625H.5289917M.33999635 .5658722V.20005799H.07598877L.33999635 .5658722Z"/>
<path id="font_3_1" d="M.43798829 .38304139C.4019928 .37702943 .3869934 .34902955 .3869934 .32702638 .3869934 .30003358 .4079895 .29003907 .42599488 .29003907 .44799806 .29003907 .48298646 .30603028 .48298646 .35403443 .48298646 .4223938 .40499879 .44140626 .35099793 .44140626 .20098877 .44140626 .06199646 .3030243 .06199646 .16412354 .06199646 .078186038 .12199402-.009765625 .24699402-.009765625 .41600038-.009765625 .49499513 .08917236 .49499513 .10316467 .49499513 .10916138 .48599244 .120147708 .47799684 .120147708 .47200013 .120147708 .46998597 .1181488 .46199037 .11016846 .38398744 .018234253 .2669983 .018234253 .24899292 .018234253 .1769867 .018234253 .14498902 .06718445 .14498902 .12915039 .14498902 .15812683 .15899658 .26704408 .21099854 .33602906 .24899292 .3850708 .30099488 .4133911 .35099793 .4133911 .36499024 .4133911 .41299439 .41137696 .43798829 .38304139Z"/>
</defs>
<use data-text="P" xlink:href="#font_1_1" transform="matrix(9.962799,0,0,-9.963197,13.028885,9.218773)"/>
<use data-text="4" xlink:href="#font_2_1" transform="matrix(6.97394,0,0,-6.9742186,19.425019,10.712864)"/>
<use data-text="P" xlink:href="#font_1_1" transform="matrix(9.962799,0,0,-9.963197,97.58458,8.7287449)"/>
<use data-text="c" xlink:href="#font_3_1" transform="matrix(6.97394,0,0,-6.9742186,105.36473,5.112526)"/>
<use data-text="4" xlink:href="#font_2_1" transform="matrix(6.97394,0,0,-6.9742186,103.980709,11.201893)"/>
<path transform="matrix(1.00002,0,0,-1.00006,4.287712,49.084165)" d="M1.99255 0C1.99255 1.10046 1.10046 1.99255 0 1.99255-1.10046 1.99255-1.99255 1.10046-1.99255 0-1.99255-1.10046-1.10046-1.99255 0-1.99255 1.10046-1.99255 1.99255-1.10046 1.99255 0ZM0 0" fill="#ff0000"/>
<path transform="matrix(1.00002,0,0,-1.00006,4.287712,49.084165)" stroke-width=".79701" stroke-linecap="butt" stroke-miterlimit="10" stroke-linejoin="miter" fill="none" stroke="#000000" d="M1.99255 0C1.99255 1.10046 1.10046 1.99255 0 1.99255-1.10046 1.99255-1.99255 1.10046-1.99255 0-1.99255-1.10046-1.10046-1.99255 0-1.99255 1.10046-1.99255 1.99255-1.10046 1.99255 0ZM0 0"/>
<path transform="matrix(1.00002,0,0,-1.00006,4.287712,49.084165)" d="M1.99255 28.3468C1.99255 29.44728 1.10046 30.33936 0 30.33936-1.10046 30.33936-1.99255 29.44728-1.99255 28.3468-1.99255 27.24634-1.10046 26.35425 0 26.35425 1.10046 26.35425 1.99255 27.24634 1.99255 28.3468ZM0 28.3468" fill="#ff0000"/>
<path transform="matrix(1.00002,0,0,-1.00006,4.287712,49.084165)" stroke-width=".79701" stroke-linecap="butt" stroke-miterlimit="10" stroke-linejoin="miter" fill="none" stroke="#000000" d="M1.99255 28.3468C1.99255 29.44728 1.10046 30.33936 0 30.33936-1.10046 30.33936-1.99255 29.44728-1.99255 28.3468-1.99255 27.24634-1.10046 26.35425 0 26.35425 1.10046 26.35425 1.99255 27.24634 1.99255 28.3468ZM0 28.3468"/>
<path transform="matrix(1.00002,0,0,-1.00006,4.287712,49.084165)" d="M30.33936 28.3468C30.33936 29.44728 29.44728 30.33936 28.3468 30.33936 27.24634 30.33936 26.35425 29.44728 26.35425 28.3468 26.35425 27.24634 27.24634 26.35425 28.3468 26.35425 29.44728 26.35425 30.33936 27.24634 30.33936 28.3468ZM28.3468 28.3468" fill="#ff0000"/>
<path transform="matrix(1.00002,0,0,-1.00006,4.287712,49.084165)" stroke-width=".79701" stroke-linecap="butt" stroke-miterlimit="10" stroke-linejoin="miter" fill="none" stroke="#000000" d="M30.33936 28.3468C30.33936 29.44728 29.44728 30.33936 28.3468 30.33936 27.24634 30.33936 26.35425 29.44728 26.35425 28.3468 26.35425 27.24634 27.24634 26.35425 28.3468 26.35425 29.44728 26.35425 30.33936 27.24634 30.33936 28.3468ZM28.3468 28.3468"/>
<path transform="matrix(1.00002,0,0,-1.00006,4.287712,49.084165)" d="M30.33936 0C30.33936 1.10046 29.44728 1.99255 28.3468 1.99255 27.24634 1.99255 26.35425 1.10046 26.35425 0 26.35425-1.10046 27.24634-1.99255 28.3468-1.99255 29.44728-1.99255 30.33936-1.10046 30.33936 0ZM28.3468 0" fill="#ff0000"/>
<path transform="matrix(1.00002,0,0,-1.00006,4.287712,49.084165)" stroke-width=".79701" stroke-linecap="butt" stroke-miterlimit="10" stroke-linejoin="miter" fill="none" stroke="#000000" d="M30.33936 0C30.33936 1.10046 29.44728 1.99255 28.3468 1.99255 27.24634 1.99255 26.35425 1.10046 26.35425 0 26.35425-1.10046 27.24634-1.99255 28.3468-1.99255 29.44728-1.99255 30.33936-1.10046 30.33936 0ZM28.3468 0"/>
<path transform="matrix(1.00002,0,0,-1.00006,4.287712,49.084165)" stroke-width=".3985" stroke-linecap="butt" stroke-miterlimit="10" stroke-linejoin="miter" fill="none" stroke="#000000" d="M0 2.39105V25.95575M2.39105 28.3468H25.95575M28.3468 25.95575V2.39105"/>
<path transform="matrix(1.00002,0,0,-1.00006,4.287712,49.084165)" d="M87.033 0C87.033 1.10046 86.14093 1.99255 85.04045 1.99255 83.93999 1.99255 83.0479 1.10046 83.0479 0 83.0479-1.10046 83.93999-1.99255 85.04045-1.99255 86.14093-1.99255 87.033-1.10046 87.033 0ZM85.04045 0" fill="#ff0000"/>
<path transform="matrix(1.00002,0,0,-1.00006,4.287712,49.084165)" stroke-width=".79701" stroke-linecap="butt" stroke-miterlimit="10" stroke-linejoin="miter" fill="none" stroke="#000000" d="M87.033 0C87.033 1.10046 86.14093 1.99255 85.04045 1.99255 83.93999 1.99255 83.0479 1.10046 83.0479 0 83.0479-1.10046 83.93999-1.99255 85.04045-1.99255 86.14093-1.99255 87.033-1.10046 87.033 0ZM85.04045 0"/>
<path transform="matrix(1.00002,0,0,-1.00006,4.287712,49.084165)" d="M87.033 28.3468C87.033 29.44728 86.14093 30.33936 85.04045 30.33936 83.93999 30.33936 83.0479 29.44728 83.0479 28.3468 83.0479 27.24634 83.93999 26.35425 85.04045 26.35425 86.14093 26.35425 87.033 27.24634 87.033 28.3468ZM85.04045 28.3468" fill="#ff0000"/>
<path transform="matrix(1.00002,0,0,-1.00006,4.287712,49.084165)" stroke-width=".79701" stroke-linecap="butt" stroke-miterlimit="10" stroke-linejoin="miter" fill="none" stroke="#000000" d="M87.033 28.3468C87.033 29.44728 86.14093 30.33936 85.04045 30.33936 83.93999 30.33936 83.0479 29.44728 83.0479 28.3468 83.0479 27.24634 83.93999 26.35425 85.04045 26.35425 86.14093 26.35425 87.033 27.24634 87.033 28.3468ZM85.04045 28.3468"/>
<path transform="matrix(1.00002,0,0,-1.00006,4.287712,49.084165)" d="M115.37982 28.3468C115.37982 29.44728 114.48773 30.33936 113.38727 30.33936 112.28679 30.33936 111.39471 29.44728 111.39471 28.3468 111.39471 27.24634 112.28679 26.35425 113.38727 26.35425 114.48773 26.35425 115.37982 27.24634 115.37982 28.3468ZM113.38727 28.3468" fill="#ff0000"/>
<path transform="matrix(1.00002,0,0,-1.00006,4.287712,49.084165)" stroke-width=".79701" stroke-linecap="butt" stroke-miterlimit="10" stroke-linejoin="miter" fill="none" stroke="#000000" d="M115.37982 28.3468C115.37982 29.44728 114.48773 30.33936 113.38727 30.33936 112.28679 30.33936 111.39471 29.44728 111.39471 28.3468 111.39471 27.24634 112.28679 26.35425 113.38727 26.35425 114.48773 26.35425 115.37982 27.24634 115.37982 28.3468ZM113.38727 28.3468"/>
<path transform="matrix(1.00002,0,0,-1.00006,4.287712,49.084165)" d="M115.37982 0C115.37982 1.10046 114.48773 1.99255 113.38727 1.99255 112.28679 1.99255 111.39471 1.10046 111.39471 0 111.39471-1.10046 112.28679-1.99255 113.38727-1.99255 114.48773-1.99255 115.37982-1.10046 115.37982 0ZM113.38727 0" fill="#ff0000"/>
<path transform="matrix(1.00002,0,0,-1.00006,4.287712,49.084165)" stroke-width=".79701" stroke-linecap="butt" stroke-miterlimit="10" stroke-linejoin="miter" fill="none" stroke="#000000" d="M115.37982 0C115.37982 1.10046 114.48773 1.99255 113.38727 1.99255 112.28679 1.99255 111.39471 1.10046 111.39471 0 111.39471-1.10046 112.28679-1.99255 113.38727-1.99255 114.48773-1.99255 115.37982-1.10046 115.37982 0ZM113.38727 0"/>
<path transform="matrix(1.00002,0,0,-1.00006,4.287712,49.084165)" stroke-width=".3985" stroke-linecap="butt" stroke-miterlimit="10" stroke-linejoin="miter" fill="none" stroke="#000000" d="M111.69653 26.65607 86.73119 1.69072M87.4315 0H110.9962M111.69653 1.69072 86.73119 26.65607"/>
</svg>
