<svg xmlns="http://www.w3.org/2000/svg" xmlns:xlink="http://www.w3.org/1999/xlink" xmlns:inkscape="http://www.inkscape.org/namespaces/inkscape" version="1.1" width="93" height="67" viewBox="0 0 93 67">
<defs>
<path id="font_1_1" d="M.5089874 .40376283C.5079956 .40675355 .5039978 .41474916 .5039978 .41775514 .5039978 .41874696 .5219879 .43273927 .5329895 .44073487L.70799258 .5756531C.8019867 .64460757 .84098818 .64860537 .87098696 .6516113 .8789978 .65260317 .8889923 .6536102 .8889923 .6716156 .8889923 .6756134 .8860016 .6826172 .8779907 .6826172 .85598757 .6826172 .83099368 .6796112 .8069916 .6796112 .7709961 .6796112 .7319946 .6826172 .69599917 .6826172 .68899539 .6826172 .6769867 .6826172 .6769867 .6626129 .6769867 .65560916 .6819916 .65260317 .68899539 .6516113 .71099856 .6496124 .7200012 .64460757 .7200012 .63061526 .7200012 .6126251 .6899872 .5896454 .6839905 .5846405L.2939911 .28483583 .37399293 .6056366C.3829956 .6416168 .3849945 .6516113 .45799256 .6516113 .48298646 .6516113 .49198915 .6516113 .49198915 .6716156 .49198915 .680603 .48399354 .6826172 .47799684 .6826172 .44999696 .6826172 .37799073 .6796112 .34999085 .6796112 .32099916 .6796112 .25 .6826172 .22099304 .6826172 .21398926 .6826172 .20098877 .6826172 .20098877 .66360476 .20098877 .6516113 .20999146 .6516113 .22999573 .6516113 .24299622 .6516113 .26098634 .65060427 .272995 .6496124 .2889862 .6476135 .29499818 .64460757 .29499818 .6336212 .29499818 .6296234 .2939911 .62661746 .29100038 .614624L.15699768 .07795715C.14698792 .038986207 .14498902 .0309906 .06599426 .0309906 .04899597 .0309906 .037994386 .0309906 .037994386 .011993408 .037994386 0 .049987794 0 .052993776 0 .08099365 0 .1519928 .0029907227 .17999268 .0029907227 .20098877 .0029907227 .22299195 .0019989014 .24398804 .0019989014 .2659912 .0019989014 .28799439 0 .30899049 0 .31599427 0 .32899476 0 .32899476 .019989014 .32899476 .0309906 .31999208 .0309906 .30099488 .0309906 .2639923 .0309906 .23599243 .0309906 .23599243 .048980714 .23599243 .05596924 .24198914 .07795715 .24499512 .09295654 .25898744 .14492798 .27198792 .19789124 .2849884 .24986267L.43399049 .3657837 .5499878 .096954349C.56199648 .06996155 .56199648 .06796265 .56199648 .061965944 .56199648 .03199768 .5189972 .0309906 .5099945 .0309906 .49899293 .0309906 .48799134 .0309906 .48799134 .010986328 .48799134 0 .5 0 .5019989 0 .5419922 0 .58399966 .0029907227 .6239929 .0029907227 .6459961 .0029907227 .69999697 0 .7220001 0 .72698977 0 .73999026 0 .73999026 .019989014 .73999026 .0309906 .72898867 .0309906 .7200012 .0309906 .67900088 .03199768 .66600039 .040985109 .651001 .07595825L.5089874 .40376283Z"/>
<path id="font_2_1" d="M.33499146 .63612368C.33499146 .6630554 .33299256 .6640625 .30499269 .6640625 .24099732 .6014404 .1499939 .6004486 .10899353 .6004486V.5644531C.1329956 .5644531 .19898987 .5644531 .2539978 .592453V.08203125C.2539978 .04899597 .2539978 .035995485 .1539917 .035995485H.115997318V0C.13398743 .0009918213 .25698854 .0039978029 .2939911 .0039978029 .32499696 .0039978029 .45098878 .0009918213 .47299195 0V.035995485H.43499757C.33499146 .035995485 .33499146 .04899597 .33499146 .08203125V.63612368Z"/>
<path id="font_3_1" d="M.21099854 .015991211C.21099854-.03907776 .20098877-.10321045 .1329956-.16732788 .1289978-.17134094 .12599182-.17434693 .12599182-.17933655 .12599182-.18634033 .13398743-.19334412 .13999939-.19334412 .1539917-.19334412 .23899842-.113220218 .23899842 .005996704 .23899842 .067993167 .21499634 .114990238 .16899109 .114990238 .13598633 .114990238 .11199951 .08898926 .11199951 .057998659 .11199951 .025985718 .1349945 0 .16999817 0 .19400025 0 .20999146 .015991211 .21099854 .015991211Z"/>
<path id="font_2_2" d="M.272995 .33428956C.35099793 .33428956 .40699769 .2803192 .40699769 .1733551 .40699769 .04940796 .33499146 .012466431 .2769928 .012466431 .23699951 .012466431 .14898682 .0234375 .10699463 .082351688 .1539917 .084350589 .16499329 .11735535 .16499329 .13835144 .16499329 .17034912 .14099121 .19335938 .10998535 .19335938 .08198547 .19335938 .053985597 .17634583 .053985597 .13534546 .053985597 .041412355 .1579895-.01953125 .2789917-.01953125 .41799928-.01953125 .5139923 .07336426 .5139923 .1733551 .5139923 .2513275 .44999696 .32929994 .33999635 .35229493 .44499208 .39024354 .48298646 .4650879 .48298646 .5260773 .48298646 .60505679 .3919983 .6640625 .2809906 .6640625 .16999817 .6640625 .084991458 .61006167 .084991458 .5300751 .084991458 .49606324 .10699463 .47706605 .13699341 .47706605 .16799927 .47706605 .18798828 .5000763 .18798828 .5280762 .18798828 .5570679 .16799927 .57806399 .13699341 .5800781 .17199707 .62405398 .24099732 .63505557 .27799989 .63505557 .32299806 .63505557 .38598634 .6130676 .38598634 .5260773 .38598634 .48406983 .37199403 .43814088 .34599305 .4072113 .31298829 .36927796 .2849884 .3672943 .23498535 .36428834 .20999146 .3623047 .20799256 .3623047 .20298767 .3612976 .20098877 .3612976 .19299317 .3592987 .19299317 .34829713 .19299317 .33428956 .20199585 .33428956 .21899414 .33428956H.272995Z"/>
<path id="font_2_3" d="M.5289917 .1640625V.20005799H.41799928V.64582827C.41799928 .66682437 .41799928 .6738281 .3959961 .6738281 .38398744 .6738281 .37998963 .6738281 .36999513 .65982058L.038986207 .20005799V.1640625H.33299256V.08201599C.33299256 .04800415 .33299256 .035995485 .2519989 .035995485H.22499085V0C.2749939 .0019989014 .33898927 .0039978029 .375 .0039978029 .4119873 .0039978029 .47599793 .0019989014 .526001 0V.035995485H.49899293C.41799928 .035995485 .41799928 .04800415 .41799928 .08201599V.1640625H.5289917M.33999635 .5658722V.20005799H.07598877L.33999635 .5658722Z"/>
</defs>
<use data-text="K" xlink:href="#font_1_1" transform="matrix(9.962899,0,0,-9.962799,8.827705,62.663934)"/>
<use data-text="1" xlink:href="#font_2_1" transform="matrix(6.9740097,0,0,-6.97394,17.288956,64.15796)"/>
<use data-text="," xlink:href="#font_3_1" transform="matrix(6.9740097,0,0,-6.97394,21.260079,64.15796)"/>
<use data-text="3" xlink:href="#font_2_2" transform="matrix(6.9740097,0,0,-6.97394,23.626145,64.15796)"/>
<use data-text="K" xlink:href="#font_1_1" transform="matrix(9.962899,0,0,-9.962799,65.52341,62.663934)"/>
<use data-text="4" xlink:href="#font_2_3" transform="matrix(6.9740097,0,0,-6.97394,73.98466,64.15796)"/>
<use data-text="," xlink:href="#font_3_1" transform="matrix(6.9740097,0,0,-6.97394,77.95578,64.15796)"/>
<use data-text="4" xlink:href="#font_2_3" transform="matrix(6.9740097,0,0,-6.97394,80.321849,64.15796)"/>
<path transform="matrix(1.00003,0,0,-1.00002,4.2885668,46.51161)" stroke-width=".3985" stroke-linecap="butt" stroke-miterlimit="10" stroke-linejoin="miter" fill="none" stroke="#000000" d="M0 14.17339 28.3468 0"/>
<path transform="matrix(1.00003,0,0,-1.00002,4.2885668,46.51161)" d="M30.33936 0C30.33936 1.10046 29.44728 1.99255 28.3468 1.99255 27.24634 1.99255 26.35425 1.10046 26.35425 0 26.35425-1.10046 27.24634-1.99255 28.3468-1.99255 29.44728-1.99255 30.33936-1.10046 30.33936 0ZM28.3468 0" fill="#ff0000"/>
<path transform="matrix(1.00003,0,0,-1.00002,4.2885668,46.51161)" stroke-width=".79701" stroke-linecap="butt" stroke-miterlimit="10" stroke-linejoin="miter" fill="none" stroke="#000000" d="M30.33936 0C30.33936 1.10046 29.44728 1.99255 28.3468 1.99255 27.24634 1.99255 26.35425 1.10046 26.35425 0 26.35425-1.10046 27.24634-1.99255 28.3468-1.99255 29.44728-1.99255 30.33936-1.10046 30.33936 0ZM28.3468 0"/>
<path transform="matrix(1.00003,0,0,-1.00002,4.2885668,46.51161)" stroke-width=".3985" stroke-linecap="butt" stroke-miterlimit="10" stroke-linejoin="miter" fill="none" stroke="#000000" d="M0 14.17339H28.3468"/>
<path transform="matrix(1.00003,0,0,-1.00002,4.2885668,46.51161)" d="M30.33936 14.17339C30.33936 15.27386 29.44728 16.16594 28.3468 16.16594 27.24634 16.16594 26.35425 15.27386 26.35425 14.17339 26.35425 13.07292 27.24634 12.18083 28.3468 12.18083 29.44728 12.18083 30.33936 13.07292 30.33936 14.17339ZM28.3468 14.17339" fill="#ff0000"/>
<path transform="matrix(1.00003,0,0,-1.00002,4.2885668,46.51161)" stroke-width=".79701" stroke-linecap="butt" stroke-miterlimit="10" stroke-linejoin="miter" fill="none" stroke="#000000" d="M30.33936 14.17339C30.33936 15.27386 29.44728 16.16594 28.3468 16.16594 27.24634 16.16594 26.35425 15.27386 26.35425 14.17339 26.35425 13.07292 27.24634 12.18083 28.3468 12.18083 29.44728 12.18083 30.33936 13.07292 30.33936 14.17339ZM28.3468 14.17339"/>
<path transform="matrix(1.00003,0,0,-1.00002,4.2885668,46.51161)" stroke-width=".3985" stroke-linecap="butt" stroke-miterlimit="10" stroke-linejoin="miter" fill="none" stroke="#000000" d="M0 14.17339 28.3468 28.3468"/>
<path transform="matrix(1.00003,0,0,-1.00002,4.2885668,46.51161)" d="M30.33936 28.3468C30.33936 29.44728 29.44728 30.33936 28.3468 30.33936 27.24634 30.33936 26.35425 29.44728 26.35425 28.3468 26.35425 27.24634 27.24634 26.35425 28.3468 26.35425 29.44728 26.35425 30.33936 27.24634 30.33936 28.3468ZM28.3468 28.3468" fill="#ff0000"/>
<path transform="matrix(1.00003,0,0,-1.00002,4.2885668,46.51161)" stroke-width=".79701" stroke-linecap="butt" stroke-miterlimit="10" stroke-linejoin="miter" fill="none" stroke="#000000" d="M30.33936 28.3468C30.33936 29.44728 29.44728 30.33936 28.3468 30.33936 27.24634 30.33936 26.35425 29.44728 26.35425 28.3468 26.35425 27.24634 27.24634 26.35425 28.3468 26.35425 29.44728 26.35425 30.33936 27.24634 30.33936 28.3468ZM28.3468 28.3468"/>
<path transform="matrix(1.00003,0,0,-1.00002,4.2885668,46.51161)" d="M1.99255 14.17339C1.99255 15.27386 1.10046 16.16594 0 16.16594-1.10046 16.16594-1.99255 15.27386-1.99255 14.17339-1.99255 13.07292-1.10046 12.18083 0 12.18083 1.10046 12.18083 1.99255 13.07292 1.99255 14.17339ZM0 14.17339" fill="#ff0000"/>
<path transform="matrix(1.00003,0,0,-1.00002,4.2885668,46.51161)" stroke-width=".79701" stroke-linecap="butt" stroke-miterlimit="10" stroke-linejoin="miter" fill="none" stroke="#000000" d="M1.99255 14.17339C1.99255 15.27386 1.10046 16.16594 0 16.16594-1.10046 16.16594-1.99255 15.27386-1.99255 14.17339-1.99255 13.07292-1.10046 12.18083 0 12.18083 1.10046 12.18083 1.99255 13.07292 1.99255 14.17339ZM0 14.17339"/>
<path transform="matrix(1.00003,0,0,-1.00002,4.2885668,46.51161)" stroke-width=".3985" stroke-linecap="butt" stroke-miterlimit="10" stroke-linejoin="miter" fill="none" stroke="#000000" d="M56.69363 0H85.04044"/>
<path transform="matrix(1.00003,0,0,-1.00002,4.2885668,46.51161)" stroke-width=".3985" stroke-linecap="butt" stroke-miterlimit="10" stroke-linejoin="miter" fill="none" stroke="#000000" d="M56.69363 0 85.04044 14.17339"/>
<path transform="matrix(1.00003,0,0,-1.00002,4.2885668,46.51161)" stroke-width=".3985" stroke-linecap="butt" stroke-miterlimit="10" stroke-linejoin="miter" fill="none" stroke="#000000" d="M56.69363 0 85.04044 28.3468"/>
<path transform="matrix(1.00003,0,0,-1.00002,4.2885668,46.51161)" stroke-width=".3985" stroke-linecap="butt" stroke-miterlimit="10" stroke-linejoin="miter" fill="none" stroke="#000000" d="M56.69363 0 85.04044 42.5202"/>
<path transform="matrix(1.00003,0,0,-1.00002,4.2885668,46.51161)" d="M58.68619 0C58.68619 1.10046 57.7941 1.99255 56.69363 1.99255 55.59315 1.99255 54.70108 1.10046 54.70108 0 54.70108-1.10046 55.59315-1.99255 56.69363-1.99255 57.7941-1.99255 58.68619-1.10046 58.68619 0ZM56.69363 0" fill="#ff0000"/>
<path transform="matrix(1.00003,0,0,-1.00002,4.2885668,46.51161)" stroke-width=".79701" stroke-linecap="butt" stroke-miterlimit="10" stroke-linejoin="miter" fill="none" stroke="#000000" d="M58.68619 0C58.68619 1.10046 57.7941 1.99255 56.69363 1.99255 55.59315 1.99255 54.70108 1.10046 54.70108 0 54.70108-1.10046 55.59315-1.99255 56.69363-1.99255 57.7941-1.99255 58.68619-1.10046 58.68619 0ZM56.69363 0"/>
<path transform="matrix(1.00003,0,0,-1.00002,4.2885668,46.51161)" d="M87.03299 0C87.03299 1.10046 86.14091 1.99255 85.04044 1.99255 83.93997 1.99255 83.04788 1.10046 83.04788 0 83.04788-1.10046 83.93997-1.99255 85.04044-1.99255 86.14091-1.99255 87.03299-1.10046 87.03299 0ZM85.04044 0" fill="#ff0000"/>
<path transform="matrix(1.00003,0,0,-1.00002,4.2885668,46.51161)" stroke-width=".79701" stroke-linecap="butt" stroke-miterlimit="10" stroke-linejoin="miter" fill="none" stroke="#000000" d="M87.03299 0C87.03299 1.10046 86.14091 1.99255 85.04044 1.99255 83.93997 1.99255 83.04788 1.10046 83.04788 0 83.04788-1.10046 83.93997-1.99255 85.04044-1.99255 86.14091-1.99255 87.03299-1.10046 87.03299 0ZM85.04044 0"/>
<path transform="matrix(1.00003,0,0,-1.00002,4.2885668,46.51161)" stroke-width=".3985" stroke-linecap="butt" stroke-miterlimit="10" stroke-linejoin="miter" fill="none" stroke="#000000" d="M56.69363 14.17339 85.04044 0"/>
<path transform="matrix(1.00003,0,0,-1.00002,4.2885668,46.51161)" stroke-width=".3985" stroke-linecap="butt" stroke-miterlimit="10" stroke-linejoin="miter" fill="none" stroke="#000000" d="M56.69363 14.17339H85.04044"/>
<path transform="matrix(1.00003,0,0,-1.00002,4.2885668,46.51161)" stroke-width=".3985" stroke-linecap="butt" stroke-miterlimit="10" stroke-linejoin="miter" fill="none" stroke="#000000" d="M56.69363 14.17339 85.04044 28.3468"/>
<path transform="matrix(1.00003,0,0,-1.00002,4.2885668,46.51161)" stroke-width=".3985" stroke-linecap="butt" stroke-miterlimit="10" stroke-linejoin="miter" fill="none" stroke="#000000" d="M56.69363 14.17339 85.04044 42.5202"/>
<path transform="matrix(1.00003,0,0,-1.00002,4.2885668,46.51161)" d="M58.68619 14.17339C58.68619 15.27386 57.7941 16.16594 56.69363 16.16594 55.59315 16.16594 54.70108 15.27386 54.70108 14.17339 54.70108 13.07292 55.59315 12.18083 56.69363 12.18083 57.7941 12.18083 58.68619 13.07292 58.68619 14.17339ZM56.69363 14.17339" fill="#ff0000"/>
<path transform="matrix(1.00003,0,0,-1.00002,4.2885668,46.51161)" stroke-width=".79701" stroke-linecap="butt" stroke-miterlimit="10" stroke-linejoin="miter" fill="none" stroke="#000000" d="M58.68619 14.17339C58.68619 15.27386 57.7941 16.16594 56.69363 16.16594 55.59315 16.16594 54.70108 15.27386 54.70108 14.17339 54.70108 13.07292 55.59315 12.18083 56.69363 12.18083 57.7941 12.18083 58.68619 13.07292 58.68619 14.17339ZM56.69363 14.17339"/>
<path transform="matrix(1.00003,0,0,-1.00002,4.2885668,46.51161)" d="M87.03299 14.17339C87.03299 15.27386 86.14091 16.16594 85.04044 16.16594 83.93997 16.16594 83.04788 15.27386 83.04788 14.17339 83.04788 13.07292 83.93997 12.18083 85.04044 12.18083 86.14091 12.18083 87.03299 13.07292 87.03299 14.17339ZM85.04044 14.17339" fill="#ff0000"/>
<path transform="matrix(1.00003,0,0,-1.00002,4.2885668,46.51161)" stroke-width=".79701" stroke-linecap="butt" stroke-miterlimit="10" stroke-linejoin="miter" fill="none" stroke="#000000" d="M87.03299 14.17339C87.03299 15.27386 86.14091 16.16594 85.04044 16.16594 83.93997 16.16594 83.04788 15.27386 83.04788 14.17339 83.04788 13.07292 83.93997 12.18083 85.04044 12.18083 86.14091 12.18083 87.03299 13.07292 87.03299 14.17339ZM85.04044 14.17339"/>
<path transform="matrix(1.00003,0,0,-1.00002,4.2885668,46.51161)" stroke-width=".3985" stroke-linecap="butt" stroke-miterlimit="10" stroke-linejoin="miter" fill="none" stroke="#000000" d="M56.69363 28.3468 85.04044 0"/>
<path transform="matrix(1.00003,0,0,-1.00002,4.2885668,46.51161)" stroke-width=".3985" stroke-linecap="butt" stroke-miterlimit="10" stroke-linejoin="miter" fill="none" stroke="#000000" d="M56.69363 28.3468 85.04044 14.17339"/>
<path transform="matrix(1.00003,0,0,-1.00002,4.2885668,46.51161)" stroke-width=".3985" stroke-linecap="butt" stroke-miterlimit="10" stroke-linejoin="miter" fill="none" stroke="#000000" d="M56.69363 28.3468H85.04044"/>
<path transform="matrix(1.00003,0,0,-1.00002,4.2885668,46.51161)" stroke-width=".3985" stroke-linecap="butt" stroke-miterlimit="10" stroke-linejoin="miter" fill="none" stroke="#000000" d="M56.69363 28.3468 85.04044 42.5202"/>
<path transform="matrix(1.00003,0,0,-1.00002,4.2885668,46.51161)" d="M58.68619 28.3468C58.68619 29.44728 57.7941 30.33936 56.69363 30.33936 55.59315 30.33936 54.70108 29.44728 54.70108 28.3468 54.70108 27.24634 55.59315 26.35425 56.69363 26.35425 57.7941 26.35425 58.68619 27.24634 58.68619 28.3468ZM56.69363 28.3468" fill="#ff0000"/>
<path transform="matrix(1.00003,0,0,-1.00002,4.2885668,46.51161)" stroke-width=".79701" stroke-linecap="butt" stroke-miterlimit="10" stroke-linejoin="miter" fill="none" stroke="#000000" d="M58.68619 28.3468C58.68619 29.44728 57.7941 30.33936 56.69363 30.33936 55.59315 30.33936 54.70108 29.44728 54.70108 28.3468 54.70108 27.24634 55.59315 26.35425 56.69363 26.35425 57.7941 26.35425 58.68619 27.24634 58.68619 28.3468ZM56.69363 28.3468"/>
<path transform="matrix(1.00003,0,0,-1.00002,4.2885668,46.51161)" d="M87.03299 28.3468C87.03299 29.44728 86.14091 30.33936 85.04044 30.33936 83.93997 30.33936 83.04788 29.44728 83.04788 28.3468 83.04788 27.24634 83.93997 26.35425 85.04044 26.35425 86.14091 26.35425 87.03299 27.24634 87.03299 28.3468ZM85.04044 28.3468" fill="#ff0000"/>
<path transform="matrix(1.00003,0,0,-1.00002,4.2885668,46.51161)" stroke-width=".79701" stroke-linecap="butt" stroke-miterlimit="10" stroke-linejoin="miter" fill="none" stroke="#000000" d="M87.03299 28.3468C87.03299 29.44728 86.14091 30.33936 85.04044 30.33936 83.93997 30.33936 83.04788 29.44728 83.04788 28.3468 83.04788 27.24634 83.93997 26.35425 85.04044 26.35425 86.14091 26.35425 87.03299 27.24634 87.03299 28.3468ZM85.04044 28.3468"/>
<path transform="matrix(1.00003,0,0,-1.00002,4.2885668,46.51161)" stroke-width=".3985" stroke-linecap="butt" stroke-miterlimit="10" stroke-linejoin="miter" fill="none" stroke="#000000" d="M56.69363 42.5202 85.04044 0"/>
<path transform="matrix(1.00003,0,0,-1.00002,4.2885668,46.51161)" stroke-width=".3985" stroke-linecap="butt" stroke-miterlimit="10" stroke-linejoin="miter" fill="none" stroke="#000000" d="M56.69363 42.5202 85.04044 14.17339"/>
<path transform="matrix(1.00003,0,0,-1.00002,4.2885668,46.51161)" stroke-width=".3985" stroke-linecap="butt" stroke-miterlimit="10" stroke-linejoin="miter" fill="none" stroke="#000000" d="M56.69363 42.5202 85.04044 28.3468"/>
<path transform="matrix(1.00003,0,0,-1.00002,4.2885668,46.51161)" stroke-width=".3985" stroke-linecap="butt" stroke-miterlimit="10" stroke-linejoin="miter" fill="none" stroke="#000000" d="M56.69363 42.5202H85.04044"/>
<path transform="matrix(1.00003,0,0,-1.00002,4.2885668,46.51161)" d="M58.68619 42.5202C58.68619 43.62067 57.7941 44.51276 56.69363 44.51276 55.59315 44.51276 54.70108 43.62067 54.70108 42.5202 54.70108 41.41972 55.59315 40.52765 56.69363 40.52765 57.7941 40.52765 58.68619 41.41972 58.68619 42.5202ZM56.69363 42.5202" fill="#ff0000"/>
<path transform="matrix(1.00003,0,0,-1.00002,4.2885668,46.51161)" stroke-width=".79701" stroke-linecap="butt" stroke-miterlimit="10" stroke-linejoin="miter" fill="none" stroke="#000000" d="M58.68619 42.5202C58.68619 43.62067 57.7941 44.51276 56.69363 44.51276 55.59315 44.51276 54.70108 43.62067 54.70108 42.5202 54.70108 41.41972 55.59315 40.52765 56.69363 40.52765 57.7941 40.52765 58.68619 41.41972 58.68619 42.5202ZM56.69363 42.5202"/>
<path transform="matrix(1.00003,0,0,-1.00002,4.2885668,46.51161)" d="M87.03299 42.5202C87.03299 43.62067 86.14091 44.51276 85.04044 44.51276 83.93997 44.51276 83.04788 43.62067 83.04788 42.5202 83.04788 41.41972 83.93997 40.52765 85.04044 40.52765 86.14091 40.52765 87.03299 41.41972 87.03299 42.5202ZM85.04044 42.5202" fill="#ff0000"/>
<path transform="matrix(1.00003,0,0,-1.00002,4.2885668,46.51161)" stroke-width=".79701" stroke-linecap="butt" stroke-miterlimit="10" stroke-linejoin="miter" fill="none" stroke="#000000" d="M87.03299 42.5202C87.03299 43.62067 86.14091 44.51276 85.04044 44.51276 83.93997 44.51276 83.04788 43.62067 83.04788 42.5202 83.04788 41.41972 83.93997 40.52765 85.04044 40.52765 86.14091 40.52765 87.03299 41.41972 87.03299 42.5202ZM85.04044 42.5202"/>
</svg>
