<svg xmlns="http://www.w3.org/2000/svg" xmlns:xlink="http://www.w3.org/1999/xlink" xmlns:inkscape="http://www.inkscape.org/namespaces/inkscape" version="1.1" width="248" height="93" viewBox="0 0 248 93">
<path transform="matrix(1.00003,0,0,-1.00002,3.605667,89.03146)" d="M1.99255 0C1.99255 1.10046 1.10046 1.99255 0 1.99255-1.10046 1.99255-1.99255 1.10046-1.99255 0-1.99255-1.10046-1.10046-1.99255 0-1.99255 1.10046-1.99255 1.99255-1.10046 1.99255 0ZM0 0" fill="#ff0000"/>
<path transform="matrix(1.00003,0,0,-1.00002,3.605667,89.03146)" stroke-width=".79701" stroke-linecap="butt" stroke-miterlimit="10" stroke-linejoin="miter" fill="none" stroke="#000000" d="M1.99255 0C1.99255 1.10046 1.10046 1.99255 0 1.99255-1.10046 1.99255-1.99255 1.10046-1.99255 0-1.99255-1.10046-1.10046-1.99255 0-1.99255 1.10046-1.99255 1.99255-1.10046 1.99255 0ZM0 0"/>
<path transform="matrix(1.00003,0,0,-1.00002,3.605667,89.03146)" d="M1.99255 85.04042C1.99255 86.1409 1.10046 87.03297 0 87.03297-1.10046 87.03297-1.99255 86.1409-1.99255 85.04042-1.99255 83.93996-1.10046 83.04787 0 83.04787 1.10046 83.04787 1.99255 83.93996 1.99255 85.04042ZM0 85.04042" fill="#ff0000"/>
<path transform="matrix(1.00003,0,0,-1.00002,3.605667,89.03146)" stroke-width=".79701" stroke-linecap="butt" stroke-miterlimit="10" stroke-linejoin="miter" fill="none" stroke="#000000" d="M1.99255 85.04042C1.99255 86.1409 1.10046 87.03297 0 87.03297-1.10046 87.03297-1.99255 86.1409-1.99255 85.04042-1.99255 83.93996-1.10046 83.04787 0 83.04787 1.10046 83.04787 1.99255 83.93996 1.99255 85.04042ZM0 85.04042"/>
<path transform="matrix(1.00003,0,0,-1.00002,3.605667,89.03146)" d="M87.03297 85.04042C87.03297 86.1409 86.1409 87.03297 85.04042 87.03297 83.93996 87.03297 83.04787 86.1409 83.04787 85.04042 83.04787 83.93996 83.93996 83.04787 85.04042 83.04787 86.1409 83.04787 87.03297 83.93996 87.03297 85.04042ZM85.04042 85.04042" fill="#ff0000"/>
<path transform="matrix(1.00003,0,0,-1.00002,3.605667,89.03146)" stroke-width=".79701" stroke-linecap="butt" stroke-miterlimit="10" stroke-linejoin="miter" fill="none" stroke="#000000" d="M87.03297 85.04042C87.03297 86.1409 86.1409 87.03297 85.04042 87.03297 83.93996 87.03297 83.04787 86.1409 83.04787 85.04042 83.04787 83.93996 83.93996 83.04787 85.04042 83.04787 86.1409 83.04787 87.03297 83.93996 87.03297 85.04042ZM85.04042 85.04042"/>
<path transform="matrix(1.00003,0,0,-1.00002,3.605667,89.03146)" d="M87.03297 0C87.03297 1.10046 86.1409 1.99255 85.04042 1.99255 83.93996 1.99255 83.04787 1.10046 83.04787 0 83.04787-1.10046 83.93996-1.99255 85.04042-1.99255 86.1409-1.99255 87.03297-1.10046 87.03297 0ZM85.04042 0" fill="#ff0000"/>
<path transform="matrix(1.00003,0,0,-1.00002,3.605667,89.03146)" stroke-width=".79701" stroke-linecap="butt" stroke-miterlimit="10" stroke-linejoin="miter" fill="none" stroke="#000000" d="M87.03297 0C87.03297 1.10046 86.1409 1.99255 85.04042 1.99255 83.93996 1.99255 83.04787 1.10046 83.04787 0 83.04787-1.10046 83.93996-1.99255 85.04042-1.99255 86.1409-1.99255 87.03297-1.10046 87.03297 0ZM85.04042 0"/>
<path transform="matrix(1.00003,0,0,-1.00002,3.605667,89.03146)" d="M30.33936 28.3468C30.33936 29.44728 29.44728 30.33936 28.3468 30.33936 27.24634 30.33936 26.35425 29.44728 26.35425 28.3468 26.35425 27.24634 27.24634 26.35425 28.3468 26.35425 29.44728 26.35425 30.33936 27.24634 30.33936 28.3468ZM28.3468 28.3468" fill="#ff0000"/>
<path transform="matrix(1.00003,0,0,-1.00002,3.605667,89.03146)" stroke-width=".79701" stroke-linecap="butt" stroke-miterlimit="10" stroke-linejoin="miter" fill="none" stroke="#000000" d="M30.33936 28.3468C30.33936 29.44728 29.44728 30.33936 28.3468 30.33936 27.24634 30.33936 26.35425 29.44728 26.35425 28.3468 26.35425 27.24634 27.24634 26.35425 28.3468 26.35425 29.44728 26.35425 30.33936 27.24634 30.33936 28.3468ZM28.3468 28.3468"/>
<path transform="matrix(1.00003,0,0,-1.00002,3.605667,89.03146)" d="M30.33936 56.69362C30.33936 57.79408 29.44728 58.68617 28.3468 58.68617 27.24634 58.68617 26.35425 57.79408 26.35425 56.69362 26.35425 55.59314 27.24634 54.70107 28.3468 54.70107 29.44728 54.70107 30.33936 55.59314 30.33936 56.69362ZM28.3468 56.69362" fill="#ff0000"/>
<path transform="matrix(1.00003,0,0,-1.00002,3.605667,89.03146)" stroke-width=".79701" stroke-linecap="butt" stroke-miterlimit="10" stroke-linejoin="miter" fill="none" stroke="#000000" d="M30.33936 56.69362C30.33936 57.79408 29.44728 58.68617 28.3468 58.68617 27.24634 58.68617 26.35425 57.79408 26.35425 56.69362 26.35425 55.59314 27.24634 54.70107 28.3468 54.70107 29.44728 54.70107 30.33936 55.59314 30.33936 56.69362ZM28.3468 56.69362"/>
<path transform="matrix(1.00003,0,0,-1.00002,3.605667,89.03146)" d="M58.68617 56.69362C58.68617 57.79408 57.79408 58.68617 56.69362 58.68617 55.59314 58.68617 54.70107 57.79408 54.70107 56.69362 54.70107 55.59314 55.59314 54.70107 56.69362 54.70107 57.79408 54.70107 58.68617 55.59314 58.68617 56.69362ZM56.69362 56.69362" fill="#ff0000"/>
<path transform="matrix(1.00003,0,0,-1.00002,3.605667,89.03146)" stroke-width=".79701" stroke-linecap="butt" stroke-miterlimit="10" stroke-linejoin="miter" fill="none" stroke="#000000" d="M58.68617 56.69362C58.68617 57.79408 57.79408 58.68617 56.69362 58.68617 55.59314 58.68617 54.70107 57.79408 54.70107 56.69362 54.70107 55.59314 55.59314 54.70107 56.69362 54.70107 57.79408 54.70107 58.68617 55.59314 58.68617 56.69362ZM56.69362 56.69362"/>
<path transform="matrix(1.00003,0,0,-1.00002,3.605667,89.03146)" d="M58.68617 28.3468C58.68617 29.44728 57.79408 30.33936 56.69362 30.33936 55.59314 30.33936 54.70107 29.44728 54.70107 28.3468 54.70107 27.24634 55.59314 26.35425 56.69362 26.35425 57.79408 26.35425 58.68617 27.24634 58.68617 28.3468ZM56.69362 28.3468" fill="#ff0000"/>
<path transform="matrix(1.00003,0,0,-1.00002,3.605667,89.03146)" stroke-width=".79701" stroke-linecap="butt" stroke-miterlimit="10" stroke-linejoin="miter" fill="none" stroke="#000000" d="M58.68617 28.3468C58.68617 29.44728 57.79408 30.33936 56.69362 30.33936 55.59314 30.33936 54.70107 29.44728 54.70107 28.3468 54.70107 27.24634 55.59314 26.35425 56.69362 26.35425 57.79408 26.35425 58.68617 27.24634 58.68617 28.3468ZM56.69362 28.3468"/>
<path transform="matrix(1.00003,0,0,-1.00002,3.605667,89.03146)" stroke-width=".79701" stroke-linecap="butt" stroke-miterlimit="10" stroke-linejoin="miter" fill="none" stroke="#000000" d="M0 2.39105V82.64937M2.39105 85.04042H82.64937M85.04042 82.64937V2.39105M82.64937 0H2.39105M1.69072 1.69072 26.65607 26.65607M28.3468 30.73785V54.30255M30.73785 56.69362H54.30255M56.69362 54.30255V30.73785M54.30255 28.3468H30.73785"/>
<path transform="matrix(1.00003,0,0,-1.00002,3.605667,89.03146)" stroke-width=".79701" stroke-linecap="butt" stroke-miterlimit="10" stroke-linejoin="miter" fill="none" stroke="#000000" d="M1.69072 83.34969 26.65607 58.38434"/>
<path transform="matrix(1.00003,0,0,-1.00002,3.605667,89.03146)" stroke-width=".79701" stroke-linecap="butt" stroke-miterlimit="10" stroke-linejoin="miter" fill="none" stroke="#000000" d="M83.34969 83.34969 58.38434 58.38434"/>
<path transform="matrix(1.00003,0,0,-1.00002,3.605667,89.03146)" stroke-width=".79701" stroke-linecap="butt" stroke-miterlimit="10" stroke-linejoin="miter" fill="none" stroke="#000000" d="M83.34969 1.69072 58.38434 26.65607"/>
<path transform="matrix(1.00003,0,0,-1.00002,3.605667,89.03146)" d="M115.37984 42.52022C115.37984 43.62068 114.48775 44.51277 113.38728 44.51277 112.2868 44.51277 111.39473 43.62068 111.39473 42.52022 111.39473 41.41974 112.2868 40.52766 113.38728 40.52766 114.48775 40.52766 115.37984 41.41974 115.37984 42.52022ZM113.38728 42.52022" fill="#ff0000"/>
<path transform="matrix(1.00003,0,0,-1.00002,3.605667,89.03146)" stroke-width=".79701" stroke-linecap="butt" stroke-miterlimit="10" stroke-linejoin="miter" fill="none" stroke="#000000" d="M115.37984 42.52022C115.37984 43.62068 114.48775 44.51277 113.38728 44.51277 112.2868 44.51277 111.39473 43.62068 111.39473 42.52022 111.39473 41.41974 112.2868 40.52766 113.38728 40.52766 114.48775 40.52766 115.37984 41.41974 115.37984 42.52022ZM113.38728 42.52022"/>
<path transform="matrix(1.00003,0,0,-1.00002,3.605667,89.03146)" d="M157.90004 85.04042C157.90004 86.1409 157.00795 87.03297 155.90749 87.03297 154.807 87.03297 153.91493 86.1409 153.91493 85.04042 153.91493 83.93996 154.807 83.04787 155.90749 83.04787 157.00795 83.04787 157.90004 83.93996 157.90004 85.04042ZM155.90749 85.04042" fill="#ff0000"/>
<path transform="matrix(1.00003,0,0,-1.00002,3.605667,89.03146)" stroke-width=".79701" stroke-linecap="butt" stroke-miterlimit="10" stroke-linejoin="miter" fill="none" stroke="#000000" d="M157.90004 85.04042C157.90004 86.1409 157.00795 87.03297 155.90749 87.03297 154.807 87.03297 153.91493 86.1409 153.91493 85.04042 153.91493 83.93996 154.807 83.04787 155.90749 83.04787 157.00795 83.04787 157.90004 83.93996 157.90004 85.04042ZM155.90749 85.04042"/>
<path transform="matrix(1.00003,0,0,-1.00002,3.605667,89.03146)" d="M200.42026 42.52022C200.42026 43.62068 199.52819 44.51277 198.4277 44.51277 197.32724 44.51277 196.43515 43.62068 196.43515 42.52022 196.43515 41.41974 197.32724 40.52766 198.4277 40.52766 199.52819 40.52766 200.42026 41.41974 200.42026 42.52022ZM198.4277 42.52022" fill="#ff0000"/>
<path transform="matrix(1.00003,0,0,-1.00002,3.605667,89.03146)" stroke-width=".79701" stroke-linecap="butt" stroke-miterlimit="10" stroke-linejoin="miter" fill="none" stroke="#000000" d="M200.42026 42.52022C200.42026 43.62068 199.52819 44.51277 198.4277 44.51277 197.32724 44.51277 196.43515 43.62068 196.43515 42.52022 196.43515 41.41974 197.32724 40.52766 198.4277 40.52766 199.52819 40.52766 200.42026 41.41974 200.42026 42.52022ZM198.4277 42.52022"/>
<path transform="matrix(1.00003,0,0,-1.00002,3.605667,89.03146)" d="M157.90004 0C157.90004 1.10048 157.00795 1.99255 155.90749 1.99255 154.807 1.99255 153.91493 1.10048 153.91493 0 153.91493-1.10045 154.807-1.99254 155.90749-1.99254 157.00795-1.99254 157.90004-1.10045 157.90004 0ZM155.90749 0" fill="#ff0000"/>
<path transform="matrix(1.00003,0,0,-1.00002,3.605667,89.03146)" stroke-width=".79701" stroke-linecap="butt" stroke-miterlimit="10" stroke-linejoin="miter" fill="none" stroke="#000000" d="M157.90004 0C157.90004 1.10048 157.00795 1.99255 155.90749 1.99255 154.807 1.99255 153.91493 1.10048 153.91493 0 153.91493-1.10045 154.807-1.99254 155.90749-1.99254 157.00795-1.99254 157.90004-1.10045 157.90004 0ZM155.90749 0"/>
<path transform="matrix(1.00003,0,0,-1.00002,3.605667,89.03146)" d="M157.90004 42.52022C157.90004 43.62068 157.00795 44.51277 155.90749 44.51277 154.807 44.51277 153.91493 43.62068 153.91493 42.52022 153.91493 41.41974 154.807 40.52766 155.90749 40.52766 157.00795 40.52766 157.90004 41.41974 157.90004 42.52022ZM155.90749 42.52022" fill="#ff0000"/>
<path transform="matrix(1.00003,0,0,-1.00002,3.605667,89.03146)" stroke-width=".79701" stroke-linecap="butt" stroke-miterlimit="10" stroke-linejoin="miter" fill="none" stroke="#000000" d="M157.90004 42.52022C157.90004 43.62068 157.00795 44.51277 155.90749 44.51277 154.807 44.51277 153.91493 43.62068 153.91493 42.52022 153.91493 41.41974 154.807 40.52766 155.90749 40.52766 157.00795 40.52766 157.90004 41.41974 157.90004 42.52022ZM155.90749 42.52022"/>
<path transform="matrix(1.00003,0,0,-1.00002,3.605667,89.03146)" d="M200.42026 85.04042C200.42026 86.1409 199.52819 87.03297 198.4277 87.03297 197.32724 87.03297 196.43515 86.1409 196.43515 85.04042 196.43515 83.93996 197.32724 83.04787 198.4277 83.04787 199.52819 83.04787 200.42026 83.93996 200.42026 85.04042ZM198.4277 85.04042" fill="#ff0000"/>
<path transform="matrix(1.00003,0,0,-1.00002,3.605667,89.03146)" stroke-width=".79701" stroke-linecap="butt" stroke-miterlimit="10" stroke-linejoin="miter" fill="none" stroke="#000000" d="M200.42026 85.04042C200.42026 86.1409 199.52819 87.03297 198.4277 87.03297 197.32724 87.03297 196.43515 86.1409 196.43515 85.04042 196.43515 83.93996 197.32724 83.04787 198.4277 83.04787 199.52819 83.04787 200.42026 83.93996 200.42026 85.04042ZM198.4277 85.04042"/>
<path transform="matrix(1.00003,0,0,-1.00002,3.605667,89.03146)" d="M242.94048 42.52022C242.94048 43.62068 242.04839 44.51277 240.94792 44.51277 239.84745 44.51277 238.95537 43.62068 238.95537 42.52022 238.95537 41.41974 239.84745 40.52766 240.94792 40.52766 242.04839 40.52766 242.94048 41.41974 242.94048 42.52022ZM240.94792 42.52022" fill="#ff0000"/>
<path transform="matrix(1.00003,0,0,-1.00002,3.605667,89.03146)" stroke-width=".79701" stroke-linecap="butt" stroke-miterlimit="10" stroke-linejoin="miter" fill="none" stroke="#000000" d="M242.94048 42.52022C242.94048 43.62068 242.04839 44.51277 240.94792 44.51277 239.84745 44.51277 238.95537 43.62068 238.95537 42.52022 238.95537 41.41974 239.84745 40.52766 240.94792 40.52766 242.04839 40.52766 242.94048 41.41974 242.94048 42.52022ZM240.94792 42.52022"/>
<path transform="matrix(1.00003,0,0,-1.00002,3.605667,89.03146)" d="M200.42026 0C200.42026 1.10048 199.52819 1.99255 198.4277 1.99255 197.32724 1.99255 196.43515 1.10048 196.43515 0 196.43515-1.10045 197.32724-1.99254 198.4277-1.99254 199.52819-1.99254 200.42026-1.10045 200.42026 0ZM198.4277 0" fill="#ff0000"/>
<path transform="matrix(1.00003,0,0,-1.00002,3.605667,89.03146)" stroke-width=".79701" stroke-linecap="butt" stroke-miterlimit="10" stroke-linejoin="miter" fill="none" stroke="#000000" d="M200.42026 0C200.42026 1.10048 199.52819 1.99255 198.4277 1.99255 197.32724 1.99255 196.43515 1.10048 196.43515 0 196.43515-1.10045 197.32724-1.99254 198.4277-1.99254 199.52819-1.99254 200.42026-1.10045 200.42026 0ZM198.4277 0"/>
<path transform="matrix(1.00003,0,0,-1.00002,3.605667,89.03146)" stroke-width=".79701" stroke-linecap="butt" stroke-miterlimit="10" stroke-linejoin="miter" fill="none" stroke="#000000" d="M115.0782 44.21117 154.22174 83.35468M157.60378 83.355 196.74738 44.21135M196.7474 40.8291 157.60378 1.68556M154.22174 1.68579 115.0782 40.82928M115.77863 42.52022H153.52132M157.60366 44.21101 196.74729 83.35463M200.1293 83.35504 239.2729 44.21143M239.2729 40.829 200.12926 1.68542M196.74729 1.68584 157.60366 40.82945"/>
<path transform="matrix(1.00003,0,0,-1.00002,3.605667,89.03146)" stroke-width=".79701" stroke-linecap="butt" stroke-miterlimit="10" stroke-linejoin="miter" fill="none" stroke="#000000" d="M158.30397 85.04594 196.04677 85.04585"/>
<path transform="matrix(1.00003,0,0,-1.00002,3.605667,89.03146)" stroke-width=".79701" stroke-linecap="butt" stroke-miterlimit="10" stroke-linejoin="miter" fill="none" stroke="#000000" d="M200.82942 42.52022H238.57212"/>
<path transform="matrix(1.00003,0,0,-1.00002,3.605667,89.03146)" stroke-width=".79701" stroke-linecap="butt" stroke-miterlimit="10" stroke-linejoin="miter" fill="none" stroke="#000000" d="M158.30397-.00545 196.04677-.00539"/>
</svg>
