<svg xmlns="http://www.w3.org/2000/svg" xmlns:xlink="http://www.w3.org/1999/xlink" xmlns:inkscape="http://www.inkscape.org/namespaces/inkscape" version="1.1" width="122" height="65" viewBox="0 0 122 65">
<path transform="matrix(1.00002,0,0,-1.00003,4.287712,3.9916392)" d="M1.99255 0C1.99255 1.10046 1.10046 1.99255 0 1.99255-1.10046 1.99255-1.99255 1.10046-1.99255 0-1.99255-1.10046-1.10046-1.99255 0-1.99255 1.10046-1.99255 1.99255-1.10046 1.99255 0ZM0 0" fill="#ff0000"/>
<path transform="matrix(1.00002,0,0,-1.00003,4.287712,3.9916392)" stroke-width=".79701" stroke-linecap="butt" stroke-miterlimit="10" stroke-linejoin="miter" fill="none" stroke="#000000" d="M1.99255 0C1.99255 1.10046 1.10046 1.99255 0 1.99255-1.10046 1.99255-1.99255 1.10046-1.99255 0-1.99255-1.10046-1.10046-1.99255 0-1.99255 1.10046-1.99255 1.99255-1.10046 1.99255 0ZM0 0"/>
<path transform="matrix(1.00002,0,0,-1.00003,4.287712,3.9916392)" d="M58.68617 0C58.68617 1.10046 57.79408 1.99255 56.69362 1.99255 55.59314 1.99255 54.70107 1.10046 54.70107 0 54.70107-1.10046 55.59314-1.99255 56.69362-1.99255 57.79408-1.99255 58.68617-1.10046 58.68617 0ZM56.69362 0" fill="#ff0000"/>
<path transform="matrix(1.00002,0,0,-1.00003,4.287712,3.9916392)" stroke-width=".79701" stroke-linecap="butt" stroke-miterlimit="10" stroke-linejoin="miter" fill="none" stroke="#000000" d="M58.68617 0C58.68617 1.10046 57.79408 1.99255 56.69362 1.99255 55.59314 1.99255 54.70107 1.10046 54.70107 0 54.70107-1.10046 55.59314-1.99255 56.69362-1.99255 57.79408-1.99255 58.68617-1.10046 58.68617 0ZM56.69362 0"/>
<path transform="matrix(1.00002,0,0,-1.00003,4.287712,3.9916392)" d="M115.37979 0C115.37979 1.10046 114.4877 1.99255 113.38724 1.99255 112.28676 1.99255 111.39468 1.10046 111.39468 0 111.39468-1.10046 112.28676-1.99255 113.38724-1.99255 114.4877-1.99255 115.37979-1.10046 115.37979 0ZM113.38724 0" fill="#ff0000"/>
<path transform="matrix(1.00002,0,0,-1.00003,4.287712,3.9916392)" stroke-width=".79701" stroke-linecap="butt" stroke-miterlimit="10" stroke-linejoin="miter" fill="none" stroke="#000000" d="M115.37979 0C115.37979 1.10046 114.4877 1.99255 113.38724 1.99255 112.28676 1.99255 111.39468 1.10046 111.39468 0 111.39468-1.10046 112.28676-1.99255 113.38724-1.99255 114.4877-1.99255 115.37979-1.10046 115.37979 0ZM113.38724 0"/>
<path transform="matrix(1.00002,0,0,-1.00003,4.287712,3.9916392)" d="M30.33936-56.69362C30.33936-55.59314 29.44728-54.70107 28.3468-54.70107 27.24634-54.70107 26.35425-55.59314 26.35425-56.69362 26.35425-57.79408 27.24634-58.68617 28.3468-58.68617 29.44728-58.68617 30.33936-57.79408 30.33936-56.69362ZM28.3468-56.69362" fill="#ff0000"/>
<path transform="matrix(1.00002,0,0,-1.00003,4.287712,3.9916392)" stroke-width=".79701" stroke-linecap="butt" stroke-miterlimit="10" stroke-linejoin="miter" fill="none" stroke="#000000" d="M30.33936-56.69362C30.33936-55.59314 29.44728-54.70107 28.3468-54.70107 27.24634-54.70107 26.35425-55.59314 26.35425-56.69362 26.35425-57.79408 27.24634-58.68617 28.3468-58.68617 29.44728-58.68617 30.33936-57.79408 30.33936-56.69362ZM28.3468-56.69362"/>
<path transform="matrix(1.00002,0,0,-1.00003,4.287712,3.9916392)" d="M87.03297-56.69362C87.03297-55.59314 86.1409-54.70107 85.04042-54.70107 83.93996-54.70107 83.04787-55.59314 83.04787-56.69362 83.04787-57.79408 83.93996-58.68617 85.04042-58.68617 86.1409-58.68617 87.03297-57.79408 87.03297-56.69362ZM85.04042-56.69362" fill="#ff0000"/>
<path transform="matrix(1.00002,0,0,-1.00003,4.287712,3.9916392)" stroke-width=".79701" stroke-linecap="butt" stroke-miterlimit="10" stroke-linejoin="miter" fill="none" stroke="#000000" d="M87.03297-56.69362C87.03297-55.59314 86.1409-54.70107 85.04042-54.70107 83.93996-54.70107 83.04787-55.59314 83.04787-56.69362 83.04787-57.79408 83.93996-58.68617 85.04042-58.68617 86.1409-58.68617 87.03297-57.79408 87.03297-56.69362ZM85.04042-56.69362"/>
<path transform="matrix(1.00002,0,0,-1.00003,4.287712,3.9916392)" stroke-width=".3985" stroke-linecap="butt" stroke-miterlimit="10" stroke-linejoin="miter" fill="none" stroke="#000000" d="M1.06921-2.13846 27.27759-54.55515M29.41602-54.55515 55.62439-2.13846M57.76283-2.13846 83.9712-54.55515M86.10963-54.55515 112.31801-2.13846M111.39784-1.32625 30.3362-55.36736"/>
</svg>
